<?xml version="1.0" encoding="utf-8"?>
<!-- Generator: Adobe Illustrator 16.0.0, SVG Export Plug-In . SVG Version: 6.00 Build 0)  -->
<!DOCTYPE svg PUBLIC "-//W3C//DTD SVG 1.1//EN" "http://www.w3.org/Graphics/SVG/1.1/DTD/svg11.dtd">
<svg version="1.1" id="Layer_1" xmlns="http://www.w3.org/2000/svg" xmlns:xlink="http://www.w3.org/1999/xlink" x="0px" y="0px"
	 width="600px" height="151px" viewBox="0 0 600 151" enable-background="new 0 0 600 151" xml:space="preserve" preserveAspectRatio="xMinYMin meet">
	 <style type="text/css">
		 <![CDATA[
			@font-face {
				font-family: "Queue Web";
				src: url("http://static.typesupply.com/opentype-cookbook/queueweb-light.woff") format("woff");
				font-weight: 300;
				font-style: normal;
			}
		]]>
	</style>
<path fill="#0A78A0" d="M600,146c0,2.75-2.25,5-5,5H5c-2.75,0-5-2.25-5-5V5c0-2.75,2.25-5,5-5h590c2.75,0,5,2.25,5,5V146z"/>
<polygon fill="#E6FA82" points="198,80 213,65 198,50 387,50 402,65 387,80 "/>
<g>
	<path fill="#FFFFFF" d="M74.916,52.247h4.656v11.866h9.206V52.247h4.656V78.5h-4.656V65.619h-9.206V78.5h-4.656V52.247z"/>
	<path fill="#FFFFFF" d="M105.052,78.85h-0.35c-5.005,0-8.156-2.765-8.156-8.33v-3.396c0-5.565,3.15-8.331,8.156-8.331h0.35
		c4.936,0,8.016,2.556,8.016,7.596v2.136h-12.042v3.64c0,3.535,1.19,5.286,3.851,5.286c2.66,0,4.06-1.12,4.06-3.746v-2.59h4.131v1.4
		C113.068,76.82,109.882,78.85,105.052,78.85z M108.797,64.148c-0.14-2.695-1.4-3.955-3.92-3.955c-2.661,0-3.851,1.75-3.851,5.285
		v1.681h7.806v-2.381L108.797,64.148z"/>
	<path fill="#FFFFFF" d="M120.276,52.247V78.5h-4.341V52.247H120.276z"/>
	<path fill="#FFFFFF" d="M127.906,52.247V78.5h-4.341V52.247H127.906z"/>
	<path fill="#FFFFFF" d="M147.751,67.124v3.396c0,5.565-3.08,8.33-8.331,8.33h-0.35c-5.25,0-8.296-2.765-8.296-8.33v-3.396
		c0-5.565,3.045-8.331,8.296-8.331h0.35C144.671,58.793,147.751,61.559,147.751,67.124z M143.271,72.164v-6.686
		c0-3.535-1.12-5.285-4.025-5.285s-3.99,1.75-3.99,5.285v6.686c0,3.535,1.085,5.286,3.99,5.286S143.271,75.699,143.271,72.164z"/>
</g>
<g>
	<path fill="#FFFFFF" d="M445.495,52.247h4.655v11.866h9.206V52.247h4.655V78.5h-4.655V65.619h-9.206V78.5h-4.655V52.247z"/>
	<path fill="#FFFFFF" d="M467.79,55.923h13.441v1.505h-8.961v8.646h8.226v1.506h-8.226v9.416h8.961V78.5H467.79V55.923z"/>
	<path fill="#FFFFFF" d="M484.52,55.923H489v21.072h8.892V78.5H484.52V55.923z"/>
	<path fill="#FFFFFF" d="M500.654,55.923h4.48v21.072h8.892V78.5h-13.372V55.923z"/>
	<path fill="#FFFFFF" d="M524.036,78.85h-0.351c-5.495,0-8.855-2.729-8.855-8.926v-5.426c0-6.195,3.36-8.926,8.855-8.926h0.351
		c5.46,0,8.821,2.73,8.821,8.926v5.426C532.857,76.12,529.496,78.85,524.036,78.85z M528.236,71.989v-9.556
		c0-3.676-1.436-5.391-4.375-5.391c-2.94,0-4.41,1.715-4.41,5.391v9.556c0,3.676,1.47,5.391,4.41,5.391
		C526.801,77.38,528.236,75.665,528.236,71.989z"/>
</g>
<text transform="matrix(1 0 0 1 230.729 70.5)" fill="#0A78A0" font-family="'Queue Web'" font-weight="300" font-size="16">feature: small caps</text>
<polygon fill="#E6FA82" points="198,131 213,116 198,101 387,101 402,116 387,131 "/>
<g>
	<path fill="#FFFFFF" d="M67.495,103.247h4.656v11.866h9.206v-11.866h4.656V129.5h-4.656v-12.881h-9.206V129.5h-4.656V103.247z"/>
	<path fill="#FFFFFF" d="M89.79,106.923h13.441v1.505h-8.961v8.646h8.226v1.506h-8.226v9.416h8.961v1.505H89.79V106.923z"/>
	<path fill="#FFFFFF" d="M106.52,106.923H111v21.072h8.891v1.505H106.52V106.923z"/>
	<path fill="#FFFFFF" d="M122.655,106.923h4.48v21.072h8.891v1.505h-13.372V106.923z"/>
	<path fill="#FFFFFF" d="M146.036,129.85h-0.35c-5.496,0-8.856-2.729-8.856-8.926v-5.426c0-6.195,3.36-8.926,8.856-8.926h0.35
		c5.46,0,8.821,2.73,8.821,8.926v5.426C154.857,127.12,151.497,129.85,146.036,129.85z M150.237,122.989v-9.556
		c0-3.676-1.436-5.391-4.375-5.391c-2.94,0-4.411,1.715-4.411,5.391v9.556c0,3.676,1.47,5.391,4.411,5.391
		C148.801,128.38,150.237,126.665,150.237,122.989z"/>
</g>
<g>
	<path fill="#FFFFFF" d="M445.495,103.247h4.655v11.866h9.206v-11.866h4.655V129.5h-4.655v-12.881h-9.206V129.5h-4.655V103.247z"/>
	<path fill="#FFFFFF" d="M467.79,106.923h13.441v1.505h-8.961v8.646h8.226v1.506h-8.226v9.416h8.961v1.505H467.79V106.923z"/>
	<path fill="#FFFFFF" d="M484.52,106.923H489v21.072h8.892v1.505H484.52V106.923z"/>
	<path fill="#FFFFFF" d="M500.654,106.923h4.48v21.072h8.892v1.505h-13.372V106.923z"/>
	<path fill="#FFFFFF" d="M524.036,129.85h-0.351c-5.495,0-8.855-2.729-8.855-8.926v-5.426c0-6.195,3.36-8.926,8.855-8.926h0.351
		c5.46,0,8.821,2.73,8.821,8.926v5.426C532.857,127.12,529.496,129.85,524.036,129.85z M528.236,122.989v-9.556
		c0-3.676-1.436-5.391-4.375-5.391c-2.94,0-4.41,1.715-4.41,5.391v9.556c0,3.676,1.47,5.391,4.41,5.391
		C526.801,128.38,528.236,126.665,528.236,122.989z"/>
</g>
<text transform="matrix(1 0 0 1 235.8569 121.5)" fill="#0A78A0" font-family="'Queue Web'" font-weight="300" font-size="16">feature: ligatures</text>
<line fill="none" stroke="#001E3C" stroke-miterlimit="10" x1="20" y1="34.5" x2="188" y2="34.5"/>
<line fill="none" stroke="#001E3C" stroke-miterlimit="10" x1="216" y1="34.5" x2="384" y2="34.5"/>
<line fill="none" stroke="#001E3C" stroke-miterlimit="10" x1="412" y1="34.5" x2="580" y2="34.5"/>
<polyline fill="none" stroke="#E6FA82" stroke-miterlimit="10" points="40.5,115.5 20.5,115.5 20.5,90.5 579.5,90.5 579.5,65.5
	569.5,65.5 "/>
<text transform="matrix(1 0 0 1 88.4404 24.5)" fill="#001E3C" font-family="'Queue Web'" font-weight="300" font-size="16">INPUT</text>
<text transform="matrix(1 0 0 1 257.4326 24.5)" fill="#001E3C" font-family="'Queue Web'" font-weight="300" font-size="16">PROCESSOR</text>
<text transform="matrix(1 0 0 1 460.2568 24.5)" fill="#001E3C" font-family="'Queue Web'" font-weight="300" font-size="16">OUTPUT</text>
<line fill="none" stroke="#001E3C" stroke-miterlimit="10" x1="0" y1="65.5" x2="40.5" y2="65.5"/>
<polyline fill="none" stroke="#001E3C" stroke-miterlimit="10" points="30.5,55.5 40.5,65.5 30.5,75.5 "/>
<polyline fill="none" stroke="#E6FA82" stroke-miterlimit="10" points="30.5,105.5 40.5,115.5 30.5,125.5 "/>
<polyline fill="none" stroke="#E6FA82" stroke-miterlimit="10" points="559.5,55.5 569.5,65.5 559.5,75.5 "/>
<line fill="none" stroke="#001E3C" stroke-miterlimit="10" x1="569.5" y1="115.5" x2="600" y2="115.5"/>
<polyline fill="none" stroke="#001E3C" stroke-miterlimit="10" points="559.5,105.5 569.5,115.5 559.5,125.5 "/>
</svg>
