<?xml version="1.0" encoding="utf-8"?>
<!-- Generator: Adobe Illustrator 16.0.0, SVG Export Plug-In . SVG Version: 6.00 Build 0)  -->
<!DOCTYPE svg PUBLIC "-//W3C//DTD SVG 1.1//EN" "http://www.w3.org/Graphics/SVG/1.1/DTD/svg11.dtd">
<svg version="1.1" id="Layer_1" xmlns="http://www.w3.org/2000/svg" xmlns:xlink="http://www.w3.org/1999/xlink" x="0px" y="0px"
	 width="56px" height="39px" viewBox="0 0 56 39" enable-background="new 0 0 56 39" xml:space="preserve">
<g>
	<g>
		<path fill="#E6FA82" d="M55.5,36.5c0,1.1-0.9,2-2,2h-51c-1.1,0-2-0.9-2-2v-34c0-1.1,0.9-2,2-2h51c1.1,0,2,0.9,2,2V36.5z"/>
		<path fill="none" stroke="#0A78A0" stroke-miterlimit="10" d="M55.5,36.5c0,1.1-0.9,2-2,2h-51c-1.1,0-2-0.9-2-2v-34
			c0-1.1,0.9-2,2-2h51c1.1,0,2,0.9,2,2V36.5z"/>
	</g>
	<line fill="none" stroke="#0A78A0" stroke-miterlimit="10" x1="28.5" y1="0.5" x2="28.5" y2="38.5"/>
	<polygon fill="#0A78A0" points="21,20.5 18,17.5 15,20.5 15,1 21,1 	"/>
	<line fill="none" stroke="#0A78A0" stroke-miterlimit="10" x1="41.5" y1="11.5" x2="50.5" y2="11.5"/>
	<line fill="none" stroke="#0A78A0" stroke-miterlimit="10" x1="41.5" y1="15.5" x2="50.5" y2="15.5"/>
	<line fill="none" stroke="#0A78A0" stroke-miterlimit="10" x1="41.5" y1="19.5" x2="50.5" y2="19.5"/>
	<line fill="none" stroke="#0A78A0" stroke-miterlimit="10" x1="41.5" y1="23.5" x2="50.5" y2="23.5"/>
	<line fill="none" stroke="#0A78A0" stroke-miterlimit="10" x1="41.5" y1="27.5" x2="50.5" y2="27.5"/>
	<g>
		<path fill="#0A78A0" d="M34.535,29.629v-0.063c0-1.151,0.225-2.112,0.641-3.136l1.279-3.136c0.512-1.216,0.607-1.632,0.607-2.08
			v-0.097c0-0.831-0.416-1.215-1.535-1.215h-3.104v-0.801h3.104c1.119,0,1.535-0.383,1.535-1.215V17.79
			c0-0.448-0.319-1.472-0.735-2.368l-0.832-1.76c-0.769-1.631-0.96-2.655-0.96-3.264v-0.064c0-2.367,1.344-3.487,4.128-3.487h1.6
			v0.8h-1.6c-2.272,0-3.265,0.801-3.265,2.721v0.031c0,0.48,0.193,1.408,0.832,2.784l0.832,1.76
			c0.513,1.056,0.864,2.208,0.864,2.815v0.064c0,0.8-0.384,1.408-1.216,1.664v0.031c0.832,0.225,1.216,0.864,1.216,1.664v0.064
			c0,0.607-0.159,1.152-0.735,2.527l-1.28,3.137c-0.319,0.768-0.513,1.695-0.513,2.655v0.032c0,1.92,0.992,2.688,3.265,2.688h1.6
			v0.8h-1.6C35.879,33.085,34.535,31.997,34.535,29.629z"/>
	</g>
</g>
</svg>
