<?xml version="1.0" encoding="utf-8"?>
<!-- Generator: Adobe Illustrator 16.0.0, SVG Export Plug-In . SVG Version: 6.00 Build 0)  -->
<!DOCTYPE svg PUBLIC "-//W3C//DTD SVG 1.1//EN" "http://www.w3.org/Graphics/SVG/1.1/DTD/svg11.dtd">
<svg version="1.1" id="Layer_1" xmlns="http://www.w3.org/2000/svg" xmlns:xlink="http://www.w3.org/1999/xlink" x="0px" y="0px"
	 width="170px" height="110px" viewBox="0 0 170 110" enable-background="new 0 0 170 110" xml:space="preserve">
<g>
	<path fill="#FFFFFF" d="M18.747,12.088h-7.631v-1.541h17.046v1.541h-7.63V34h-1.785V12.088z"/>
	<path fill="#FFFFFF" d="M34.531,21.364V34h-1.681V7.747h1.681v11.901l0.595-0.595c2.24-2.24,3.851-3.115,5.846-3.115
		c3.186,0,5.041,2.24,5.041,5.321V34h-1.715V21.574c0-2.59-1.26-4.025-3.64-4.025c-1.47,0-2.94,0.77-4.866,2.625L34.531,21.364z"/>
	<path fill="#FFFFFF" d="M58.122,34.245c-4.306,0-6.931-2.905-6.931-7.876v-2.45c0-4.936,2.765-7.981,6.896-7.981
		c3.851,0,6.511,2.17,6.511,7.141v2.135H52.941v1.12c0,4.375,1.995,6.371,5.286,6.371c1.785,0,3.675-0.49,5.985-1.575v1.575
		C62.182,33.72,60.012,34.245,58.122,34.245z M52.941,23.744h10.081v-0.56c0-4.271-1.925-5.706-4.9-5.706
		C55.076,17.479,52.941,19.579,52.941,23.744z"/>
	<path fill="#FFFFFF" d="M12.061,56.27v-3.991c0-6.44,3.186-9.976,8.576-9.976c5.39,0,8.576,3.535,8.576,9.976v3.991
		c0,6.439-3.186,9.976-8.576,9.976C15.247,66.245,12.061,62.709,12.061,56.27z M27.393,56.443v-4.34c0-5.531-2.59-8.226-6.755-8.226
		c-4.166,0-6.756,2.695-6.756,8.226v4.34c0,5.531,2.59,8.227,6.756,8.227C24.802,64.67,27.393,61.975,27.393,56.443z"/>
	<path fill="#FFFFFF" d="M36.526,65.02v6.932h-1.681V53.609c0-1.785-0.28-3.815-0.7-5.391h1.61c0.315,1.12,0.56,2.345,0.665,3.57
		l0.945-0.945c1.995-1.96,3.605-2.905,5.706-2.905c3.291,0,5.531,2.45,5.531,7.561v2.94c0,5.391-2.8,7.806-7.281,7.806
		C39.887,66.245,38.101,65.859,36.526,65.02z M46.887,58.404v-2.8c0-4.306-1.505-6.056-4.271-6.056c-1.47,0-2.975,0.805-4.621,2.415
		l-1.47,1.4v10.116c1.61,0.841,3.22,1.226,4.655,1.226C44.962,64.705,46.887,62.955,46.887,58.404z"/>
	<path fill="#FFFFFF" d="M60.326,66.245c-4.306,0-6.931-2.905-6.931-7.876v-2.45c0-4.936,2.765-7.981,6.896-7.981
		c3.851,0,6.511,2.17,6.511,7.141v2.135H55.146v1.12c0,4.375,1.995,6.371,5.286,6.371c1.785,0,3.675-0.49,5.986-1.575v1.575
		C64.387,65.72,62.216,66.245,60.326,66.245z M55.146,55.744h10.081v-0.56c0-4.271-1.925-5.706-4.9-5.706
		C57.281,49.479,55.146,51.579,55.146,55.744z"/>
	<path fill="#FFFFFF" d="M73.695,53.364V66h-1.681V53.609c0-1.785-0.28-3.815-0.7-5.391h1.61c0.315,1.12,0.56,2.345,0.665,3.535
		l0.7-0.7c2.24-2.24,3.851-3.115,5.846-3.115c3.186,0,5.041,2.24,5.041,5.321V66h-1.715V53.574c0-2.59-1.26-4.025-3.64-4.025
		c-1.47,0-2.94,0.77-4.866,2.625L73.695,53.364z"/>
	<path fill="#FFFFFF" d="M95.745,44.088h-7.63v-1.541h17.046v1.541h-7.63V66h-1.786V44.088z"/>
	<path fill="#FFFFFF" d="M106.209,71.705v-1.539c0.98,0.314,1.576,0.42,2.275,0.42c1.541,0,2.521-0.525,3.535-2.941l0.525-1.295
		l-6.51-18.131h1.785l5.04,14.386c0.175,0.49,0.28,0.841,0.489,1.54h0.07c0.176-0.63,0.315-1.119,0.49-1.574l4.9-14.352h1.646
		L113.7,67.75c-1.12,3.36-2.87,4.375-5.04,4.375C107.89,72.125,107.189,72.021,106.209,71.705z"/>
	<path fill="#FFFFFF" d="M126.719,65.02v6.932h-1.68V53.609c0-1.785-0.28-3.815-0.7-5.391h1.61c0.314,1.12,0.56,2.345,0.664,3.57
		l0.945-0.945c1.996-1.96,3.605-2.905,5.706-2.905c3.29,0,5.53,2.45,5.53,7.561v2.94c0,5.391-2.8,7.806-7.28,7.806
		C130.079,66.245,128.294,65.859,126.719,65.02z M137.08,58.404v-2.8c0-4.306-1.506-6.056-4.271-6.056
		c-1.47,0-2.976,0.805-4.62,2.415l-1.471,1.4v10.116c1.61,0.841,3.221,1.226,4.656,1.226
		C135.154,64.705,137.08,62.955,137.08,58.404z"/>
	<path fill="#FFFFFF" d="M150.52,66.245c-4.306,0-6.931-2.905-6.931-7.876v-2.45c0-4.936,2.765-7.981,6.896-7.981
		c3.851,0,6.511,2.17,6.511,7.141v2.135h-11.656v1.12c0,4.375,1.995,6.371,5.286,6.371c1.785,0,3.675-0.49,5.985-1.575v1.575
		C154.58,65.72,152.41,66.245,150.52,66.245z M145.339,55.744h10.081v-0.56c0-4.271-1.926-5.706-4.9-5.706
		C147.475,49.479,145.339,51.579,145.339,55.744z"/>
	<path fill="#FFFFFF" d="M12.061,91.27v-3.991c0-6.44,3.186-9.976,8.891-9.976c1.89,0,3.885,0.525,5.951,1.609v1.576
		c-2.345-1.156-4.201-1.61-5.811-1.61c-4.621,0-7.211,2.694-7.211,8.226v4.34c0,5.531,2.59,8.227,7.211,8.227
		c1.61,0,3.465-0.455,5.811-1.61v1.575c-2.065,1.085-4.061,1.61-5.951,1.61C15.247,101.245,12.061,97.709,12.061,91.27z"/>
	<path fill="#FFFFFF" d="M31.556,93.299v-2.38c0-4.936,2.765-7.981,7.105-7.981c4.341,0,7.106,3.046,7.106,7.981v2.38
		c0,4.936-2.765,7.946-7.106,7.946C34.321,101.245,31.556,98.234,31.556,93.299z M44.018,93.299v-2.38
		c0-4.376-2.101-6.44-5.356-6.44c-3.29,0-5.355,2.064-5.355,6.44v2.38c0,4.341,2.065,6.406,5.355,6.406
		C41.917,99.705,44.018,97.64,44.018,93.299z"/>
	<path fill="#FFFFFF" d="M50.49,93.299v-2.38c0-4.936,2.765-7.981,7.105-7.981c4.341,0,7.106,3.046,7.106,7.981v2.38
		c0,4.936-2.765,7.946-7.106,7.946C53.255,101.245,50.49,98.234,50.49,93.299z M62.951,93.299v-2.38c0-4.376-2.1-6.44-5.355-6.44
		c-3.29,0-5.355,2.064-5.355,6.44v2.38c0,4.341,2.065,6.406,5.355,6.406C60.851,99.705,62.951,97.64,62.951,93.299z"/>
	<path fill="#FFFFFF" d="M71.805,101h-1.68V74.747h1.68V92.6h0.035c0.175-0.315,0.42-0.596,0.665-0.875l8.016-8.506h2.03
		l-6.301,6.755L83.706,101h-2.065l-6.581-9.801l-3.255,3.36V101z"/>
	<path fill="#FFFFFF" d="M88.29,100.335V74.747h1.68v11.901l0.841-0.805c1.994-1.961,3.605-2.906,5.705-2.906
		c3.291,0,5.531,2.451,5.531,7.562v2.94c0,5.391-2.836,7.806-7.981,7.806C92.245,101.245,90.32,101,88.29,100.335z M100.331,93.404
		v-2.801c0-4.305-1.505-6.055-4.271-6.055c-1.471,0-2.975,0.805-4.621,2.414l-1.47,1.4v10.746c1.365,0.385,2.695,0.596,4.376,0.596
		C98.336,99.705,100.331,97.955,100.331,93.404z"/>
	<path fill="#FFFFFF" d="M106.84,93.299v-2.38c0-4.936,2.765-7.981,7.105-7.981c4.34,0,7.105,3.046,7.105,7.981v2.38
		c0,4.936-2.766,7.946-7.105,7.946C109.604,101.245,106.84,98.234,106.84,93.299z M119.301,93.299v-2.38
		c0-4.376-2.101-6.44-5.355-6.44c-3.291,0-5.355,2.064-5.355,6.44v2.38c0,4.341,2.064,6.406,5.355,6.406
		C117.2,99.705,119.301,97.64,119.301,93.299z"/>
	<path fill="#FFFFFF" d="M125.773,93.299v-2.38c0-4.936,2.766-7.981,7.105-7.981c4.342,0,7.106,3.046,7.106,7.981v2.38
		c0,4.936-2.765,7.946-7.106,7.946C128.539,101.245,125.773,98.234,125.773,93.299z M138.235,93.299v-2.38
		c0-4.376-2.101-6.44-5.356-6.44c-3.289,0-5.355,2.064-5.355,6.44v2.38c0,4.341,2.066,6.406,5.355,6.406
		C136.135,99.705,138.235,97.64,138.235,93.299z"/>
	<path fill="#FFFFFF" d="M147.089,101h-1.681V74.747h1.681V92.6h0.034c0.176-0.315,0.42-0.596,0.666-0.875l8.016-8.506h2.03
		l-6.301,6.755L158.99,101h-2.065l-6.581-9.801l-3.255,3.36V101z"/>
</g>
<g>
	<path fill="#E6FA82" d="M89.767,17.247v-6.038h1.694v6.248c0,1.345,0.617,1.975,1.822,1.975c1.204,0,1.82-0.63,1.82-1.975v-6.248
		h1.568v6.038c0,2.325-1.26,3.474-3.445,3.474S89.767,19.572,89.767,17.247z"/>
	<path fill="#E6FA82" d="M98.713,11.209h1.61l3.474,6.08c0.168,0.294,0.295,0.546,0.463,0.882h0.014v-6.962h1.415v9.385h-1.569
		l-3.529-6.023c-0.154-0.266-0.295-0.532-0.449-0.896h-0.014v6.92h-1.414V11.209z"/>
	<path fill="#E6FA82" d="M107.631,16.603v-1.401c0-2.633,1.414-4.118,3.81-4.118c2.382,0,3.796,1.485,3.796,4.118v1.401
		c0,2.633-1.414,4.118-3.796,4.118C109.045,20.721,107.631,19.236,107.631,16.603z M113.472,16.896v-1.989
		c0-1.751-0.827-2.549-2.031-2.549s-2.031,0.798-2.031,2.549v1.989c0,1.751,0.827,2.55,2.031,2.55S113.472,18.647,113.472,16.896z"
		/>
	<path fill="#E6FA82" d="M118.873,16.701v3.894h-1.681v-9.385h5.8v1.233h-4.119v3.012h3.838v1.247H118.873z"/>
	<path fill="#E6FA82" d="M126.629,16.701v3.894h-1.681v-9.385h5.8v1.233h-4.119v3.012h3.838v1.247H126.629z"/>
	<path fill="#E6FA82" d="M132.396,19.502h1.555v-7.2h-1.555v-1.093h4.805v1.093h-1.555v7.2h1.555v1.093h-4.805V19.502z"/>
	<path fill="#E6FA82" d="M138.85,16.603v-1.401c0-2.633,1.415-4.118,3.853-4.118c0.896,0,1.724,0.238,2.591,0.645v1.261
		c-1.008-0.42-1.807-0.603-2.408-0.603c-1.485,0-2.256,0.771-2.256,2.521v1.989c0,1.751,0.771,2.521,2.256,2.521
		c0.602,0,1.4-0.182,2.408-0.616v1.275c-0.867,0.406-1.694,0.644-2.591,0.644C140.265,20.721,138.85,19.236,138.85,16.603z"/>
	<path fill="#E6FA82" d="M146.97,19.502h1.555v-7.2h-1.555v-1.093h4.805v1.093h-1.555v7.2h1.555v1.093h-4.805V19.502z"/>
	<path fill="#E6FA82" d="M158.453,18.003h-3.236l-0.826,2.591h-1.499l3.109-9.385h1.933l3.11,9.385h-1.765L158.453,18.003z
		 M155.595,16.827h2.479l-1.022-3.194c-0.084-0.28-0.154-0.616-0.21-0.938h-0.028c-0.042,0.322-0.112,0.659-0.196,0.938
		L155.595,16.827z"/>
	<path fill="#E6FA82" d="M162.481,11.209h1.681v8.153h4.287v1.232h-5.968V11.209z"/>
</g>
<line fill="none" stroke="#E6FA82" stroke-miterlimit="10" x1="0.5" y1="0" x2="0.5" y2="52.5"/>
<polyline fill="none" stroke="#E6FA82" stroke-miterlimit="10" points="80.5,0 80.5,33.5 169.5,33.5 169.5,52.5 "/>
</svg>
