<?xml version="1.0" encoding="utf-8"?>
<!-- Generator: Adobe Illustrator 16.0.0, SVG Export Plug-In . SVG Version: 6.00 Build 0)  -->
<!DOCTYPE svg PUBLIC "-//W3C//DTD SVG 1.1//EN" "http://www.w3.org/Graphics/SVG/1.1/DTD/svg11.dtd">
<svg version="1.1" id="Layer_1" xmlns="http://www.w3.org/2000/svg" xmlns:xlink="http://www.w3.org/1999/xlink" x="0px" y="0px"
	 width="601px" height="140px" viewBox="0 0 601 140" enable-background="new 0 0 601 140" xml:space="preserve">
<polyline fill="none" stroke="#E6FA82" stroke-miterlimit="10" points="600.5,69.5 600.5,31.5 115.5,31.5 115.5,102.5 0.5,102.5 
	0.5,69.5 "/>
<g>
	<path fill="#FFFFFF" d="M19.281,51.893H7.468V50.58h25.045v1.312H20.699v33.866h-1.418V51.893z"/>
	<path fill="#FFFFFF" d="M41.226,66.909v18.85h-1.417V46.38h1.417v18.639l0.893-0.945c3.413-3.676,5.881-5.093,9.031-5.093
		c4.62,0,7.403,3.308,7.403,7.823v18.955h-1.418V67.067c0-4.096-2.152-6.721-5.985-6.721c-2.468,0-4.884,1.208-7.929,4.411
		L41.226,66.909z"/>
	<path fill="#FFFFFF" d="M76.611,86.127c-5.986,0-9.818-4.358-9.818-11.762v-3.623c0-7.298,3.99-11.761,9.924-11.761
		c5.407,0,9.293,3.098,9.293,10.449v2.783H68.211v1.89c0,7.141,3.255,10.659,8.453,10.659c2.678,0,5.408-0.736,8.82-2.416v1.418
		C82.492,85.339,79.342,86.127,76.611,86.127z M68.211,70.9h16.486v-1.155c0-6.826-3.15-9.398-7.98-9.398
		C71.729,60.346,68.211,64.074,68.211,70.9z"/>
</g>
<g>
	<path fill="#FFFFFF" d="M143.043,71.32v-6.301c0-9.556,4.568-14.807,12.391-14.807c7.824,0,12.393,5.25,12.393,14.807v6.301
		c0,9.556-4.568,14.807-12.393,14.807C147.611,86.127,143.043,80.876,143.043,71.32z M166.408,71.268v-6.196
		c0-8.874-4.148-13.494-10.975-13.494c-6.825,0-10.973,4.621-10.973,13.494v6.196c0,8.873,4.147,13.494,10.973,13.494
		C162.26,84.762,166.408,80.141,166.408,71.268z"/>
	<path fill="#FFFFFF" d="M178.113,84.078v10.606h-1.418v-27.46c0-2.52-0.42-5.513-1.051-7.875h1.418
		c0.473,1.837,0.84,3.833,0.945,5.775l1.365-1.417c3.045-3.255,5.514-4.726,8.873-4.726c4.831,0,8.139,3.57,8.139,11.236v4.41
		c0,7.93-3.938,11.5-10.605,11.5C183.469,86.127,180.686,85.496,178.113,84.078z M194.967,74.365v-3.886
		c0-6.983-2.52-10.133-6.982-10.133c-2.469,0-4.883,1.26-7.509,4.043l-2.362,2.52v15.699c2.625,1.47,5.25,2.153,7.666,2.153
		C191.869,84.762,194.967,81.611,194.967,74.365z"/>
	<path fill="#FFFFFF" d="M213.76,86.127c-5.985,0-9.818-4.358-9.818-11.762v-3.623c0-7.298,3.99-11.761,9.924-11.761
		c5.408,0,9.293,3.098,9.293,10.449v2.783h-17.799v1.89c0,7.141,3.256,10.659,8.453,10.659c2.678,0,5.408-0.736,8.82-2.416v1.418
		C219.641,85.339,216.49,86.127,213.76,86.127z M205.359,70.9h16.486v-1.155c0-6.826-3.15-9.398-7.98-9.398
		C208.877,60.346,205.359,64.074,205.359,70.9z"/>
	<path fill="#FFFFFF" d="M232.764,66.909v18.85h-1.417V67.224c0-2.52-0.42-5.513-1.05-7.875h1.418
		c0.472,1.837,0.84,3.833,0.944,5.775l0.997-1.05c3.414-3.676,5.881-5.093,9.031-5.093c4.621,0,7.404,3.308,7.404,7.823v18.955
		h-1.418V67.067c0-4.096-2.153-6.721-5.986-6.721c-2.467,0-4.883,1.208-7.928,4.411L232.764,66.909z"/>
	<path fill="#FFFFFF" d="M266.628,51.893h-11.813V50.58h25.045v1.312h-11.814v33.866h-1.417V51.893z"/>
	<path fill="#FFFFFF" d="M281.483,94.317v-1.418c1.47,0.525,2.206,0.683,3.255,0.683c2.363,0,4.096-1.155,5.672-5.25l0.787-2.049
		l-9.766-26.935h1.47l8.243,22.997l0.683,1.838h0.104l0.684-1.891l8.033-22.944h1.418L291.67,88.805
		c-1.628,4.725-4.043,6.143-6.932,6.143C283.794,94.947,282.849,94.789,281.483,94.317z"/>
	<path fill="#FFFFFF" d="M310.779,84.078v10.606h-1.418v-27.46c0-2.52-0.42-5.513-1.051-7.875h1.418
		c0.473,1.837,0.84,3.833,0.945,5.775l1.365-1.417c3.045-3.255,5.514-4.726,8.873-4.726c4.831,0,8.139,3.57,8.139,11.236v4.41
		c0,7.93-3.938,11.5-10.605,11.5C316.135,86.127,313.352,85.496,310.779,84.078z M327.633,74.365v-3.886
		c0-6.983-2.52-10.133-6.982-10.133c-2.469,0-4.883,1.26-7.509,4.043l-2.362,2.52v15.699c2.625,1.47,5.25,2.153,7.666,2.153
		C324.535,84.762,327.633,81.611,327.633,74.365z"/>
	<path fill="#FFFFFF" d="M346.427,86.127c-5.985,0-9.819-4.358-9.819-11.762v-3.623c0-7.298,3.991-11.761,9.924-11.761
		c5.408,0,9.294,3.098,9.294,10.449v2.783h-17.8v1.89c0,7.141,3.256,10.659,8.453,10.659c2.678,0,5.408-0.736,8.821-2.416v1.418
		C352.307,85.339,349.156,86.127,346.427,86.127z M338.025,70.9h16.486v-1.155c0-6.826-3.149-9.398-7.98-9.398
		C341.543,60.346,338.025,64.074,338.025,70.9z"/>
	<path fill="#FFFFFF" d="M374.303,71.32v-6.301c0-9.556,4.621-14.807,12.969-14.807c2.678,0,5.618,0.788,8.664,2.416v1.417
		c-3.466-1.785-6.144-2.468-8.611-2.468c-7.403,0-11.604,4.621-11.604,13.494v6.196c0,8.873,4.2,13.494,11.604,13.494
		c2.468,0,5.146-0.684,8.611-2.469v1.418c-3.046,1.628-5.986,2.416-8.664,2.416C378.924,86.127,374.303,80.876,374.303,71.32z"/>
	<path fill="#FFFFFF" d="M403.335,74.365v-3.623c0-7.298,3.938-11.761,10.187-11.761s10.186,4.463,10.186,11.761v3.623
		c0,7.299-3.938,11.762-10.186,11.762S403.335,81.664,403.335,74.365z M422.289,74.103v-3.098c0-6.983-3.412-10.659-8.768-10.659
		s-8.769,3.675-8.769,10.659v3.098c0,6.983,3.413,10.659,8.769,10.659S422.289,81.086,422.289,74.103z"/>
	<path fill="#FFFFFF" d="M431.265,74.365v-3.623c0-7.298,3.938-11.761,10.187-11.761s10.186,4.463,10.186,11.761v3.623
		c0,7.299-3.938,11.762-10.186,11.762S431.265,81.664,431.265,74.365z M450.22,74.103v-3.098c0-6.983-3.413-10.659-8.769-10.659
		s-8.769,3.675-8.769,10.659v3.098c0,6.983,3.413,10.659,8.769,10.659S450.22,81.086,450.22,74.103z"/>
	<path fill="#FFFFFF" d="M461.662,85.759h-1.418V46.38h1.418v27.513h0.053l0.945-0.998l12.863-13.546h1.995l-9.661,10.133
		l11.552,16.277h-1.891L466.86,70.479l-5.198,5.356V85.759z"/>
	<path fill="#FFFFFF" d="M486.704,84.762V46.38h1.418v18.692l1.26-1.365c3.046-3.255,5.514-4.726,8.874-4.726
		c4.83,0,8.139,3.57,8.139,11.236v4.41c0,7.93-4.043,11.5-11.342,11.5C492.375,86.127,489.803,85.759,486.704,84.762z
		 M504.977,74.365v-3.886c0-6.983-2.521-10.133-6.983-10.133c-2.468,0-4.883,1.26-7.508,4.043l-2.363,2.52v16.802
		c2.205,0.683,4.358,1.051,7.141,1.051C501.773,84.762,504.977,81.611,504.977,74.365z"/>
	<path fill="#FFFFFF" d="M513.951,74.365v-3.623c0-7.298,3.938-11.761,10.187-11.761s10.186,4.463,10.186,11.761v3.623
		c0,7.299-3.938,11.762-10.186,11.762S513.951,81.664,513.951,74.365z M532.906,74.103v-3.098c0-6.983-3.413-10.659-8.769-10.659
		s-8.769,3.675-8.769,10.659v3.098c0,6.983,3.413,10.659,8.769,10.659S532.906,81.086,532.906,74.103z"/>
	<path fill="#FFFFFF" d="M541.881,74.365v-3.623c0-7.298,3.938-11.761,10.187-11.761s10.186,4.463,10.186,11.761v3.623
		c0,7.299-3.938,11.762-10.186,11.762S541.881,81.664,541.881,74.365z M560.836,74.103v-3.098c0-6.983-3.413-10.659-8.769-10.659
		s-8.769,3.675-8.769,10.659v3.098c0,6.983,3.413,10.659,8.769,10.659S560.836,81.086,560.836,74.103z"/>
	<path fill="#FFFFFF" d="M572.278,85.759h-1.418V46.38h1.418v27.513h0.053l0.945-0.998l12.863-13.546h1.995l-9.661,10.133
		l11.552,16.277h-1.891l-10.658-15.279l-5.198,5.356V85.759z"/>
</g>
<g>
	<path fill="#E6FA82" d="M102.549,33.911v-6.038h1.695v6.248c0,1.345,0.616,1.975,1.821,1.975c1.204,0,1.821-0.63,1.821-1.975
		v-6.248h1.568v6.038c0,2.325-1.261,3.474-3.445,3.474C103.824,37.385,102.549,36.236,102.549,33.911z"/>
	<path fill="#E6FA82" d="M102.521,41.874h1.611l3.474,6.08c0.168,0.294,0.294,0.546,0.462,0.882h0.014v-6.962h1.416v9.385h-1.569
		l-3.53-6.023c-0.154-0.266-0.294-0.532-0.448-0.896h-0.014v6.92h-1.415V41.874z"/>
	<path fill="#E6FA82" d="M102.199,61.267v-1.401c0-2.633,1.415-4.118,3.811-4.118c2.381,0,3.796,1.485,3.796,4.118v1.401
		c0,2.633-1.415,4.118-3.796,4.118C103.614,65.385,102.199,63.9,102.199,61.267z M108.041,61.561v-1.989
		c0-1.751-0.826-2.549-2.031-2.549s-2.031,0.798-2.031,2.549v1.989c0,1.751,0.826,2.55,2.031,2.55S108.041,63.312,108.041,61.561z"
		/>
	<path fill="#E6FA82" d="M104.91,75.365v3.894h-1.682v-9.385h5.799v1.233h-4.117v3.012h3.838v1.247H104.91z"/>
	<path fill="#E6FA82" d="M104.91,89.365v3.894h-1.682v-9.386h5.799v1.233h-4.117v3.012h3.838v1.247H104.91z"/>
</g>
<g>
	<path fill="#E6FA82" d="M123.6,50.166h1.555v-7.2H123.6v-1.093h4.805v1.093h-1.556v7.2h1.556v1.093H123.6V50.166z"/>
	<path fill="#E6FA82" d="M122.767,61.267v-1.401c0-2.633,1.415-4.118,3.853-4.118c0.896,0,1.723,0.238,2.591,0.645v1.261
		c-1.009-0.42-1.807-0.603-2.409-0.603c-1.484,0-2.255,0.771-2.255,2.521v1.989c0,1.751,0.771,2.521,2.255,2.521
		c0.603,0,1.4-0.182,2.409-0.616v1.275c-0.868,0.406-1.694,0.644-2.591,0.644C124.182,65.385,122.767,63.9,122.767,61.267z"/>
	<path fill="#E6FA82" d="M123.6,78.166h1.555v-7.2H123.6v-1.093h4.805v1.093h-1.556v7.2h1.556v1.093H123.6V78.166z"/>
	<path fill="#E6FA82" d="M127.479,90.668h-3.235l-0.826,2.591h-1.499l3.109-9.386h1.934l3.109,9.386h-1.765L127.479,90.668z
		 M124.622,89.49h2.479l-1.022-3.193c-0.084-0.279-0.154-0.616-0.21-0.938h-0.028c-0.042,0.322-0.112,0.659-0.196,0.938
		L124.622,89.49z"/>
	<path fill="#E6FA82" d="M123.138,97.873h1.681v8.153h4.287v1.232h-5.968V97.873z"/>
</g>
</svg>
