<?xml version="1.0" encoding="utf-8"?>
<!-- Generator: Adobe Illustrator 16.0.0, SVG Export Plug-In . SVG Version: 6.00 Build 0)  -->
<!DOCTYPE svg PUBLIC "-//W3C//DTD SVG 1.1//EN" "http://www.w3.org/Graphics/SVG/1.1/DTD/svg11.dtd">
<svg version="1.1" id="Layer_1" xmlns="http://www.w3.org/2000/svg" xmlns:xlink="http://www.w3.org/1999/xlink" x="0px" y="0px"
	 width="600px" height="624px" viewBox="0 0 600 624" enable-background="new 0 0 600 624" xml:space="preserve">
	 <style type="text/css">
		 <![CDATA[
			@font-face {
				font-family: "Queue Web";
				src: url("../theme/fonts/queueweb-light.woff") format("woff");
				font-weight: 300;
				font-style: normal;
			}
		]]>
	</style>
<path fill="#0A78A0" d="M5,624c-2.75,0-5-2.25-5-5V447c0-2.75,2.25-5,5-5h590c2.75,0,5,2.25,5,5v172c0,2.75-2.25,5-5,5H5z"/>
<path fill="#E6FA82" d="M580,599c0,2.75-2.25,5-5,5H25c-2.75,0-5-2.25-5-5V487c0-2.75,2.25-5,5-5h550c2.75,0,5,2.25,5,5V599z"/>
<path fill="#0A78A0" d="M5,437c-2.75,0-5-2.25-5-5V5c0-2.75,2.25-5,5-5h590c2.75,0,5,2.25,5,5v427c0,2.75-2.25,5-5,5H5z"/>
<text transform="matrix(1 0 0 1 20 29)" fill="#E6FA82" font-family="'Queue Web'" font-weight="300" font-size="16">feature: small caps</text>
<text transform="matrix(1 0 0 1 20 471)" fill="#E6FA82" font-family="'Queue Web'" font-weight="300" font-size="16">feature: ligatures</text>
<rect x="40" y="522" fill="#0A78A0" width="520" height="30"/>
<text transform="matrix(1 0 0 1 60 543)" fill="#E6FA82" font-family="'Queue Web'" font-size="16">replace f i with f_i</text>
<text transform="matrix(1 0 0 1 40 511)" fill="#0A78A0" font-family="'Queue Web'" font-weight="300" font-size="16">lookup: basic</text>
<rect x="40" y="554" fill="#0A78A0" width="520" height="30"/>
<text transform="matrix(1 0 0 1 60 575)" fill="#E6FA82" font-family="'Queue Web'" font-weight="300" font-size="16">replace f l with f_l</text>
<g>
	<defs>
		<path id="SVGID_1_" d="M580,45c0-2.75-2.25-5-5-5H25c-2.75,0-5,2.25-5,5v119.998L28.578,168l28.579-10l28.575,10l28.575-10
			l28.574,10l28.573-10l28.57,10l28.57-10l28.566,10l28.572-10l28.572,10l28.57-10l28.57,10l28.571-10l28.569,10l28.572-10
			l28.569,10l28.567-10l28.568,10l28.566-10l8.568,2.999V45z"/>
	</defs>
	<use xlink:href="#SVGID_1_"  overflow="visible" fill="#E6FA82"/>
	<clipPath id="SVGID_2_">
		<use xlink:href="#SVGID_1_"  overflow="visible"/>
	</clipPath>
	<rect x="40" y="80" clip-path="url(#SVGID_2_)" fill="#0A78A0" width="520" height="30"/>
	<g clip-path="url(#SVGID_2_)">
		<text transform="matrix(1 0 0 1 60 101)" fill="#E6FA82" font-family="'Queue Web'" font-weight="300" font-size="16">replace a with A.sc</text>
	</g>
	<g clip-path="url(#SVGID_2_)">
		<text transform="matrix(1 0 0 1 40 69)" fill="#0A78A0" font-family="'Queue Web'" font-weight="300" font-size="16">lookup: letters</text>
	</g>
	<rect x="40" y="112" clip-path="url(#SVGID_2_)" fill="#0A78A0" width="520" height="30"/>
	<g clip-path="url(#SVGID_2_)">
		<text transform="matrix(1 0 0 1 60 133)" fill="#E6FA82" font-family="'Queue Web'" font-weight="300" font-size="16">replace b with B.sc</text>
	</g>
	<rect x="40" y="144" clip-path="url(#SVGID_2_)" fill="#0A78A0" width="520" height="30"/>
	<g clip-path="url(#SVGID_2_)">
		<text transform="matrix(1 0 0 1 60 165)" fill="#E6FA82" font-family="'Queue Web'" font-weight="300" font-size="16">replace c with C.sc</text>
	</g>
</g>
<g>
	<defs>
		<path id="SVGID_3_" d="M20,221c0,2.75,2.25,5,5,5h550c2.75,0,5-2.25,5-5v-50.998L571.422,167l-28.579,10l-28.575-10l-28.575,10
			l-28.574-10l-28.573,10l-28.57-10l-28.57,10l-28.566-10l-28.572,10l-28.572-10l-28.57,10l-28.57-10l-28.571,10l-28.569-10
			l-28.572,10l-28.569-10l-28.567,10l-28.568-10l-28.566,10L20,174.001V221z"/>
	</defs>
	<use xlink:href="#SVGID_3_"  overflow="visible" fill="#E6FA82"/>
	<clipPath id="SVGID_4_">
		<use xlink:href="#SVGID_3_"  overflow="visible"/>
	</clipPath>
	<rect x="40" y="144" clip-path="url(#SVGID_4_)" fill="#0A78A0" width="520" height="30"/>
	<rect x="40" y="176" clip-path="url(#SVGID_4_)" fill="#0A78A0" width="520" height="30"/>
	<g clip-path="url(#SVGID_4_)">
		<text transform="matrix(1 0 0 1 60 197)" fill="#E6FA82" font-family="'Queue Web'" font-weight="300" font-size="16">replace z with Z.sc</text>
	</g>
</g>
<polyline fill="none" stroke="#E6FA82" stroke-miterlimit="10" points="20,164.998 28.578,168 57.157,158 85.732,168 114.308,158 
	142.882,168 171.455,158 200.025,168 228.596,158 257.162,168 285.734,158 314.307,168 342.877,158 371.447,168 400.019,158 
	428.588,168 457.16,158 485.729,168 514.297,158 542.865,168 571.432,158 580,160.999 "/>
<polyline fill="none" stroke="#E6FA82" stroke-miterlimit="10" points="20,173.998 28.578,177 57.157,167 85.732,177 114.308,167 
	142.882,177 171.455,167 200.025,177 228.596,167 257.162,177 285.734,167 314.307,177 342.877,167 371.447,177 400.019,167 
	428.588,177 457.16,167 485.729,177 514.297,167 542.865,177 571.432,167 580,169.999 "/>
<g>
	<defs>
		<path id="SVGID_5_" d="M580,236c0-2.75-2.25-5-5-5H25c-2.75,0-5,2.25-5,5v119.998L28.578,359l28.579-10l28.575,10l28.575-10
			l28.574,10l28.573-10l28.57,10l28.57-10l28.566,10l28.572-10l28.572,10l28.57-10l28.57,10l28.571-10l28.569,10l28.572-10
			l28.569,10l28.567-10l28.568,10l28.566-10l8.568,2.999V236z"/>
	</defs>
	<use xlink:href="#SVGID_5_"  overflow="visible" fill="#E6FA82"/>
	<clipPath id="SVGID_6_">
		<use xlink:href="#SVGID_5_"  overflow="visible"/>
	</clipPath>
	<rect x="40" y="271" clip-path="url(#SVGID_6_)" fill="#0A78A0" width="520" height="30"/>
	<g clip-path="url(#SVGID_6_)">
		<text transform="matrix(1 0 0 1 60 292)" fill="#E6FA82" font-family="'Queue Web'" font-weight="300" font-size="16">replace zero with zero.sc</text>
	</g>
	<g clip-path="url(#SVGID_6_)">
		<text transform="matrix(1 0 0 1 40 260)" fill="#0A78A0" font-family="'Queue Web'" font-weight="300" font-size="16">lookup: numbers</text>
	</g>
	<rect x="40" y="303" clip-path="url(#SVGID_6_)" fill="#0A78A0" width="520" height="30"/>
	<g clip-path="url(#SVGID_6_)">
		<text transform="matrix(1 0 0 1 60 324)" fill="#E6FA82" font-family="'Queue Web'" font-weight="300" font-size="16">replace one with one.sc</text>
	</g>
	<rect x="40" y="335" clip-path="url(#SVGID_6_)" fill="#0A78A0" width="520" height="30"/>
	<g clip-path="url(#SVGID_6_)">
		<text transform="matrix(1 0 0 1 60 356)" fill="#E6FA82" font-family="'Queue Web'" font-weight="300" font-size="16">replace two with two.sc</text>
	</g>
</g>
<g>
	<defs>
		<path id="SVGID_7_" d="M20,412c0,2.75,2.25,5,5,5h550c2.75,0,5-2.25,5-5v-50.998L571.422,358l-28.579,10l-28.575-10l-28.575,10
			l-28.574-10l-28.573,10l-28.57-10l-28.57,10l-28.566-10l-28.572,10l-28.572-10l-28.57,10l-28.57-10l-28.571,10l-28.569-10
			l-28.572,10l-28.569-10l-28.567,10l-28.568-10l-28.566,10L20,365.001V412z"/>
	</defs>
	<use xlink:href="#SVGID_7_"  overflow="visible" fill="#E6FA82"/>
	<clipPath id="SVGID_8_">
		<use xlink:href="#SVGID_7_"  overflow="visible"/>
	</clipPath>
	<rect x="40" y="335" clip-path="url(#SVGID_8_)" fill="#0A78A0" width="520" height="30"/>
	<rect x="40" y="367" clip-path="url(#SVGID_8_)" fill="#0A78A0" width="520" height="30"/>
	<g clip-path="url(#SVGID_8_)">
		<text transform="matrix(1 0 0 1 60 388)" fill="#E6FA82" font-family="'Queue Web'" font-weight="300" font-size="16">replace nine with nine.sc</text>
	</g>
</g>
<polyline fill="none" stroke="#E6FA82" stroke-miterlimit="10" points="20,355.998 28.578,359 57.157,349 85.732,359 114.308,349 
	142.882,359 171.455,349 200.025,359 228.596,349 257.162,359 285.734,349 314.307,359 342.877,349 371.447,359 400.019,349 
	428.588,359 457.16,349 485.729,359 514.297,349 542.865,359 571.432,349 580,351.999 "/>
<polyline fill="none" stroke="#E6FA82" stroke-miterlimit="10" points="20,364.998 28.578,368 57.157,358 85.732,368 114.308,358 
	142.882,368 171.455,358 200.025,368 228.596,358 257.162,368 285.734,358 314.307,368 342.877,358 371.447,368 400.019,358 
	428.588,368 457.16,358 485.729,368 514.297,358 542.865,368 571.432,358 580,360.999 "/>
</svg>
