<?xml version="1.0" encoding="utf-8"?>
<!-- Generator: Adobe Illustrator 16.0.0, SVG Export Plug-In . SVG Version: 6.00 Build 0)  -->
<!DOCTYPE svg PUBLIC "-//W3C//DTD SVG 1.1//EN" "http://www.w3.org/Graphics/SVG/1.1/DTD/svg11.dtd">
<svg version="1.1" id="Layer_1" xmlns="http://www.w3.org/2000/svg" xmlns:xlink="http://www.w3.org/1999/xlink" x="0px" y="0px"
	 width="600px" height="451.366px" viewBox="0 0 600 451.366" enable-background="new 0 0 600 451.366" xml:space="preserve">
<path fill="#0A78A0" d="M595,0H5C2.25,0,0,2.25,0,5v40.5l28.578,10l28.579-10l28.575,10l28.575-10l28.574,10l28.573-10l28.57,10
	l28.57-10l28.566,10l28.572-10l28.572,10l28.57-10l28.57,10l28.571-10l28.569,10l28.572-10l28.569,10l28.567-10l28.568,10l28.566-10
	L600,55.5V5C600,2.25,597.75,0,595,0z"/>
<g>
	<defs>
		<polygon id="SVGID_1_" points="600,64.366 571.432,54.366 542.865,64.366 514.297,54.366 485.729,64.366 457.16,54.366 
			428.588,64.366 400.019,54.366 371.447,64.366 342.877,54.366 314.307,64.366 285.734,54.366 257.162,64.366 228.596,54.366 
			200.025,64.366 171.455,54.366 142.882,64.366 114.308,54.366 85.732,64.366 57.157,54.366 28.578,64.366 0,54.366 0,441.367 
			28.578,451.367 57.157,441.367 85.732,451.367 114.308,441.367 142.882,451.367 171.455,441.367 200.025,451.367 228.596,441.367 
			257.162,451.367 285.734,441.367 314.307,451.367 342.877,441.367 371.447,451.367 400.019,441.367 428.588,451.367 
			457.16,441.367 485.729,451.367 514.297,441.367 542.865,451.367 571.432,441.367 600,451.367 		"/>
	</defs>
	<use xlink:href="#SVGID_1_"  overflow="visible" fill="#0A78A0"/>
	<clipPath id="SVGID_2_">
		<use xlink:href="#SVGID_1_"  overflow="visible"/>
	</clipPath>
	<polygon clip-path="url(#SVGID_2_)" fill="#E6FA82" points="198,165.866 213,150.866 198,135.866 387,135.866 402,150.866 
		387,165.866 	"/>
	<g clip-path="url(#SVGID_2_)">
		<path fill="#E6FA82" d="M74.916,138.113h4.656v11.866h9.206v-11.866h4.656v26.253h-4.656v-12.881h-9.206v12.881h-4.656V138.113z"
			/>
		<path fill="#FFFFFF" d="M105.052,164.716h-0.35c-5.005,0-8.156-2.765-8.156-8.33v-3.396c0-5.565,3.15-8.331,8.156-8.331h0.35
			c4.936,0,8.016,2.556,8.016,7.596v2.136h-12.042v3.64c0,3.535,1.19,5.286,3.851,5.286c2.66,0,4.06-1.12,4.06-3.746v-2.59h4.131
			v1.4C113.068,162.687,109.882,164.716,105.052,164.716z M108.797,150.015c-0.14-2.695-1.4-3.955-3.92-3.955
			c-2.661,0-3.851,1.75-3.851,5.285v1.681h7.806v-2.381L108.797,150.015z"/>
		<path fill="#E6FA82" d="M120.276,138.113v26.253h-4.341v-26.253H120.276z"/>
		<path fill="#E6FA82" d="M127.906,138.113v26.253h-4.341v-26.253H127.906z"/>
		<path fill="#E6FA82" d="M147.751,152.99v3.396c0,5.565-3.08,8.33-8.331,8.33h-0.35c-5.25,0-8.296-2.765-8.296-8.33v-3.396
			c0-5.565,3.045-8.331,8.296-8.331h0.35C144.671,144.659,147.751,147.425,147.751,152.99z M143.271,158.03v-6.686
			c0-3.535-1.12-5.285-4.025-5.285s-3.99,1.75-3.99,5.285v6.686c0,3.535,1.085,5.286,3.99,5.286S143.271,161.565,143.271,158.03z"/>
	</g>
	<g clip-path="url(#SVGID_2_)">
		<path fill="#E6FA82" d="M452.916,138.113h4.656v11.866h9.205v-11.866h4.656v26.253h-4.656v-12.881h-9.205v12.881h-4.656V138.113z"
			/>
		<path fill="#FFFFFF" d="M483.052,164.716h-0.351c-5.005,0-8.155-2.765-8.155-8.33v-3.396c0-5.565,3.15-8.331,8.155-8.331h0.351
			c4.936,0,8.017,2.556,8.017,7.596v2.136h-12.042v3.64c0,3.535,1.19,5.286,3.851,5.286s4.061-1.12,4.061-3.746v-2.59h4.131v1.4
			C491.068,162.687,487.883,164.716,483.052,164.716z M486.797,150.015c-0.14-2.695-1.4-3.955-3.92-3.955
			c-2.66,0-3.851,1.75-3.851,5.285v1.681h7.806v-2.381L486.797,150.015z"/>
		<path fill="#E6FA82" d="M498.276,138.113v26.253h-4.341v-26.253H498.276z"/>
		<path fill="#E6FA82" d="M505.906,138.113v26.253h-4.342v-26.253H505.906z"/>
		<path fill="#E6FA82" d="M525.751,152.99v3.396c0,5.565-3.08,8.33-8.331,8.33h-0.35c-5.25,0-8.296-2.765-8.296-8.33v-3.396
			c0-5.565,3.046-8.331,8.296-8.331h0.35C522.671,144.659,525.751,147.425,525.751,152.99z M521.271,158.03v-6.686
			c0-3.535-1.12-5.285-4.025-5.285s-3.99,1.75-3.99,5.285v6.686c0,3.535,1.085,5.286,3.99,5.286S521.271,161.565,521.271,158.03z"/>
	</g>
	<g clip-path="url(#SVGID_2_)">
		<text transform="matrix(1 0 0 1 231.8169 156.3662)" fill="#0A78A0" font-family="'Queue-Light'" font-size="16">replace a with A.sc</text>
	</g>
	<polyline clip-path="url(#SVGID_2_)" fill="none" stroke="#E6FA82" stroke-miterlimit="10" points="40.5,201.366 20.5,201.366 
		20.5,176.366 579.5,176.366 579.5,151.366 569.5,151.366 	"/>
	<polyline clip-path="url(#SVGID_2_)" fill="none" stroke="#E6FA82" stroke-miterlimit="10" points="30.5,191.366 40.5,201.366 
		30.5,211.366 	"/>
	<polyline clip-path="url(#SVGID_2_)" fill="none" stroke="#E6FA82" stroke-miterlimit="10" points="559.5,141.366 569.5,151.366 
		559.5,161.366 	"/>
	<polygon clip-path="url(#SVGID_2_)" fill="#E6FA82" points="198,114.866 213,99.866 198,84.866 387,84.866 402,99.866 387,114.866 
			"/>
	<g clip-path="url(#SVGID_2_)">
		<path fill="#FFFFFF" d="M74.916,87.113h4.656v11.866h9.206V87.113h4.656v26.253h-4.656v-12.881h-9.206v12.881h-4.656V87.113z"/>
		<path fill="#E6FA82" d="M105.052,113.716h-0.35c-5.005,0-8.156-2.765-8.156-8.33v-3.396c0-5.565,3.15-8.331,8.156-8.331h0.35
			c4.936,0,8.016,2.556,8.016,7.596v2.136h-12.042v3.64c0,3.535,1.19,5.286,3.851,5.286c2.66,0,4.06-1.12,4.06-3.746v-2.59h4.131
			v1.4C113.068,111.687,109.882,113.716,105.052,113.716z M108.797,99.015c-0.14-2.695-1.4-3.955-3.92-3.955
			c-2.661,0-3.851,1.75-3.851,5.285v1.681h7.806v-2.381L108.797,99.015z"/>
		<path fill="#E6FA82" d="M120.276,87.113v26.253h-4.341V87.113H120.276z"/>
		<path fill="#E6FA82" d="M127.906,87.113v26.253h-4.341V87.113H127.906z"/>
		<path fill="#E6FA82" d="M147.751,101.99v3.396c0,5.565-3.08,8.33-8.331,8.33h-0.35c-5.25,0-8.296-2.765-8.296-8.33v-3.396
			c0-5.565,3.045-8.331,8.296-8.331h0.35C144.671,93.659,147.751,96.425,147.751,101.99z M143.271,107.03v-6.686
			c0-3.535-1.12-5.285-4.025-5.285s-3.99,1.75-3.99,5.285v6.686c0,3.535,1.085,5.286,3.99,5.286S143.271,110.565,143.271,107.03z"/>
	</g>
	<g clip-path="url(#SVGID_2_)">
		<path fill="#FFFFFF" d="M452.916,87.113h4.656v11.866h9.205V87.113h4.656v26.253h-4.656v-12.881h-9.205v12.881h-4.656V87.113z"/>
		<path fill="#E6FA82" d="M483.052,113.716h-0.351c-5.005,0-8.155-2.765-8.155-8.33v-3.396c0-5.565,3.15-8.331,8.155-8.331h0.351
			c4.936,0,8.017,2.556,8.017,7.596v2.136h-12.042v3.64c0,3.535,1.19,5.286,3.851,5.286s4.061-1.12,4.061-3.746v-2.59h4.131v1.4
			C491.068,111.687,487.883,113.716,483.052,113.716z M486.797,99.015c-0.14-2.695-1.4-3.955-3.92-3.955
			c-2.66,0-3.851,1.75-3.851,5.285v1.681h7.806v-2.381L486.797,99.015z"/>
		<path fill="#E6FA82" d="M498.276,87.113v26.253h-4.341V87.113H498.276z"/>
		<path fill="#E6FA82" d="M505.906,87.113v26.253h-4.342V87.113H505.906z"/>
		<path fill="#E6FA82" d="M525.751,101.99v3.396c0,5.565-3.08,8.33-8.331,8.33h-0.35c-5.25,0-8.296-2.765-8.296-8.33v-3.396
			c0-5.565,3.046-8.331,8.296-8.331h0.35C522.671,93.659,525.751,96.425,525.751,101.99z M521.271,107.03v-6.686
			c0-3.535-1.12-5.285-4.025-5.285s-3.99,1.75-3.99,5.285v6.686c0,3.535,1.085,5.286,3.99,5.286S521.271,110.565,521.271,107.03z"/>
	</g>
	<g clip-path="url(#SVGID_2_)">
		<text transform="matrix(1 0 0 1 232.3608 105.3662)" fill="#0A78A0" font-family="'Queue-Light'" font-size="16">replace z with Z.sc</text>
	</g>
	<polyline clip-path="url(#SVGID_2_)" fill="none" stroke="#001E3C" stroke-miterlimit="10" points="40.5,150.366 20.5,150.366 
		20.5,125.366 579.5,125.366 579.5,100.366 569.5,100.366 	"/>
	<polyline clip-path="url(#SVGID_2_)" fill="none" stroke="#001E3C" stroke-miterlimit="10" points="30.5,140.366 40.5,150.366 
		30.5,160.366 	"/>
	<polyline clip-path="url(#SVGID_2_)" fill="none" stroke="#001E3C" stroke-miterlimit="10" points="559.5,90.366 569.5,100.366 
		559.5,110.366 	"/>
	<polygon clip-path="url(#SVGID_2_)" fill="#E6FA82" points="198,63.866 213,48.866 198,33.866 387,33.866 402,48.866 387,63.866 	
		"/>
	<g clip-path="url(#SVGID_2_)">
		<path fill="#FFFFFF" d="M74.916,36.113h4.656v11.866h9.206V36.113h4.656v26.253h-4.656V49.485h-9.206v12.881h-4.656V36.113z"/>
		<path fill="#E6FA82" d="M105.052,62.716h-0.35c-5.005,0-8.156-2.765-8.156-8.33V50.99c0-5.565,3.15-8.331,8.156-8.331h0.35
			c4.936,0,8.016,2.556,8.016,7.596v2.136h-12.042v3.64c0,3.535,1.19,5.286,3.851,5.286c2.66,0,4.06-1.12,4.06-3.746v-2.59h4.131
			v1.4C113.068,60.687,109.882,62.716,105.052,62.716z M108.797,48.015c-0.14-2.695-1.4-3.955-3.92-3.955
			c-2.661,0-3.851,1.75-3.851,5.285v1.681h7.806v-2.381L108.797,48.015z"/>
		<path fill="#E6FA82" d="M120.276,36.113v26.253h-4.341V36.113H120.276z"/>
		<path fill="#E6FA82" d="M127.906,36.113v26.253h-4.341V36.113H127.906z"/>
		<path fill="#E6FA82" d="M147.751,50.99v3.396c0,5.565-3.08,8.33-8.331,8.33h-0.35c-5.25,0-8.296-2.765-8.296-8.33V50.99
			c0-5.565,3.045-8.331,8.296-8.331h0.35C144.671,42.659,147.751,45.425,147.751,50.99z M143.271,56.03v-6.686
			c0-3.535-1.12-5.285-4.025-5.285s-3.99,1.75-3.99,5.285v6.686c0,3.535,1.085,5.286,3.99,5.286S143.271,59.565,143.271,56.03z"/>
	</g>
	<g clip-path="url(#SVGID_2_)">
		<path fill="#FFFFFF" d="M452.916,36.113h4.656v11.866h9.205V36.113h4.656v26.253h-4.656V49.485h-9.205v12.881h-4.656V36.113z"/>
		<path fill="#E6FA82" d="M483.052,62.716h-0.351c-5.005,0-8.155-2.765-8.155-8.33V50.99c0-5.565,3.15-8.331,8.155-8.331h0.351
			c4.936,0,8.017,2.556,8.017,7.596v2.136h-12.042v3.64c0,3.535,1.19,5.286,3.851,5.286s4.061-1.12,4.061-3.746v-2.59h4.131v1.4
			C491.068,60.687,487.883,62.716,483.052,62.716z M486.797,48.015c-0.14-2.695-1.4-3.955-3.92-3.955
			c-2.66,0-3.851,1.75-3.851,5.285v1.681h7.806v-2.381L486.797,48.015z"/>
		<path fill="#E6FA82" d="M498.276,36.113v26.253h-4.341V36.113H498.276z"/>
		<path fill="#E6FA82" d="M505.906,36.113v26.253h-4.342V36.113H505.906z"/>
		<path fill="#E6FA82" d="M525.751,50.99v3.396c0,5.565-3.08,8.33-8.331,8.33h-0.35c-5.25,0-8.296-2.765-8.296-8.33V50.99
			c0-5.565,3.046-8.331,8.296-8.331h0.35C522.671,42.659,525.751,45.425,525.751,50.99z M521.271,56.03v-6.686
			c0-3.535-1.12-5.285-4.025-5.285s-3.99,1.75-3.99,5.285v6.686c0,3.535,1.085,5.286,3.99,5.286S521.271,59.565,521.271,56.03z"/>
	</g>
	<g clip-path="url(#SVGID_2_)">
		<text transform="matrix(1 0 0 1 231.7612 54.3662)" fill="#0A78A0" font-family="'Queue-Light'" font-size="16">replace y with Y.sc</text>
	</g>
	<polyline clip-path="url(#SVGID_2_)" fill="none" stroke="#E6FA82" stroke-miterlimit="10" points="40.5,99.366 20.5,99.366 
		20.5,74.366 579.5,74.366 579.5,49.366 569.5,49.366 	"/>
	<polyline clip-path="url(#SVGID_2_)" fill="none" stroke="#E6FA82" stroke-miterlimit="10" points="30.5,89.366 40.5,99.366 
		30.5,109.366 	"/>
	<polyline clip-path="url(#SVGID_2_)" fill="none" stroke="#E6FA82" stroke-miterlimit="10" points="559.5,39.366 569.5,49.366 
		559.5,59.366 	"/>
	<polygon clip-path="url(#SVGID_2_)" fill="#E6FA82" points="198,216.866 213,201.866 198,186.866 387,186.866 402,201.866 
		387,216.866 	"/>
	<g clip-path="url(#SVGID_2_)">
		<path fill="#E6FA82" d="M74.916,189.113h4.656v11.866h9.206v-11.866h4.656v26.253h-4.656v-12.881h-9.206v12.881h-4.656V189.113z"
			/>
		<path fill="#FFFFFF" d="M105.052,215.716h-0.35c-5.005,0-8.156-2.765-8.156-8.33v-3.396c0-5.565,3.15-8.331,8.156-8.331h0.35
			c4.936,0,8.016,2.556,8.016,7.596v2.136h-12.042v3.64c0,3.535,1.19,5.286,3.851,5.286c2.66,0,4.06-1.12,4.06-3.746v-2.59h4.131
			v1.4C113.068,213.687,109.882,215.716,105.052,215.716z M108.797,201.015c-0.14-2.695-1.4-3.955-3.92-3.955
			c-2.661,0-3.851,1.75-3.851,5.285v1.681h7.806v-2.381L108.797,201.015z"/>
		<path fill="#E6FA82" d="M120.276,189.113v26.253h-4.341v-26.253H120.276z"/>
		<path fill="#E6FA82" d="M127.906,189.113v26.253h-4.341v-26.253H127.906z"/>
		<path fill="#E6FA82" d="M147.751,203.99v3.396c0,5.565-3.08,8.33-8.331,8.33h-0.35c-5.25,0-8.296-2.765-8.296-8.33v-3.396
			c0-5.565,3.045-8.331,8.296-8.331h0.35C144.671,195.659,147.751,198.425,147.751,203.99z M143.271,209.03v-6.686
			c0-3.535-1.12-5.285-4.025-5.285s-3.99,1.75-3.99,5.285v6.686c0,3.535,1.085,5.286,3.99,5.286S143.271,212.565,143.271,209.03z"/>
	</g>
	<g clip-path="url(#SVGID_2_)">
		<path fill="#E6FA82" d="M452.916,189.113h4.656v11.866h9.205v-11.866h4.656v26.253h-4.656v-12.881h-9.205v12.881h-4.656V189.113z"
			/>
		<path fill="#FFFFFF" d="M483.052,215.716h-0.351c-5.005,0-8.155-2.765-8.155-8.33v-3.396c0-5.565,3.15-8.331,8.155-8.331h0.351
			c4.936,0,8.017,2.556,8.017,7.596v2.136h-12.042v3.64c0,3.535,1.19,5.286,3.851,5.286s4.061-1.12,4.061-3.746v-2.59h4.131v1.4
			C491.068,213.687,487.883,215.716,483.052,215.716z M486.797,201.015c-0.14-2.695-1.4-3.955-3.92-3.955
			c-2.66,0-3.851,1.75-3.851,5.285v1.681h7.806v-2.381L486.797,201.015z"/>
		<path fill="#E6FA82" d="M498.276,189.113v26.253h-4.341v-26.253H498.276z"/>
		<path fill="#E6FA82" d="M505.906,189.113v26.253h-4.342v-26.253H505.906z"/>
		<path fill="#E6FA82" d="M525.751,203.99v3.396c0,5.565-3.08,8.33-8.331,8.33h-0.35c-5.25,0-8.296-2.765-8.296-8.33v-3.396
			c0-5.565,3.046-8.331,8.296-8.331h0.35C522.671,195.659,525.751,198.425,525.751,203.99z M521.271,209.03v-6.686
			c0-3.535-1.12-5.285-4.025-5.285s-3.99,1.75-3.99,5.285v6.686c0,3.535,1.085,5.286,3.99,5.286S521.271,212.565,521.271,209.03z"/>
	</g>
	<g clip-path="url(#SVGID_2_)">
		<text transform="matrix(1 0 0 1 231.3848 207.3662)" fill="#0A78A0" font-family="'Queue-Light'" font-size="16">replace b with B.sc</text>
	</g>
	<polyline clip-path="url(#SVGID_2_)" fill="none" stroke="#E6FA82" stroke-miterlimit="10" points="40.5,252.367 20.5,252.367 
		20.5,227.367 579.5,227.367 579.5,202.366 569.5,202.366 	"/>
	<polyline clip-path="url(#SVGID_2_)" fill="none" stroke="#E6FA82" stroke-miterlimit="10" points="30.5,242.367 40.5,252.367 
		30.5,262.367 	"/>
	<polyline clip-path="url(#SVGID_2_)" fill="none" stroke="#E6FA82" stroke-miterlimit="10" points="559.5,192.366 569.5,202.366 
		559.5,212.366 	"/>
	<polygon clip-path="url(#SVGID_2_)" fill="#E6FA82" points="198,267.867 213,252.867 198,237.867 387,237.867 402,252.867 
		387,267.867 	"/>
	<g clip-path="url(#SVGID_2_)">
		<path fill="#E6FA82" d="M74.916,240.113h4.656v11.867h9.206v-11.867h4.656v26.254h-4.656v-12.881h-9.206v12.881h-4.656V240.113z"
			/>
		<path fill="#FFFFFF" d="M105.052,266.716h-0.35c-5.005,0-8.156-2.766-8.156-8.33v-3.396c0-5.564,3.15-8.33,8.156-8.33h0.35
			c4.936,0,8.016,2.555,8.016,7.596v2.135h-12.042v3.641c0,3.535,1.19,5.285,3.851,5.285c2.66,0,4.06-1.119,4.06-3.746v-2.59h4.131
			v1.4C113.068,264.687,109.882,266.716,105.052,266.716z M108.797,252.015c-0.14-2.695-1.4-3.955-3.92-3.955
			c-2.661,0-3.851,1.75-3.851,5.285v1.68h7.806v-2.381L108.797,252.015z"/>
		<path fill="#E6FA82" d="M120.276,240.113v26.254h-4.341v-26.254H120.276z"/>
		<path fill="#E6FA82" d="M127.906,240.113v26.254h-4.341v-26.254H127.906z"/>
		<path fill="#E6FA82" d="M147.751,254.99v3.396c0,5.564-3.08,8.33-8.331,8.33h-0.35c-5.25,0-8.296-2.766-8.296-8.33v-3.396
			c0-5.564,3.045-8.33,8.296-8.33h0.35C144.671,246.66,147.751,249.425,147.751,254.99z M143.271,260.031v-6.686
			c0-3.535-1.12-5.285-4.025-5.285s-3.99,1.75-3.99,5.285v6.686c0,3.535,1.085,5.285,3.99,5.285S143.271,263.566,143.271,260.031z"
			/>
	</g>
	<g clip-path="url(#SVGID_2_)">
		<path fill="#E6FA82" d="M452.916,240.113h4.656v11.867h9.205v-11.867h4.656v26.254h-4.656v-12.881h-9.205v12.881h-4.656V240.113z"
			/>
		<path fill="#FFFFFF" d="M483.052,266.716h-0.351c-5.005,0-8.155-2.766-8.155-8.33v-3.396c0-5.564,3.15-8.33,8.155-8.33h0.351
			c4.936,0,8.017,2.555,8.017,7.596v2.135h-12.042v3.641c0,3.535,1.19,5.285,3.851,5.285s4.061-1.119,4.061-3.746v-2.59h4.131v1.4
			C491.068,264.687,487.883,266.716,483.052,266.716z M486.797,252.015c-0.14-2.695-1.4-3.955-3.92-3.955
			c-2.66,0-3.851,1.75-3.851,5.285v1.68h7.806v-2.381L486.797,252.015z"/>
		<path fill="#E6FA82" d="M498.276,240.113v26.254h-4.341v-26.254H498.276z"/>
		<path fill="#E6FA82" d="M505.906,240.113v26.254h-4.342v-26.254H505.906z"/>
		<path fill="#E6FA82" d="M525.751,254.99v3.396c0,5.564-3.08,8.33-8.331,8.33h-0.35c-5.25,0-8.296-2.766-8.296-8.33v-3.396
			c0-5.564,3.046-8.33,8.296-8.33h0.35C522.671,246.66,525.751,249.425,525.751,254.99z M521.271,260.031v-6.686
			c0-3.535-1.12-5.285-4.025-5.285s-3.99,1.75-3.99,5.285v6.686c0,3.535,1.085,5.285,3.99,5.285S521.271,263.566,521.271,260.031z"
			/>
	</g>
	<g clip-path="url(#SVGID_2_)">
		<text transform="matrix(1 0 0 1 232.1528 258.3667)" fill="#0A78A0" font-family="'Queue-Light'" font-size="16">replace c with C.sc</text>
	</g>
	<polyline clip-path="url(#SVGID_2_)" fill="none" stroke="#E6FA82" stroke-miterlimit="10" points="40.5,303.367 20.5,303.367 
		20.5,278.367 579.5,278.367 579.5,253.367 569.5,253.367 	"/>
	<polyline clip-path="url(#SVGID_2_)" fill="none" stroke="#E6FA82" stroke-miterlimit="10" points="30.5,293.367 40.5,303.367 
		30.5,313.367 	"/>
	<polyline clip-path="url(#SVGID_2_)" fill="none" stroke="#E6FA82" stroke-miterlimit="10" points="559.5,243.367 569.5,253.367 
		559.5,263.367 	"/>
	<polygon clip-path="url(#SVGID_2_)" fill="#E6FA82" points="198,318.867 213,303.867 198,288.867 387,288.867 402,303.867 
		387,318.867 	"/>
	<g clip-path="url(#SVGID_2_)">
		<path fill="#E6FA82" d="M74.916,291.113h4.656v11.867h9.206v-11.867h4.656v26.254h-4.656v-12.881h-9.206v12.881h-4.656V291.113z"
			/>
		<path fill="#FFFFFF" d="M105.052,317.716h-0.35c-5.005,0-8.156-2.766-8.156-8.33v-3.396c0-5.564,3.15-8.33,8.156-8.33h0.35
			c4.936,0,8.016,2.555,8.016,7.596v2.135h-12.042v3.641c0,3.535,1.19,5.285,3.851,5.285c2.66,0,4.06-1.119,4.06-3.746v-2.59h4.131
			v1.4C113.068,315.687,109.882,317.716,105.052,317.716z M108.797,303.015c-0.14-2.695-1.4-3.955-3.92-3.955
			c-2.661,0-3.851,1.75-3.851,5.285v1.68h7.806v-2.381L108.797,303.015z"/>
		<path fill="#E6FA82" d="M120.276,291.113v26.254h-4.341v-26.254H120.276z"/>
		<path fill="#E6FA82" d="M127.906,291.113v26.254h-4.341v-26.254H127.906z"/>
		<path fill="#E6FA82" d="M147.751,305.99v3.396c0,5.564-3.08,8.33-8.331,8.33h-0.35c-5.25,0-8.296-2.766-8.296-8.33v-3.396
			c0-5.564,3.045-8.33,8.296-8.33h0.35C144.671,297.66,147.751,300.425,147.751,305.99z M143.271,311.031v-6.686
			c0-3.535-1.12-5.285-4.025-5.285s-3.99,1.75-3.99,5.285v6.686c0,3.535,1.085,5.285,3.99,5.285S143.271,314.566,143.271,311.031z"
			/>
	</g>
	<g clip-path="url(#SVGID_2_)">
		<path fill="#E6FA82" d="M452.916,291.113h4.656v11.867h9.205v-11.867h4.656v26.254h-4.656v-12.881h-9.205v12.881h-4.656V291.113z"
			/>
		<path fill="#FFFFFF" d="M483.052,317.716h-0.351c-5.005,0-8.155-2.766-8.155-8.33v-3.396c0-5.564,3.15-8.33,8.155-8.33h0.351
			c4.936,0,8.017,2.555,8.017,7.596v2.135h-12.042v3.641c0,3.535,1.19,5.285,3.851,5.285s4.061-1.119,4.061-3.746v-2.59h4.131v1.4
			C491.068,315.687,487.883,317.716,483.052,317.716z M486.797,303.015c-0.14-2.695-1.4-3.955-3.92-3.955
			c-2.66,0-3.851,1.75-3.851,5.285v1.68h7.806v-2.381L486.797,303.015z"/>
		<path fill="#E6FA82" d="M498.276,291.113v26.254h-4.341v-26.254H498.276z"/>
		<path fill="#E6FA82" d="M505.906,291.113v26.254h-4.342v-26.254H505.906z"/>
		<path fill="#E6FA82" d="M525.751,305.99v3.396c0,5.564-3.08,8.33-8.331,8.33h-0.35c-5.25,0-8.296-2.766-8.296-8.33v-3.396
			c0-5.564,3.046-8.33,8.296-8.33h0.35C522.671,297.66,525.751,300.425,525.751,305.99z M521.271,311.031v-6.686
			c0-3.535-1.12-5.285-4.025-5.285s-3.99,1.75-3.99,5.285v6.686c0,3.535,1.085,5.285,3.99,5.285S521.271,314.566,521.271,311.031z"
			/>
	</g>
	<g clip-path="url(#SVGID_2_)">
		<text transform="matrix(1 0 0 1 231.1929 309.3667)" fill="#0A78A0" font-family="'Queue-Light'" font-size="16">replace d with D.sc</text>
	</g>
	<polyline clip-path="url(#SVGID_2_)" fill="none" stroke="#E6FA82" stroke-miterlimit="10" points="40.5,354.367 20.5,354.367 
		20.5,329.367 579.5,329.367 579.5,304.367 569.5,304.367 	"/>
	<polyline clip-path="url(#SVGID_2_)" fill="none" stroke="#E6FA82" stroke-miterlimit="10" points="30.5,344.367 40.5,354.367 
		30.5,364.367 	"/>
	<polyline clip-path="url(#SVGID_2_)" fill="none" stroke="#E6FA82" stroke-miterlimit="10" points="559.5,294.367 569.5,304.367 
		559.5,314.367 	"/>
	<polygon clip-path="url(#SVGID_2_)" fill="#E6FA82" points="198,369.867 213,354.867 198,339.867 387,339.867 402,354.867 
		387,369.867 	"/>
	<g clip-path="url(#SVGID_2_)">
		<path fill="#E6FA82" d="M74.916,342.113h4.656v11.867h9.206v-11.867h4.656v26.254h-4.656v-12.881h-9.206v12.881h-4.656V342.113z"
			/>
		<path fill="#FFFFFF" d="M105.052,368.716h-0.35c-5.005,0-8.156-2.766-8.156-8.33v-3.396c0-5.564,3.15-8.33,8.156-8.33h0.35
			c4.936,0,8.016,2.555,8.016,7.596v2.135h-12.042v3.641c0,3.535,1.19,5.285,3.851,5.285c2.66,0,4.06-1.119,4.06-3.746v-2.59h4.131
			v1.4C113.068,366.687,109.882,368.716,105.052,368.716z M108.797,354.015c-0.14-2.695-1.4-3.955-3.92-3.955
			c-2.661,0-3.851,1.75-3.851,5.285v1.68h7.806v-2.381L108.797,354.015z"/>
		<path fill="#E6FA82" d="M120.276,342.113v26.254h-4.341v-26.254H120.276z"/>
		<path fill="#E6FA82" d="M127.906,342.113v26.254h-4.341v-26.254H127.906z"/>
		<path fill="#E6FA82" d="M147.751,356.99v3.396c0,5.564-3.08,8.33-8.331,8.33h-0.35c-5.25,0-8.296-2.766-8.296-8.33v-3.396
			c0-5.564,3.045-8.33,8.296-8.33h0.35C144.671,348.66,147.751,351.425,147.751,356.99z M143.271,362.031v-6.686
			c0-3.535-1.12-5.285-4.025-5.285s-3.99,1.75-3.99,5.285v6.686c0,3.535,1.085,5.285,3.99,5.285S143.271,365.566,143.271,362.031z"
			/>
	</g>
	<g clip-path="url(#SVGID_2_)">
		<path fill="#E6FA82" d="M454.035,342.113h4.656v11.867h9.205v-11.867h4.656v26.254h-4.656v-12.881h-9.205v12.881h-4.656V342.113z"
			/>
		<path fill="#001E3C" d="M476.33,345.789h13.441v1.506h-8.961v8.645h8.227v1.506h-8.227v9.416h8.961v1.506H476.33V345.789z"/>
		<path fill="#E6FA82" d="M497.156,342.113v26.254h-4.342v-26.254H497.156z"/>
		<path fill="#E6FA82" d="M504.785,342.113v26.254h-4.34v-26.254H504.785z"/>
		<path fill="#E6FA82" d="M524.631,356.99v3.396c0,5.564-3.08,8.33-8.33,8.33h-0.351c-5.251,0-8.296-2.766-8.296-8.33v-3.396
			c0-5.564,3.045-8.33,8.296-8.33h0.351C521.551,348.66,524.631,351.425,524.631,356.99z M520.15,362.031v-6.686
			c0-3.535-1.12-5.285-4.025-5.285s-3.99,1.75-3.99,5.285v6.686c0,3.535,1.085,5.285,3.99,5.285S520.15,365.566,520.15,362.031z"/>
	</g>
	<g clip-path="url(#SVGID_2_)">
		<text transform="matrix(1 0 0 1 231.9849 360.3667)" fill="#0A78A0" font-family="'Queue-Light'" font-size="16">replace e with E.sc</text>
	</g>
	<polyline clip-path="url(#SVGID_2_)" fill="none" stroke="#001E3C" stroke-miterlimit="10" points="40.5,405.367 20.5,405.367 
		20.5,380.367 579.5,380.367 579.5,355.367 569.5,355.367 	"/>
	<polyline clip-path="url(#SVGID_2_)" fill="none" stroke="#001E3C" stroke-miterlimit="10" points="30.5,395.367 40.5,405.367 
		30.5,415.367 	"/>
	<polyline clip-path="url(#SVGID_2_)" fill="none" stroke="#001E3C" stroke-miterlimit="10" points="559.5,345.367 569.5,355.367 
		559.5,365.367 	"/>
	<polygon clip-path="url(#SVGID_2_)" fill="#E6FA82" points="198,420.867 213,405.867 198,390.867 387,390.867 402,405.867 
		387,420.867 	"/>
	<g clip-path="url(#SVGID_2_)">
		<path fill="#E6FA82" d="M76.036,393.113h4.656v11.867h9.206v-11.867h4.656v26.254h-4.656v-12.881h-9.206v12.881h-4.656V393.113z"
			/>
		<path fill="#E6FA82" d="M98.331,396.789h13.441v1.506h-8.961v8.645h8.226v1.506h-8.226v9.416h8.961v1.506H98.331V396.789z"/>
		<path fill="#FFFFFF" d="M119.156,393.113v26.254h-4.341v-26.254H119.156z"/>
		<path fill="#E6FA82" d="M126.786,393.113v26.254h-4.341v-26.254H126.786z"/>
		<path fill="#E6FA82" d="M146.631,407.99v3.396c0,5.564-3.08,8.33-8.331,8.33h-0.35c-5.25,0-8.296-2.766-8.296-8.33v-3.396
			c0-5.564,3.045-8.33,8.296-8.33h0.35C143.551,399.66,146.631,402.425,146.631,407.99z M142.15,413.031v-6.686
			c0-3.535-1.12-5.285-4.025-5.285s-3.99,1.75-3.99,5.285v6.686c0,3.535,1.085,5.285,3.99,5.285S142.15,416.566,142.15,413.031z"/>
	</g>
	<g clip-path="url(#SVGID_2_)">
		<path fill="#E6FA82" d="M454.035,393.113h4.656v11.867h9.205v-11.867h4.656v26.254h-4.656v-12.881h-9.205v12.881h-4.656V393.113z"
			/>
		<path fill="#E6FA82" d="M476.33,396.789h13.441v1.506h-8.961v8.645h8.227v1.506h-8.227v9.416h8.961v1.506H476.33V396.789z"/>
		<path fill="#FFFFFF" d="M497.156,393.113v26.254h-4.342v-26.254H497.156z"/>
		<path fill="#E6FA82" d="M504.785,393.113v26.254h-4.34v-26.254H504.785z"/>
		<path fill="#E6FA82" d="M524.631,407.99v3.396c0,5.564-3.08,8.33-8.33,8.33h-0.351c-5.251,0-8.296-2.766-8.296-8.33v-3.396
			c0-5.564,3.045-8.33,8.296-8.33h0.351C521.551,399.66,524.631,402.425,524.631,407.99z M520.15,413.031v-6.686
			c0-3.535-1.12-5.285-4.025-5.285s-3.99,1.75-3.99,5.285v6.686c0,3.535,1.085,5.285,3.99,5.285S520.15,416.566,520.15,413.031z"/>
	</g>
	<g clip-path="url(#SVGID_2_)">
		<text transform="matrix(1 0 0 1 231.8169 411.3667)" fill="#0A78A0" font-family="'Queue-Light'" font-size="16">replace a with A.sc</text>
	</g>
	<polyline clip-path="url(#SVGID_2_)" fill="none" stroke="#E6FA82" stroke-miterlimit="10" points="40.5,456.367 20.5,456.367 
		20.5,431.367 579.5,431.367 579.5,406.367 569.5,406.367 	"/>
	<polyline clip-path="url(#SVGID_2_)" fill="none" stroke="#E6FA82" stroke-miterlimit="10" points="30.5,446.367 40.5,456.367 
		30.5,466.367 	"/>
	<polyline clip-path="url(#SVGID_2_)" fill="none" stroke="#E6FA82" stroke-miterlimit="10" points="559.5,396.367 569.5,406.367 
		559.5,416.367 	"/>
	<polygon clip-path="url(#SVGID_2_)" fill="#E6FA82" points="198,471.867 213,456.867 198,441.867 387,441.867 402,456.867 
		387,471.867 	"/>
	<g clip-path="url(#SVGID_2_)">
		<path fill="#E6FA82" d="M76.036,444.113h4.656v11.867h9.206v-11.867h4.656v26.254h-4.656v-12.881h-9.206v12.881h-4.656V444.113z"
			/>
		<path fill="#E6FA82" d="M98.331,447.789h13.441v1.506h-8.961v8.645h8.226v1.506h-8.226v9.416h8.961v1.506H98.331V447.789z"/>
		<path fill="#FFFFFF" d="M119.156,444.113v26.254h-4.341v-26.254H119.156z"/>
		<path fill="#E6FA82" d="M126.786,444.113v26.254h-4.341v-26.254H126.786z"/>
		<path fill="#E6FA82" d="M146.631,458.99v3.396c0,5.564-3.08,8.33-8.331,8.33h-0.35c-5.25,0-8.296-2.766-8.296-8.33v-3.396
			c0-5.564,3.045-8.33,8.296-8.33h0.35C143.551,450.66,146.631,453.425,146.631,458.99z M142.15,464.031v-6.686
			c0-3.535-1.12-5.285-4.025-5.285s-3.99,1.75-3.99,5.285v6.686c0,3.535,1.085,5.285,3.99,5.285S142.15,467.566,142.15,464.031z"/>
	</g>
	<g clip-path="url(#SVGID_2_)">
		<path fill="#E6FA82" d="M454.035,444.113h4.656v11.867h9.205v-11.867h4.656v26.254h-4.656v-12.881h-9.205v12.881h-4.656V444.113z"
			/>
		<path fill="#E6FA82" d="M476.33,447.789h13.441v1.506h-8.961v8.645h8.227v1.506h-8.227v9.416h8.961v1.506H476.33V447.789z"/>
		<path fill="#FFFFFF" d="M497.156,444.113v26.254h-4.342v-26.254H497.156z"/>
		<path fill="#E6FA82" d="M504.785,444.113v26.254h-4.34v-26.254H504.785z"/>
		<path fill="#E6FA82" d="M524.631,458.99v3.396c0,5.564-3.08,8.33-8.33,8.33h-0.351c-5.251,0-8.296-2.766-8.296-8.33v-3.396
			c0-5.564,3.045-8.33,8.296-8.33h0.351C521.551,450.66,524.631,453.425,524.631,458.99z M520.15,464.031v-6.686
			c0-3.535-1.12-5.285-4.025-5.285s-3.99,1.75-3.99,5.285v6.686c0,3.535,1.085,5.285,3.99,5.285S520.15,467.566,520.15,464.031z"/>
	</g>
	<g clip-path="url(#SVGID_2_)">
		<text transform="matrix(1 0 0 1 231.3848 462.3667)" fill="#0A78A0" font-family="'Queue-Light'" font-size="16">replace b with B.sc</text>
	</g>
</g>
<line fill="none" stroke="#001E3C" stroke-miterlimit="10" x1="20" y1="34.5" x2="188" y2="34.5"/>
<line fill="none" stroke="#001E3C" stroke-miterlimit="10" x1="216" y1="34.5" x2="384" y2="34.5"/>
<line fill="none" stroke="#001E3C" stroke-miterlimit="10" x1="412" y1="34.5" x2="580" y2="34.5"/>
<text transform="matrix(1 0 0 1 88.4404 24.5)" fill="#001E3C" font-family="'Queue-Light'" font-size="16">INPUT</text>
<text transform="matrix(1 0 0 1 257.4326 24.5)" fill="#001E3C" font-family="'Queue-Light'" font-size="16">PROCESSOR</text>
<text transform="matrix(1 0 0 1 460.2568 24.5)" fill="#001E3C" font-family="'Queue-Light'" font-size="16">OUTPUT</text>
</svg>
