<?xml version="1.0" encoding="utf-8"?>
<!-- Generator: Adobe Illustrator 16.0.0, SVG Export Plug-In . SVG Version: 6.00 Build 0)  -->
<!DOCTYPE svg PUBLIC "-//W3C//DTD SVG 1.1//EN" "http://www.w3.org/Graphics/SVG/1.1/DTD/svg11.dtd">
<svg version="1.1" id="Layer_1" xmlns="http://www.w3.org/2000/svg" xmlns:xlink="http://www.w3.org/1999/xlink" x="0px" y="0px"
	 width="600px" height="323px" viewBox="0 0 600 323" enable-background="new 0 0 600 323" xml:space="preserve">
<g>
	<defs>
		<path id="SVGID_1_" d="M600,233l-28.568-10l-28.566,10l-28.568-10l-28.567,10l-28.569-10l-28.572,10l-28.569-10l-28.571,10
			l-28.57-10l-28.57,10l-28.572-10l-28.572,10l-28.566-10l-28.57,10l-28.57-10l-28.573,10l-28.574-10l-28.575,10l-28.575-10
			l-28.579,10L0,223V5c0-2.75,2.25-5,5-5h590c2.75,0,5,2.25,5,5V233z"/>
	</defs>
	<use xlink:href="#SVGID_1_"  overflow="visible" fill="#0A78A0"/>
	<clipPath id="SVGID_2_">
		<use xlink:href="#SVGID_1_"  overflow="visible"/>
	</clipPath>
	<path clip-path="url(#SVGID_2_)" fill="#E6FA82" d="M580,157c0,2.75-2.25,5-5,5H25c-2.75,0-5-2.25-5-5V45c0-2.75,2.25-5,5-5h550
		c2.75,0,5,2.25,5,5V157z"/>
	<rect x="40" y="80" clip-path="url(#SVGID_2_)" fill="#0A78A0" width="520" height="30"/>
	<g clip-path="url(#SVGID_2_)">
		<text transform="matrix(1 0 0 1 60 101)" fill="#E6FA82" font-family="'Queue-Light'" font-size="16">rule 1</text>
	</g>
	<g clip-path="url(#SVGID_2_)">
		<text transform="matrix(1 0 0 1 40 69)" fill="#0A78A0" font-family="'Queue-Light'" font-size="16">lookup 1</text>
	</g>
	<path clip-path="url(#SVGID_2_)" fill="#E6FA82" d="M580,249c0,2.75-2.25,5-5,5H25c-2.75,0-5-2.25-5-5v-80c0-2.75,2.25-5,5-5h550
		c2.75,0,5,2.25,5,5V249z"/>
	<rect x="40" y="204" clip-path="url(#SVGID_2_)" fill="#0A78A0" width="520" height="30"/>
	<g clip-path="url(#SVGID_2_)">
		<text transform="matrix(1 0 0 1 60 225)" fill="#E6FA82" font-family="'Queue-Light'" font-size="16">rule 1</text>
	</g>
	<g clip-path="url(#SVGID_2_)">
		<text transform="matrix(1 0 0 1 40 193)" fill="#0A78A0" font-family="'Queue-Light'" font-size="16">lookup 2</text>
	</g>
	<g clip-path="url(#SVGID_2_)">
		<text transform="matrix(1 0 0 1 20 29)" fill="#E6FA82" font-family="'Queue-Light'" font-size="16">feature 1</text>
	</g>
	<rect x="40" y="112" clip-path="url(#SVGID_2_)" fill="#0A78A0" width="520" height="30"/>
	<g clip-path="url(#SVGID_2_)">
		<text transform="matrix(1 0 0 1 60 133)" fill="#E6FA82" font-family="'Queue-Light'" font-size="16">rule 2</text>
	</g>
</g>
<g>
	<defs>
		<path id="SVGID_3_" d="M600,323l-28.568-10l-28.566,10l-28.568-10l-28.567,10l-28.569-10l-28.572,10l-28.569-10l-28.571,10
			l-28.57-10l-28.57,10l-28.572-10l-28.572,10l-28.566-10l-28.57,10l-28.57-10l-28.573,10l-28.574-10l-28.575,10l-28.575-10
			l-28.579,10L0,313v-58c0-2.75,2.25-5,5-5h590c2.75,0,5,2.25,5,5V323z"/>
	</defs>
	<use xlink:href="#SVGID_3_"  overflow="visible" fill="#0A78A0"/>
	<clipPath id="SVGID_4_">
		<use xlink:href="#SVGID_3_"  overflow="visible"/>
	</clipPath>
	<path clip-path="url(#SVGID_4_)" fill="#E6FA82" d="M580,337c0,2.75-2.25,5-5,5H25c-2.75,0-5-2.25-5-5v-42c0-2.75,2.25-5,5-5h550
		c2.75,0,5,2.25,5,5V337z"/>
	<g clip-path="url(#SVGID_4_)">
		<text transform="matrix(1 0 0 1 40 319)" fill="#0A78A0" font-family="'Queue-Light'" font-size="16">lookup 1</text>
	</g>
	<g clip-path="url(#SVGID_4_)">
		<text transform="matrix(1 0 0 1 20 279)" fill="#E6FA82" font-family="'Queue-Light'" font-size="16">feature 2</text>
	</g>
</g>
</svg>
