<?xml version="1.0" encoding="utf-8"?>
<!-- Generator: Adobe Illustrator 16.0.0, SVG Export Plug-In . SVG Version: 6.00 Build 0)  -->
<!DOCTYPE svg PUBLIC "-//W3C//DTD SVG 1.1//EN" "http://www.w3.org/Graphics/SVG/1.1/DTD/svg11.dtd">
<svg version="1.1" id="Layer_1" xmlns="http://www.w3.org/2000/svg" xmlns:xlink="http://www.w3.org/1999/xlink" x="0px" y="0px"
	 width="600px" height="405px" viewBox="0 0 600 405" enable-background="new 0 0 600 405" xml:space="preserve">
	 <style type="text/css">
		 <![CDATA[
			@font-face {
				font-family: "Queue Web";
				src: url("../theme/fonts/queueweb-light.woff") format("woff");
				font-weight: 300;
				font-style: normal;
			}
		]]>
	</style>
<rect fill="#FAFFE1" width="600" height="405"/>
<g>
	<path fill="#E6FA82" d="M142.801,318.862V97.666h46.4l1.199,29.2c10-20.801,31.199-33.2,55.199-33.2h2
		c33.6,0,59.6,13.2,71.199,39.2c9.199-24.4,33.199-39.2,60.398-39.2h2c48,0,78,23.6,78,77.599v147.598h-49.6V162.466
		c0-36.4-12.801-50.8-38.799-50.8c-26.4,0-44.801,21.999-44.801,57.199v149.997H276V162.466c0-36.4-12.801-50.8-38.4-50.8
		c-26.398,0-45.199,21.999-45.199,57.199v149.997H142.801z"/>
</g>
<g>
	<g>
		<line fill="none" stroke="#0A78A0" stroke-miterlimit="10" x1="124.5" y1="0" x2="124.5" y2="1.5"/>
		
			<line fill="none" stroke="#0A78A0" stroke-miterlimit="10" stroke-dasharray="2.9778,2.9778" x1="124.5" y1="4.478" x2="124.5" y2="402.011"/>
		<line fill="none" stroke="#0A78A0" stroke-miterlimit="10" x1="124.5" y1="403.5" x2="124.5" y2="405"/>
	</g>
</g>
<g>
	<g>
		<line fill="none" stroke="#0A78A0" stroke-miterlimit="10" x1="475.5" y1="0" x2="475.5" y2="1.5"/>
		
			<line fill="none" stroke="#0A78A0" stroke-miterlimit="10" stroke-dasharray="2.9778,2.9778" x1="475.5" y1="4.478" x2="475.5" y2="402.011"/>
		<line fill="none" stroke="#0A78A0" stroke-miterlimit="10" x1="475.5" y1="403.5" x2="475.5" y2="405"/>
	</g>
</g>
<g>
	<g>
		<line fill="none" stroke="#0A78A0" stroke-miterlimit="10" x1="0" y1="319.5" x2="1.5" y2="319.5"/>
		<line fill="none" stroke="#0A78A0" stroke-miterlimit="10" stroke-dasharray="3,3" x1="4.5" y1="319.5" x2="597" y2="319.5"/>
		<line fill="none" stroke="#0A78A0" stroke-miterlimit="10" x1="598.5" y1="319.5" x2="600" y2="319.5"/>
	</g>
</g>
<line fill="none" stroke="#F56464" stroke-miterlimit="10" x1="410" y1="50.5" x2="460" y2="50.5"/>
<text transform="matrix(1 0 0 1 170.3506 370.5703)" fill="#F56464" font-family="'Queue Web'" font-weight="300" font-size="16">y placement</text>
<text transform="matrix(1 0 0 1 17.3354 271.3652)" fill="#F56464" font-family="'Queue Web'" font-weight="300" font-size="16">x placement</text>
<text transform="matrix(1 0 0 1 330 56.3662)" fill="#F56464" font-family="'Queue Web'" font-weight="300" font-size="16">x advance</text>
<circle fill="#F56464" cx="124.802" cy="318.863" r="5"/>
<polyline fill="none" stroke="#F56464" stroke-miterlimit="10" points="450,40.5 460,50.5 450,60.5 "/>
<line fill="none" stroke="#F56464" stroke-miterlimit="10" x1="134.802" y1="328.863" x2="164.801" y2="358.863"/>
<polyline fill="none" stroke="#F56464" stroke-miterlimit="10" points="134.802,343.006 134.802,328.863 148.943,328.863 "/>
<line fill="none" stroke="#F56464" stroke-miterlimit="10" x1="114.802" y1="308.863" x2="84.803" y2="278.863"/>
<polyline fill="none" stroke="#F56464" stroke-miterlimit="10" points="114.802,294.721 114.802,308.863 100.66,308.863 "/>
<line fill="none" stroke="#F56464" stroke-miterlimit="10" x1="535.5" y1="249.362" x2="535.5" y2="299.362"/>
<text transform="matrix(1 0 0 1 500.4365 237.8633)" fill="#F56464" font-family="'Queue Web'" font-weight="300" font-size="16">y advance</text>
<polyline fill="none" stroke="#F56464" stroke-miterlimit="10" points="545.5,289.362 535.5,299.362 525.5,289.362 "/>
<line fill="none" stroke="#F56464" stroke-width="5" stroke-miterlimit="10" x1="520.5" y1="319.5" x2="550.5" y2="319.5"/>
<line fill="none" stroke="#F56464" stroke-width="5" stroke-miterlimit="10" x1="475.5" y1="35.5" x2="475.5" y2="65.5"/>
</svg>
