<?xml version="1.0" encoding="utf-8"?>
<!-- Generator: Adobe Illustrator 16.0.0, SVG Export Plug-In . SVG Version: 6.00 Build 0)  -->
<!DOCTYPE svg PUBLIC "-//W3C//DTD SVG 1.1//EN" "http://www.w3.org/Graphics/SVG/1.1/DTD/svg11.dtd">
<svg version="1.1" id="Layer_1" xmlns="http://www.w3.org/2000/svg" xmlns:xlink="http://www.w3.org/1999/xlink" x="0px" y="0px"
	 width="600px" height="125px" viewBox="0 0 600 125" enable-background="new 0 0 600 125" xml:space="preserve">
<rect fill="#FAFFE1" width="600" height="125"/>
<g>
	<path fill="#0A78A0" d="M36.002,90h-3.6l16.199-56.248h9L73.8,90H63.376l-5.25-18.149H41.177L36.002,90z M49.651,42.227
		l-7.575,26.399h15.149L49.651,42.227z"/>
	<path fill="#F56464" d="M79.652,90h-3l16.949-56.248h5.175L115.725,90h-6.375l-5.775-19.349H85.426L79.652,90z M94.501,40.277
		l-8.25,27.749h16.5L94.501,40.277z"/>
	<path fill="#E6FA82" d="M123.076,90h-4.95L132.9,33.752h16.949L164.624,90H145.5l-4.05-15.524h-14.325L123.076,90z M134.325,46.652
		l-6.075,23.249h12.075L134.325,46.652z"/>
	<path fill="#0A78A0" d="M170.476,90h-3.6l16.199-56.248h9L208.274,90H197.85l-5.25-18.149H175.65L170.476,90z M184.125,42.227
		l-7.575,26.399H191.7L184.125,42.227z"/>
	<path fill="#F56464" d="M214.126,90h-3l16.949-56.248h5.175L250.199,90h-6.375l-5.775-19.349H219.9L214.126,90z M228.975,40.277
		l-8.25,27.749h16.499L228.975,40.277z"/>
	<path fill="#E6FA82" d="M257.55,90h-4.95l14.774-56.248h16.949L299.098,90h-19.124l-4.05-15.524H261.6L257.55,90z M268.799,46.652
		l-6.075,23.249h12.075L268.799,46.652z"/>
	<path fill="#0A78A0" d="M304.949,90h-3.6l16.199-56.248h9L342.748,90h-10.424l-5.25-18.149h-16.949L304.949,90z M318.6,42.227
		l-7.575,26.399h15.149L318.6,42.227z"/>
	<path fill="#F56464" d="M348.6,90h-3l16.949-56.248h5.175L384.673,90h-6.374l-5.775-19.349h-18.149L348.6,90z M363.449,40.277
		l-8.25,27.749h16.499L363.449,40.277z"/>
	<path fill="#E6FA82" d="M392.023,90h-4.949l14.773-56.248h16.949L433.572,90h-19.125l-4.049-15.524h-14.325L392.023,90z
		 M403.273,46.652l-6.075,23.249h12.075L403.273,46.652z"/>
	<path fill="#0A78A0" d="M439.424,90h-3.6l16.199-56.248h8.999L477.222,90h-10.425l-5.25-18.149h-16.949L439.424,90z
		 M453.072,42.227l-7.574,26.399h15.149L453.072,42.227z"/>
	<path fill="#F56464" d="M483.073,90h-3l16.949-56.248h5.175L519.146,90h-6.375l-5.774-19.349h-18.149L483.073,90z M497.922,40.277
		l-8.249,27.749h16.499L497.922,40.277z"/>
	<path fill="#E6FA82" d="M526.497,90h-4.95l14.775-56.248h16.949L568.045,90h-19.123l-4.051-15.524h-14.324L526.497,90z
		 M537.746,46.652l-6.074,23.249h12.074L537.746,46.652z"/>
</g>
</svg>
