<?xml version="1.0" encoding="utf-8"?>
<!-- Generator: Adobe Illustrator 16.0.0, SVG Export Plug-In . SVG Version: 6.00 Build 0)  -->
<!DOCTYPE svg PUBLIC "-//W3C//DTD SVG 1.1//EN" "http://www.w3.org/Graphics/SVG/1.1/DTD/svg11.dtd">
<svg version="1.1" id="Layer_1" xmlns="http://www.w3.org/2000/svg" xmlns:xlink="http://www.w3.org/1999/xlink" x="0px" y="0px"
	 width="600px" height="250px" viewBox="0 0 600 250" enable-background="new 0 0 600 250" xml:space="preserve" preserveAspectRatio="xMinYMin meet">
<rect fill="#FAFFE1" width="600" height="250"/>
<path fill="#0A78A0" d="M638.732,211.483h10.5v29.05h-10.5V211.483z M636.982,242.283h14v-32.55h-14V242.283z M611.817,214.493
	l6.859,21.49h3.186l6.859-21.21v21.21h4.655v-26.25h-4.655l-6.895,20.755l-6.825-20.755h-4.83v26.25h1.646V214.493z
	 M601.983,216.104v11.375c0,4.2-1.505,6.335-5.04,6.335s-5.075-2.135-5.075-6.335v-11.375c0-4.165,1.54-6.3,5.075-6.3
	S601.983,211.938,601.983,216.104 M596.768,208.334c-6.125,0-9.659,3.185-9.659,9.835v7.279c0,6.65,3.534,9.835,9.659,9.835h0.351
	c6.09,0,9.625-3.185,9.625-9.835v-7.279c0-6.65-3.535-9.835-9.625-9.835H596.768z M570.273,233.429v-23.24h3.92
	c3.535,0,5.04,1.82,5.04,6.021v11.199c0,4.2-1.505,6.021-5.04,6.021H570.273z M573.983,234.934c6.37,0,10.045-2.94,10.045-9.555
	v-7.141c0-6.649-3.675-9.555-10.045-9.555h-8.365v26.25H573.983z M546.369,214.703l11.76,21.28h3.71v-26.25h-1.645v20.125
	l-11.13-20.125h-4.341v26.25h1.646V214.703z M526.979,226.113h7.909l2.45,8.471h4.865l-7.56-26.25h-4.2l-7.561,26.25h1.681
	L526.979,226.113z M534.469,224.608h-7.069l3.534-12.319L534.469,224.608z M512.139,221.773c2.625,0,4.025,1.26,4.025,4.095v8.716
	h4.655v-7.665c0-3.29-1.855-5.216-5.355-5.915c3.431-0.7,5.355-2.59,5.355-5.811v-0.56c0-4.306-3.011-6.3-8.085-6.3h-10.011v26.25
	h4.655v-12.811H512.139z M507.379,209.839h4.69c2.625,0,4.024,1.26,4.024,4.06v2.311c0,2.835-1.399,4.06-4.024,4.06h-4.69V209.839z
	 M477.035,214.354l11.76,21.28h3.71v-26.25h-1.645v20.125l-11.13-20.125h-4.341v26.25h1.646V214.354z M467.2,216.104v11.375
	c0,4.2-1.505,6.335-5.04,6.335s-5.075-2.135-5.075-6.335v-11.375c0-4.165,1.54-6.3,5.075-6.3S467.2,211.938,467.2,216.104
	 M461.985,208.334c-6.125,0-9.66,3.185-9.66,9.835v7.279c0,6.65,3.535,9.835,9.66,9.835h0.35c6.09,0,9.625-3.185,9.625-9.835v-7.279
	c0-6.65-3.535-9.835-9.625-9.835H461.985z M448.825,209.733h-4.655v26.25h4.655V209.733z M423.17,211.238h6.965v24.745h4.655
	v-24.745h6.93v-1.505h-18.55V211.238z M406.825,224.714h7.91l2.45,8.47h4.864l-7.56-26.25h-4.2l-7.56,26.25h1.68L406.825,224.714z
	 M414.315,223.209h-7.07l3.535-12.32L414.315,223.209z M384.741,214.004l11.76,21.279h3.71v-26.25h-1.645v20.125l-11.13-20.125
	h-4.341v26.25h1.646V214.004z M379.246,209.384h-4.655v26.25h4.655V209.384z M358.036,232.729v-11.445h4.76
	c2.66,0,4.025,1.261,4.025,4.096v3.255c0,2.835-1.365,4.095-4.025,4.095H358.036z M358.036,209.488h4.13
	c2.625,0,4.025,1.261,4.025,4.061v2.17c0,2.835-1.4,4.06-4.025,4.06h-4.13V209.488z M363.531,234.233c5.04,0,8.05-1.995,8.05-6.3
	v-1.505c0-3.396-1.995-5.32-5.705-5.985c3.255-0.77,5.04-2.625,5.04-5.74v-0.42c0-4.305-3.01-6.3-8.085-6.3h-9.415v26.25H363.531z
	 M328.112,215.192l6.859,21.49h3.186l6.859-21.21v21.21h4.655v-26.25h-4.655l-6.895,20.755l-6.825-20.755h-4.83v26.25h1.646V215.192
	z M318.277,216.804v11.375c0,4.2-1.506,6.335-5.04,6.335c-3.535,0-5.075-2.135-5.075-6.335v-11.375c0-4.165,1.54-6.3,5.075-6.3
	C316.771,210.504,318.277,212.639,318.277,216.804 M313.062,209.033c-6.125,0-9.66,3.186-9.66,9.835v7.28
	c0,6.65,3.535,9.835,9.66,9.835h0.35c6.09,0,9.625-3.185,9.625-9.835v-7.28c0-6.649-3.535-9.835-9.625-9.835H313.062z
	 M286.602,216.104c0-4.165,1.505-6.3,4.69-6.3s4.55,1.82,4.55,5.774v2.311h4.515v-2.065c0-4.76-3.29-7.489-8.89-7.489h-0.35
	c-5.74,0-9.275,3.185-9.275,9.835v7.279c0,6.65,3.535,9.835,9.275,9.835h0.35c5.6,0,8.89-2.729,8.89-7.524v-2.205h-4.515v2.45
	c0,3.955-1.365,5.81-4.55,5.81s-4.69-2.135-4.69-6.335V216.104z M263.747,222.823c2.625,0,4.025,1.261,4.025,4.096v8.715h4.655
	v-7.665c0-3.29-1.855-5.215-5.355-5.915c3.43-0.7,5.355-2.59,5.355-5.811v-0.56c0-4.305-3.01-6.3-8.085-6.3h-10.01v26.25h4.655
	v-12.811H263.747z M258.987,210.889h4.69c2.625,0,4.025,1.26,4.025,4.06v2.311c0,2.835-1.4,4.06-4.025,4.06h-4.69V210.889z
	 M246.143,216.104v11.375c0,4.2-1.505,6.335-5.04,6.335s-5.075-2.135-5.075-6.335v-11.375c0-4.165,1.54-6.3,5.075-6.3
	S246.143,211.938,246.143,216.104 M240.928,208.334c-6.125,0-9.66,3.185-9.66,9.835v7.279c0,6.65,3.535,9.835,9.66,9.835h0.35
	c6.09,0,9.625-3.185,9.625-9.835v-7.279c0-6.65-3.535-9.835-9.625-9.835H240.928z M205.929,215.054l11.76,21.28h3.71v-26.25h-1.645
	v20.125l-11.13-20.125h-4.34v26.25h1.645V215.054z M192.279,221.424c2.625,0,4.025,1.26,4.025,4.095v8.715h4.655v-7.665
	c0-3.29-1.855-5.215-5.355-5.915c3.43-0.7,5.355-2.59,5.355-5.81v-0.561c0-4.305-3.01-6.3-8.085-6.3h-10.01v26.25h4.655v-12.81
	H192.279z M187.519,209.488h4.69c2.625,0,4.025,1.261,4.025,4.061v2.31c0,2.835-1.4,4.061-4.025,4.061h-4.69V209.488z
	 M164.839,237.383h14.735v-1.505h-10.08v-11.34h9.24v-1.54h-9.24v-10.36h10.08v-1.505h-14.735V237.383z M143.909,213.339h6.965
	v24.745h4.655v-24.745h6.93v-1.505h-18.55V213.339z M124.379,212.638h6.965v24.745h4.655v-24.745h6.93v-1.505h-18.55V212.638z
	 M108.034,229.263h7.91l2.45,8.47h4.865l-7.56-26.25h-4.2l-7.56,26.25h1.68L108.034,229.263z M115.524,227.758h-7.07l3.535-12.32
	L115.524,227.758z M89.519,211.938h4.06c2.66,0,4.025,1.26,4.025,4.061v4.234c0,2.8-1.365,4.061-4.025,4.061h-4.06V211.938z
	 M84.864,236.684h4.655v-10.885h4.76c5.075,0,8.085-1.995,8.085-6.3v-2.766c0-4.27-3.01-6.3-8.085-6.3h-9.415V236.684z
	 M60.4,235.283h14.735v-1.505h-10.08v-11.34h9.24v-1.54h-9.24v-10.359h10.08v-1.506H60.4V235.283z M42.865,237.033h14.77v-1.505
	H47.52v-24.745h-4.655V237.033z M26.38,233.778v-11.444h4.76c2.66,0,4.025,1.26,4.025,4.095v3.255c0,2.835-1.365,4.095-4.025,4.095
	H26.38z M26.38,210.539h4.13c2.625,0,4.025,1.26,4.025,4.06v2.17c0,2.835-1.4,4.06-4.025,4.06h-4.13V210.539z M31.875,235.283
	c5.04,0,8.05-1.994,8.05-6.3v-1.505c0-3.395-1.995-5.32-5.705-5.985c3.255-0.77,5.04-2.625,5.04-5.739v-0.42
	c0-4.306-3.01-6.301-8.085-6.301H21.76v26.25H31.875z"/>
<path fill="#0A78A0" d="M640.446,175.232h10.5v29.05h-10.5V175.232z M638.696,206.032h14v-32.55h-14V206.032z M634.987,173.482
	h-4.655v26.25h4.655V173.482z M622.387,196.233h4.271v-13.265h-9.73v1.505h5.11v4.97c0,3.535-1.575,5.53-4.69,5.53
	c-3.359,0-4.725-1.925-4.725-5.915v-11.655c0-4.165,1.54-6.3,4.76-6.3c3.255,0,4.62,1.82,4.62,5.775v2.31h4.515v-2.064
	c0-4.761-3.324-7.49-8.96-7.49h-0.35c-5.81,0-9.345,3.185-9.345,9.835v8.05c0,6.335,3.149,9.065,8.399,9.065h0.351
	c2.87,0,4.795-1.155,5.705-2.87L622.387,196.233z M604.362,170.684h-4.655v26.25h4.655V170.684z M582.102,198.684h14.771v-1.505
	h-10.115v-24.745h-4.655V198.684z M564.568,194.834h14.77v-1.506h-10.115v-24.744h-4.654V194.834z M546.543,199.033h14.735v-1.505
	h-10.08v-11.34h9.24v-1.54h-9.24v-10.359h10.08v-1.506h-14.735V199.033z M525.613,169.739h6.965v24.745h4.655v-24.745h6.93v-1.505
	h-18.55V169.739z M507.763,177.403l11.761,21.28h3.71v-26.25h-1.646v20.125l-11.13-20.125h-4.34v26.25h1.645V177.403z
	 M502.268,169.283h-4.654v26.25h4.654V169.283z M482.914,178.104v11.375c0,4.2-1.505,6.335-5.04,6.335s-5.075-2.135-5.075-6.335
	v-11.375c0-4.165,1.54-6.3,5.075-6.3S482.914,173.938,482.914,178.104 M477.699,170.334c-6.125,0-9.66,3.185-9.66,9.835v7.279
	c0,6.65,3.535,9.835,9.66,9.835h0.35c6.09,0,9.625-3.185,9.625-9.835v-7.279c0-6.65-3.535-9.835-9.625-9.835H477.699z
	 M449.14,174.254l11.761,21.279h3.71v-26.25h-1.646v20.125l-11.13-20.125h-4.34v26.25h1.645V174.254z M437.486,178.068v-1.89
	c0-4.13-3.08-6.545-8.19-6.545h-0.385c-5.355,0-8.54,2.625-8.54,7.104v0.315c0,3.675,1.61,5.845,5.565,7.245l3.954,1.47
	c2.905,1.12,3.745,2.31,3.745,4.445v1.015c0,2.59-1.645,3.885-4.725,3.885c-3.255,0-4.585-1.47-4.585-4.06v-3.186h-4.445v2.171
	c0,4.13,3.115,6.545,8.681,6.545h0.63c5.6,0,8.854-2.625,8.854-7.035v-0.7c0-3.5-1.609-5.775-5.564-7.175l-4.235-1.54
	c-2.87-1.12-3.71-2.24-3.71-4.41v-0.56c0-2.556,1.365-4.061,4.375-4.061c2.905,0,4.235,1.47,4.235,4.061v2.904H437.486z
	 M416.836,173.482h-4.655v26.25h4.655V173.482z M387.646,196.584h14.734v-1.506h-10.08v-11.34h9.24v-1.54h-9.24v-10.359h10.08
	v-1.505h-14.734V196.584z M375.641,185.523c2.625,0,4.025,1.26,4.025,4.095v8.716h4.655v-7.665c0-3.29-1.855-5.216-5.355-5.915
	c3.431-0.7,5.355-2.59,5.355-5.811v-0.56c0-4.306-3.01-6.3-8.085-6.3h-10.011v26.25h4.655v-12.811H375.641z M370.881,173.589h4.69
	c2.625,0,4.024,1.26,4.024,4.06v2.311c0,2.835-1.399,4.06-4.024,4.06h-4.69V173.589z M348.201,195.884h14.735v-1.505h-10.08v-11.34
	h9.239v-1.54h-9.239v-10.36h10.08v-1.505h-14.735V195.884z M325.906,199.383h4.655v-12.88h9.204v12.88h4.655v-26.25h-4.655v11.865
	h-9.204v-11.865h-4.655V199.383z M304.977,171.839h6.965v24.745h4.654v-24.745h6.931v-1.505h-18.55V171.839z M279.007,174.638h6.965
	v24.745h4.655v-24.745h6.93v-1.505h-18.55V174.638z M262.662,185.665h7.91l2.45,8.47h4.865l-7.56-26.25h-4.2l-7.56,26.25h1.68
	L262.662,185.665z M270.152,184.159h-7.07l3.535-12.319L270.152,184.159z M237.532,199.733h4.655v-12.88h9.205v12.88h4.655v-26.25
	h-4.655v11.865h-9.205v-11.865h-4.655V199.733z M216.602,172.539h6.965v24.744h4.655v-24.744h6.93v-1.506h-18.55V172.539z
	 M189.268,200.782h4.655v-12.88h9.205v12.88h4.655v-26.25h-4.655v11.865h-9.205v-11.865h-4.655V200.782z M172.118,177.404
	c0-4.165,1.505-6.3,4.69-6.3s4.55,1.82,4.55,5.775v2.31h4.515v-2.064c0-4.761-3.29-7.49-8.89-7.49h-0.35
	c-5.74,0-9.275,3.185-9.275,9.835v7.28c0,6.649,3.535,9.835,9.275,9.835h0.35c5.6,0,8.89-2.73,8.89-7.525v-2.205h-4.515v2.45
	c0,3.955-1.365,5.81-4.55,5.81s-4.69-2.135-4.69-6.335V177.404z M164.138,175.232h-1.68v18.62c0,4.48-1.89,6.37-5.425,6.37
	c-3.815,0-5.355-1.646-5.355-5.845v-19.146h-4.655v18.48c0,5.845,3.115,8.12,8.89,8.12h0.35c5.18,0,7.875-2.521,7.875-8.085V175.232
	z M143.628,180.168v-1.891c0-4.13-3.08-6.545-8.19-6.545h-0.385c-5.355,0-8.54,2.625-8.54,7.105v0.314
	c0,3.675,1.61,5.846,5.565,7.245l3.955,1.47c2.905,1.12,3.745,2.311,3.745,4.445v1.015c0,2.591-1.645,3.886-4.725,3.886
	c-3.255,0-4.585-1.471-4.585-4.061v-3.185h-4.445v2.17c0,4.13,3.115,6.545,8.68,6.545h0.63c5.6,0,8.855-2.625,8.855-7.035v-0.7
	c0-3.5-1.61-5.774-5.565-7.175l-4.235-1.54c-2.87-1.12-3.71-2.24-3.71-4.41v-0.56c0-2.555,1.365-4.061,4.375-4.061
	c2.905,0,4.235,1.471,4.235,4.061v2.905H143.628z M116.819,181.568v-1.89c0-4.13-3.08-6.545-8.19-6.545h-0.385
	c-5.355,0-8.54,2.625-8.54,7.104v0.315c0,3.675,1.61,5.845,5.565,7.245l3.955,1.47c2.905,1.12,3.745,2.31,3.745,4.445v1.015
	c0,2.59-1.645,3.885-4.725,3.885c-3.255,0-4.585-1.47-4.585-4.06v-3.186h-4.445v2.171c0,4.13,3.115,6.545,8.68,6.545h0.63
	c5.6,0,8.855-2.625,8.855-7.035v-0.7c0-3.5-1.61-5.775-5.565-7.175l-4.235-1.54c-2.87-1.12-3.71-2.24-3.71-4.41v-0.56
	c0-2.556,1.365-4.061,4.375-4.061c2.905,0,4.235,1.47,4.235,4.061v2.904H116.819z M84.339,173.589h4.06
	c2.66,0,4.025,1.26,4.025,4.06v4.235c0,2.8-1.365,4.06-4.025,4.06h-4.06V173.589z M79.684,198.334h4.655v-10.886h4.76
	c5.075,0,8.085-1.995,8.085-6.3v-2.765c0-4.271-3.01-6.3-8.085-6.3h-9.415V198.334z M61.659,199.033h14.735v-1.505h-10.08v-11.34
	h9.24v-1.54h-9.24v-10.359h10.08v-1.506H61.659V199.033z M40.729,174.289h6.965v24.744h4.655v-24.744h6.93v-1.506h-18.55V174.289z
	 M38.56,179.118v-1.89c0-4.13-3.08-6.545-8.19-6.545h-0.385c-5.355,0-8.54,2.625-8.54,7.105v0.314c0,3.675,1.61,5.845,5.565,7.245
	l3.955,1.47c2.905,1.12,3.745,2.311,3.745,4.445v1.015c0,2.59-1.645,3.886-4.725,3.886c-3.255,0-4.585-1.471-4.585-4.061v-3.185
	h-4.445v2.17c0,4.13,3.115,6.545,8.68,6.545h0.63c5.6,0,8.855-2.625,8.855-7.035v-0.7c0-3.5-1.61-5.774-5.565-7.175l-4.235-1.54
	c-2.87-1.12-3.71-2.24-3.71-4.41v-0.56c0-2.556,1.365-4.061,4.375-4.061c2.905,0,4.235,1.471,4.235,4.061v2.904H38.56z"/>
<path fill="#0A78A0" d="M631.45,148.572c2.625,0,4.024,1.261,4.024,4.096v8.715h4.655v-7.665c0-3.29-1.854-5.215-5.354-5.915
	c3.43-0.7,5.354-2.59,5.354-5.811v-0.56c0-4.305-3.01-6.3-8.085-6.3h-10.01v26.25h4.655v-12.811H631.45z M626.69,136.638h4.689
	c2.625,0,4.025,1.26,4.025,4.06v2.311c0,2.835-1.4,4.06-4.025,4.06h-4.689V136.638z M613.846,138.005v11.375
	c0,4.2-1.505,6.335-5.04,6.335c-3.534,0-5.074-2.135-5.074-6.335v-11.375c0-4.165,1.54-6.3,5.074-6.3
	C612.341,131.705,613.846,133.84,613.846,138.005 M608.631,130.234c-6.125,0-9.66,3.186-9.66,9.835v7.28
	c0,6.65,3.535,9.835,9.66,9.835h0.351c6.09,0,9.625-3.185,9.625-9.835v-7.28c0-6.649-3.535-9.835-9.625-9.835H608.631z
	 M589.312,139.019v-1.89c0-4.13-3.08-6.545-8.19-6.545h-0.385c-5.355,0-8.54,2.625-8.54,7.104v0.315
	c0,3.675,1.609,5.845,5.564,7.245l3.955,1.47c2.905,1.12,3.745,2.31,3.745,4.445v1.015c0,2.59-1.645,3.885-4.725,3.885
	c-3.255,0-4.585-1.47-4.585-4.06v-3.186h-4.445v2.17c0,4.13,3.115,6.545,8.68,6.545h0.631c5.6,0,8.854-2.625,8.854-7.034v-0.7
	c0-3.5-1.61-5.775-5.565-7.175l-4.234-1.54c-2.87-1.12-3.71-2.24-3.71-4.41v-0.561c0-2.555,1.364-4.06,4.375-4.06
	c2.905,0,4.234,1.47,4.234,4.06v2.905H589.312z M554.977,159.283h14.771v-1.505h-10.115v-24.745h-4.655V159.283z M546.788,142.554
	v11.375c0,4.2-1.505,6.335-5.041,6.335c-3.535,0-5.074-2.135-5.074-6.335v-11.375c0-4.165,1.539-6.3,5.074-6.3
	C545.283,136.254,546.788,138.389,546.788,142.554 M541.572,134.783c-6.125,0-9.66,3.186-9.66,9.835v7.28
	c0,6.65,3.535,9.835,9.66,9.835h0.351c6.09,0,9.625-3.185,9.625-9.835v-7.28c0-6.649-3.535-9.835-9.625-9.835H541.572z
	 M515.778,155.328v-11.444h4.76c2.66,0,4.025,1.26,4.025,4.095v3.255c0,2.835-1.365,4.095-4.025,4.095H515.778z M515.778,132.089
	h4.13c2.625,0,4.024,1.26,4.024,4.06v2.17c0,2.835-1.399,4.061-4.024,4.061h-4.13V132.089z M521.273,156.834
	c5.04,0,8.05-1.995,8.05-6.301v-1.505c0-3.395-1.995-5.319-5.705-5.984c3.255-0.771,5.04-2.625,5.04-5.74v-0.42
	c0-4.306-3.01-6.3-8.085-6.3h-9.415v26.25H521.273z M485.854,138.493l6.859,21.49h3.186l6.859-21.21v21.21h4.655v-26.25h-4.655
	l-6.895,20.755l-6.825-20.755h-4.83v26.25h1.646V138.493z M475.003,158.584v-9.556l6.825-16.694h-1.68l-5.846,14.385l-5.845-14.385
	h-4.97l6.859,16.869v9.381H475.003z M461.319,141.469v-1.891c0-4.13-3.08-6.545-8.19-6.545h-0.385c-5.355,0-8.54,2.625-8.54,7.105
	v0.314c0,3.676,1.61,5.846,5.565,7.245l3.954,1.471c2.905,1.12,3.745,2.31,3.745,4.444v1.016c0,2.59-1.645,3.885-4.725,3.885
	c-3.255,0-4.585-1.47-4.585-4.061v-3.185h-4.445v2.17c0,4.13,3.115,6.545,8.681,6.545h0.63c5.6,0,8.854-2.625,8.854-7.035v-0.699
	c0-3.5-1.609-5.775-5.564-7.176l-4.235-1.54c-2.87-1.119-3.71-2.239-3.71-4.409v-0.561c0-2.555,1.365-4.06,4.375-4.06
	c2.905,0,4.235,1.47,4.235,4.06v2.905H461.319z M420.65,161.033h4.654v-12.705h9.101v-1.505h-9.101v-10.534h9.94v-1.506H420.65
	V161.033z M412.46,139.054v11.375c0,4.2-1.505,6.335-5.04,6.335s-5.075-2.135-5.075-6.335v-11.375c0-4.165,1.54-6.3,5.075-6.3
	S412.46,134.889,412.46,139.054 M407.245,131.283c-6.125,0-9.66,3.186-9.66,9.835v7.28c0,6.65,3.535,9.835,9.66,9.835h0.35
	c6.091,0,9.625-3.185,9.625-9.835v-7.28c0-6.649-3.534-9.835-9.625-9.835H407.245z M373.471,159.283h14.735v-1.505h-10.08v-11.34
	h9.24v-1.54h-9.24v-10.359h10.08v-1.506h-14.735V159.283z M356.321,139.754c0-4.165,1.505-6.301,4.689-6.301
	c3.186,0,4.551,1.82,4.551,5.775v2.311h4.515v-2.065c0-4.76-3.29-7.49-8.89-7.49h-0.351c-5.74,0-9.274,3.186-9.274,9.835v7.28
	c0,6.65,3.534,9.835,9.274,9.835h0.351c5.6,0,8.89-2.73,8.89-7.525v-2.205h-4.515v2.45c0,3.955-1.365,5.811-4.551,5.811
	c-3.185,0-4.689-2.136-4.689-6.335V139.754z M332.661,139.053l11.76,21.28h3.71v-26.25h-1.645v20.125l-11.13-20.125h-4.341v26.25
	h1.646V139.053z M312.991,156.135h14.735v-1.505h-10.08v-11.34h9.239v-1.54h-9.239v-10.36h10.08v-1.505h-14.735V156.135z
	 M309.421,134.084h-1.68v18.619c0,4.48-1.89,6.37-5.425,6.37c-3.815,0-5.355-1.645-5.355-5.845v-19.145h-4.655v18.479
	c0,5.845,3.115,8.12,8.89,8.12h0.35c5.181,0,7.875-2.52,7.875-8.085V134.084z M284.292,139.054v11.375c0,4.2-1.505,6.335-5.04,6.335
	c-3.535,0-5.075-2.135-5.075-6.335v-11.375c0-4.165,1.54-6.3,5.075-6.3C282.787,132.754,284.292,134.889,284.292,139.054
	 M287.582,163.309v-3.255h-2.59c-1.855,0-2.52-0.315-3.045-1.085l-0.595-0.84c4.9-0.63,7.7-3.815,7.7-9.73v-7.28
	c0-6.649-3.535-9.835-9.625-9.835h-0.35c-6.125,0-9.66,3.186-9.66,9.835v7.28c0,6.65,3.535,9.835,9.66,9.835h0.63l1.085,2.101
	c1.085,2.135,2.485,2.975,5.04,2.975H287.582z M251.742,158.934h14.735v-1.505h-10.08v-11.34h9.24v-1.54h-9.24v-10.36h10.08v-1.505
	h-14.735V158.934z M248.172,141.469v-1.891c0-4.13-3.08-6.545-8.19-6.545h-0.385c-5.355,0-8.54,2.625-8.54,7.105v0.314
	c0,3.676,1.61,5.846,5.565,7.245l3.955,1.471c2.905,1.12,3.745,2.31,3.745,4.444v1.016c0,2.59-1.645,3.885-4.725,3.885
	c-3.255,0-4.585-1.47-4.585-4.061v-3.185h-4.445v2.17c0,4.13,3.115,6.545,8.68,6.545h0.63c5.6,0,8.855-2.625,8.855-7.035v-0.699
	c0-3.5-1.61-5.775-5.565-7.176l-4.235-1.54c-2.87-1.119-3.71-2.239-3.71-4.409v-0.561c0-2.555,1.365-4.06,4.375-4.06
	c2.905,0,4.235,1.47,4.235,4.06v2.905H248.172z M207.188,151.164h7.91l2.45,8.47h4.865l-7.56-26.25h-4.2l-7.56,26.25h1.68
	L207.188,151.164z M214.678,149.658h-7.07l3.535-12.319L214.678,149.658z M178.664,138.354l11.76,21.28h3.71v-26.25h-1.645v20.125
	l-11.13-20.125h-4.34v26.25h1.645V138.354z M173.169,135.834h-4.655v26.25h4.655V135.834z M143.979,163.133h14.735v-1.505h-10.08
	v-11.34h9.24v-1.54h-9.24v-10.36h10.08v-1.505h-14.735V163.133z M126.829,142.902c0-4.165,1.505-6.3,4.69-6.3s4.55,1.82,4.55,5.775
	v2.31h4.515v-2.064c0-4.761-3.29-7.49-8.89-7.49h-0.35c-5.74,0-9.275,3.185-9.275,9.835v7.28c0,6.649,3.535,9.835,9.275,9.835h0.35
	c5.6,0,8.89-2.73,8.89-7.525v-2.205h-4.515v2.45c0,3.955-1.365,5.81-4.55,5.81s-4.69-2.135-4.69-6.335V142.902z M103.17,139.403
	l11.76,21.28h3.71v-26.25h-1.645v20.125l-11.13-20.125h-4.34v26.25h1.645V139.403z M83.5,161.733h14.735v-1.505h-10.08v-11.34h9.24
	v-1.54h-9.24v-10.36h10.08v-1.505H83.5V161.733z M71.495,146.474c2.625,0,4.025,1.26,4.025,4.095v8.715h4.655v-7.665
	c0-3.29-1.855-5.215-5.355-5.915c3.43-0.699,5.355-2.59,5.355-5.81v-0.56c0-4.306-3.01-6.301-8.085-6.301H62.08v26.25h4.655v-12.81
	H71.495z M66.735,134.539h4.69c2.625,0,4.025,1.26,4.025,4.06v2.31c0,2.835-1.4,4.061-4.025,4.061h-4.69V134.539z M44.055,161.033
	H58.79v-1.505H48.71v-11.34h9.24v-1.54h-9.24v-10.359h10.08v-1.506H44.055V161.033z M21.76,159.283h4.655v-12.88h9.205v12.88h4.655
	v-26.25H35.62v11.865h-9.205v-11.865H21.76V159.283z"/>
<path fill="#0A78A0" d="M665.854,98.533h10.5v29.051h-10.5V98.533z M664.104,129.334h14V96.783h-14V129.334z M656.055,104.203
	v11.375c0,4.2-1.505,6.336-5.04,6.336c-3.534,0-5.074-2.136-5.074-6.336v-11.375c0-4.164,1.54-6.3,5.074-6.3
	C654.55,97.903,656.055,100.039,656.055,104.203 M650.84,96.434c-6.125,0-9.66,3.185-9.66,9.835v7.28
	c0,6.649,3.535,9.835,9.66,9.835h0.351c6.09,0,9.625-3.186,9.625-9.835v-7.28c0-6.65-3.535-9.835-9.625-9.835H650.84z
	 M624.38,102.453c0-4.164,1.505-6.3,4.69-6.3c3.185,0,4.55,1.82,4.55,5.775v2.31h4.515v-2.064c0-4.76-3.29-7.49-8.89-7.49h-0.351
	c-5.739,0-9.274,3.185-9.274,9.835v7.28c0,6.649,3.535,9.835,9.274,9.835h0.351c5.6,0,8.89-2.73,8.89-7.525v-2.205h-4.515v2.45
	c0,3.955-1.365,5.811-4.55,5.811c-3.186,0-4.69-2.136-4.69-6.336V102.453z M604.08,96.783h10.5v29.051h-10.5V96.783z
	 M602.33,127.584h14V95.033h-14V127.584z M583.22,99.653l11.761,21.28h3.71v-26.25h-1.646v20.125l-11.13-20.125h-4.34v26.25h1.645
	V99.653z M573.386,103.504v11.375c0,4.199-1.505,6.335-5.04,6.335s-5.074-2.136-5.074-6.335v-11.375
	c0-4.165,1.539-6.301,5.074-6.301S573.386,99.339,573.386,103.504 M568.171,95.733c-6.125,0-9.66,3.186-9.66,9.835v7.28
	c0,6.65,3.535,9.835,9.66,9.835h0.351c6.09,0,9.625-3.185,9.625-9.835v-7.28c0-6.649-3.535-9.835-9.625-9.835H568.171z
	 M539.611,97.904l11.76,21.28h3.71v-26.25h-1.646v20.125l-11.13-20.125h-4.34v26.25h1.646V97.904z M519.522,110.572
	c2.625,0,4.024,1.261,4.024,4.096v8.715h4.655v-7.665c0-3.29-1.855-5.215-5.355-5.915c3.431-0.7,5.355-2.59,5.355-5.811v-0.56
	c0-4.305-3.01-6.3-8.085-6.3h-10.01v26.25h4.654v-12.811H519.522z M514.762,98.638h4.69c2.625,0,4.024,1.26,4.024,4.06v2.311
	c0,2.835-1.399,4.06-4.024,4.06h-4.69V98.638z M501.917,99.653v11.375c0,4.2-1.505,6.335-5.04,6.335s-5.075-2.135-5.075-6.335
	V99.653c0-4.165,1.54-6.3,5.075-6.3S501.917,95.488,501.917,99.653 M496.702,91.884c-6.125,0-9.66,3.185-9.66,9.835v7.28
	c0,6.649,3.535,9.835,9.66,9.835h0.35c6.09,0,9.625-3.186,9.625-9.835v-7.28c0-6.65-3.535-9.835-9.625-9.835H496.702z
	 M468.947,104.625c2.625,0,4.024,1.26,4.024,4.095v8.715h4.655v-7.665c0-3.29-1.854-5.215-5.354-5.915
	c3.43-0.7,5.354-2.59,5.354-5.81v-0.561c0-4.305-3.01-6.3-8.085-6.3h-10.01v26.25h4.655v-12.81H468.947z M464.188,92.689h4.689
	c2.625,0,4.025,1.26,4.025,4.061v2.31c0,2.835-1.4,4.06-4.025,4.06h-4.689V92.689z M441.507,123.383h14.735v-1.505h-10.08v-11.34
	h9.24v-1.54h-9.24v-10.36h10.08v-1.505h-14.735V123.383z M424.323,119.429v-23.24h3.92c3.535,0,5.04,1.82,5.04,6.021v11.199
	c0,4.2-1.505,6.021-5.04,6.021H424.323z M428.033,120.934c6.37,0,10.045-2.94,10.045-9.555v-7.141c0-6.649-3.675-9.555-10.045-9.555
	h-8.365v26.25H428.033z M407.663,108.823c2.625,0,4.025,1.261,4.025,4.096v8.715h4.654v-7.665c0-3.29-1.854-5.215-5.354-5.915
	c3.43-0.7,5.354-2.59,5.354-5.811v-0.56c0-4.305-3.01-6.3-8.085-6.3h-10.01v26.25h4.655v-12.811H407.663z M402.903,96.889h4.689
	c2.625,0,4.025,1.26,4.025,4.06v2.311c0,2.835-1.4,4.06-4.025,4.06h-4.689V96.889z M390.058,103.854v11.375
	c0,4.2-1.505,6.335-5.04,6.335c-3.534,0-5.074-2.135-5.074-6.335v-11.375c0-4.165,1.54-6.3,5.074-6.3
	C388.553,97.554,390.058,99.688,390.058,103.854 M384.843,96.084c-6.125,0-9.66,3.185-9.66,9.835v7.279
	c0,6.65,3.535,9.835,9.66,9.835h0.351c6.09,0,9.625-3.185,9.625-9.835v-7.279c0-6.65-3.535-9.835-9.625-9.835H384.843z
	 M349.844,103.152l11.761,21.28h3.71v-26.25h-1.646v20.125l-11.13-20.125h-4.34v26.25h1.645V103.152z M340.009,101.754v11.375
	c0,4.199-1.505,6.335-5.04,6.335s-5.074-2.136-5.074-6.335v-11.375c0-4.165,1.539-6.301,5.074-6.301S340.009,97.589,340.009,101.754
	 M334.794,93.983c-6.125,0-9.66,3.186-9.66,9.835v7.28c0,6.65,3.535,9.835,9.66,9.835h0.351c6.09,0,9.625-3.185,9.625-9.835v-7.28
	c0-6.649-3.535-9.835-9.625-9.835H334.794z M306.234,98.604l11.761,21.28h3.71v-26.25h-1.645v20.125L308.93,93.634h-4.34v26.25
	h1.645V98.604z M280.405,108.965h7.91l2.45,8.47h4.865l-7.56-26.25h-4.2l-7.56,26.25h1.68L280.405,108.965z M287.895,107.46h-7.07
	l3.535-12.32L287.895,107.46z M267.561,101.719v-1.891c0-4.13-3.08-6.545-8.19-6.545h-0.385c-5.355,0-8.54,2.625-8.54,7.105v0.314
	c0,3.676,1.61,5.846,5.565,7.245l3.955,1.471c2.905,1.12,3.745,2.31,3.745,4.444v1.016c0,2.59-1.645,3.885-4.725,3.885
	c-3.255,0-4.585-1.47-4.585-4.061v-3.185h-4.445v2.17c0,4.13,3.115,6.545,8.68,6.545h0.63c5.6,0,8.855-2.625,8.855-7.035v-0.699
	c0-3.5-1.61-5.775-5.565-7.176l-4.235-1.54c-2.87-1.119-3.71-2.239-3.71-4.409v-0.561c0-2.555,1.365-4.06,4.375-4.06
	c2.905,0,4.235,1.47,4.235,4.06v2.905H267.561z M229.831,97.589h6.965v24.745h4.655V97.589h6.93v-1.505h-18.55V97.589z
	 M227.662,102.419v-1.891c0-4.13-3.08-6.545-8.19-6.545h-0.385c-5.355,0-8.54,2.625-8.54,7.105v0.314
	c0,3.675,1.61,5.846,5.565,7.245l3.955,1.47c2.905,1.12,3.745,2.311,3.745,4.445v1.015c0,2.591-1.645,3.886-4.725,3.886
	c-3.255,0-4.585-1.471-4.585-4.061v-3.185h-4.445v2.17c0,4.13,3.115,6.545,8.68,6.545h0.63c5.6,0,8.855-2.625,8.855-7.035v-0.7
	c0-3.5-1.61-5.774-5.565-7.175l-4.235-1.54c-2.87-1.12-3.71-2.24-3.71-4.41v-0.56c0-2.555,1.365-4.061,4.375-4.061
	c2.905,0,4.235,1.471,4.235,4.061v2.905H227.662z M192.837,121.283h14.735v-1.505h-10.08v-11.34h9.24v-1.54h-9.24V96.539h10.08
	v-1.506h-14.735V121.283z M184.962,125.482h4.27v-13.265h-9.73v1.505h5.11v4.97c0,3.535-1.575,5.53-4.69,5.53
	c-3.36,0-4.725-1.925-4.725-5.915v-11.655c0-4.165,1.54-6.3,4.76-6.3c3.255,0,4.62,1.82,4.62,5.775v2.31h4.515v-2.064
	c0-4.761-3.325-7.49-8.96-7.49h-0.35c-5.81,0-9.345,3.185-9.345,9.835v8.05c0,6.335,3.15,9.065,8.4,9.065h0.35
	c2.87,0,4.795-1.155,5.705-2.87L184.962,125.482z M162.913,121.283h4.27v-13.265h-9.73v1.505h5.11v4.97
	c0,3.535-1.575,5.53-4.69,5.53c-3.36,0-4.725-1.925-4.725-5.915v-11.655c0-4.164,1.54-6.3,4.76-6.3c3.255,0,4.62,1.82,4.62,5.775
	v2.31h4.515v-2.064c0-4.76-3.325-7.49-8.96-7.49h-0.35c-5.81,0-9.345,3.185-9.345,9.835v8.05c0,6.335,3.15,9.065,8.4,9.065h0.35
	c2.87,0,4.795-1.155,5.705-2.87L162.913,121.283z M145.168,98.883h-1.68v18.62c0,4.479-1.89,6.37-5.425,6.37
	c-3.815,0-5.355-1.646-5.355-5.846V98.883h-4.655v18.479c0,5.846,3.115,8.12,8.89,8.12h0.35c5.18,0,7.875-2.52,7.875-8.085V98.883z
	 M124.658,104.868v-1.89c0-4.13-3.08-6.545-8.19-6.545h-0.385c-5.355,0-8.54,2.625-8.54,7.105v0.314c0,3.675,1.61,5.845,5.565,7.245
	l3.955,1.47c2.905,1.12,3.745,2.311,3.745,4.445v1.015c0,2.59-1.645,3.886-4.725,3.886c-3.255,0-4.585-1.471-4.585-4.061v-3.185
	h-4.445v2.17c0,4.13,3.115,6.545,8.68,6.545h0.63c5.6,0,8.855-2.625,8.855-7.035v-0.7c0-3.5-1.61-5.774-5.565-7.175l-4.235-1.54
	c-2.87-1.12-3.71-2.24-3.71-4.41v-0.56c0-2.556,1.365-4.061,4.375-4.061c2.905,0,4.235,1.471,4.235,4.061v2.904H124.658z
	 M97.849,106.268v-1.89c0-4.13-3.08-6.545-8.19-6.545h-0.385c-5.355,0-8.54,2.625-8.54,7.104v0.315c0,3.675,1.61,5.845,5.565,7.245
	l3.955,1.47c2.905,1.12,3.745,2.31,3.745,4.445v1.015c0,2.59-1.645,3.885-4.725,3.885c-3.255,0-4.585-1.47-4.585-4.06v-3.186h-4.445
	v2.17c0,4.13,3.115,6.545,8.68,6.545h0.63c5.6,0,8.855-2.625,8.855-7.034v-0.7c0-3.5-1.61-5.775-5.565-7.175l-4.235-1.54
	c-2.87-1.12-3.71-2.24-3.71-4.41v-0.561c0-2.555,1.365-4.06,4.375-4.06c2.905,0,4.235,1.47,4.235,4.06v2.905H97.849z
	 M77.479,104.519v-1.89c0-4.13-3.08-6.545-8.19-6.545h-0.385c-5.355,0-8.54,2.625-8.54,7.104v0.315c0,3.675,1.61,5.845,5.565,7.245
	l3.955,1.47c2.905,1.12,3.745,2.31,3.745,4.445v1.015c0,2.59-1.645,3.885-4.725,3.885c-3.255,0-4.585-1.47-4.585-4.06v-3.186h-4.445
	v2.17c0,4.13,3.115,6.545,8.68,6.545h0.63c5.6,0,8.855-2.625,8.855-7.034v-0.7c0-3.5-1.61-5.775-5.565-7.175l-4.235-1.54
	c-2.87-1.12-3.71-2.24-3.71-4.41v-0.561c0-2.555,1.365-4.06,4.375-4.06c2.905,0,4.235,1.47,4.235,4.06v2.905H77.479z
	 M42.654,121.283h14.735v-1.505h-10.08v-11.34h9.24v-1.54h-9.24V96.539h10.08v-1.506H42.654V121.283z M23.405,100.004l11.76,21.279
	h3.71v-26.25H37.23v20.125L26.1,95.033h-4.34v26.25h1.645V100.004z"/>
<path fill="#0A78A0" d="M626.552,57.733h10.5v29.05h-10.5V57.733z M624.802,88.533h14v-32.55h-14V88.533z M599.637,60.744
	l6.86,21.49h3.185l6.86-21.21v21.21h4.655v-26.25h-4.655l-6.895,20.755l-6.825-20.755h-4.83v26.25h1.645V60.744z M589.803,65.503
	v11.375c0,4.2-1.505,6.335-5.04,6.335c-3.534,0-5.074-2.135-5.074-6.335V65.503c0-4.165,1.54-6.3,5.074-6.3
	C588.298,59.204,589.803,61.339,589.803,65.503 M584.588,57.733c-6.125,0-9.66,3.185-9.66,9.835v7.28c0,6.65,3.535,9.835,9.66,9.835
	h0.351c6.09,0,9.625-3.185,9.625-9.835v-7.28c0-6.65-3.535-9.835-9.625-9.835H584.588z M558.093,82.129v-23.24h3.92
	c3.535,0,5.04,1.82,5.04,6.02v11.2c0,4.2-1.505,6.021-5.04,6.021H558.093z M561.803,83.634c6.37,0,10.045-2.94,10.045-9.555v-7.14
	c0-6.65-3.675-9.555-10.045-9.555h-8.364v26.25H561.803z M534.188,60.253l11.76,21.28h3.71v-26.25h-1.646v20.125l-11.13-20.125
	h-4.34v26.25h1.646V60.253z M514.799,74.464h7.909l2.451,8.47h4.864l-7.561-26.25h-4.2l-7.56,26.25h1.68L514.799,74.464z
	 M522.289,72.958h-7.071l3.535-12.32L522.289,72.958z M499.958,69.075c2.625,0,4.026,1.26,4.026,4.095v8.715h4.653V74.22
	c0-3.29-1.854-5.215-5.354-5.915c3.429-0.7,5.354-2.59,5.354-5.81v-0.56c0-4.305-3.009-6.3-8.084-6.3h-10.01v26.25h4.655v-12.81
	H499.958z M495.199,57.14h4.688c2.625,0,4.026,1.26,4.026,4.06v2.31c0,2.835-1.401,4.06-4.026,4.06h-4.688V57.14z M474.095,67.918
	v-1.89c0-4.13-3.08-6.545-8.189-6.545h-0.385c-5.355,0-8.54,2.625-8.54,7.105v0.315c0,3.675,1.609,5.845,5.564,7.245l3.955,1.47
	c2.905,1.12,3.745,2.31,3.745,4.445v1.015c0,2.59-1.646,3.885-4.725,3.885c-3.256,0-4.585-1.471-4.585-4.06v-3.185h-4.445v2.17
	c0,4.13,3.115,6.545,8.68,6.545h0.63c5.601,0,8.855-2.625,8.855-7.035v-0.7c0-3.5-1.61-5.775-5.565-7.175l-4.234-1.54
	c-2.87-1.12-3.71-2.24-3.71-4.41v-0.56c0-2.555,1.364-4.06,4.375-4.06c2.904,0,4.234,1.47,4.234,4.06v2.905H474.095z
	 M436.365,58.188h6.965v24.745h4.655V58.188h6.93v-1.505h-18.55V58.188z M418.515,61.304l11.761,21.28h3.71v-26.25h-1.646v20.125
	l-11.13-20.125h-4.34v26.25h1.645V61.304z M398.845,83.283h14.735v-1.505H403.5v-11.34h9.24v-1.54h-9.24v-10.36h10.08v-1.505
	h-14.735V83.283z M389.151,83.983l7.175-26.25h-1.68l-5.985,22.19l-5.915-22.19h-4.795l7.104,26.25H389.151z M361.187,83.634h14.734
	v-1.505h-10.08v-11.34h9.24v-1.54h-9.24v-10.36h10.08v-1.505h-14.734V83.634z M335.497,65.503l11.76,21.28h3.71v-26.25h-1.645
	v20.125l-11.13-20.125h-4.34v26.25h1.645V65.503z M330.002,54.935h-4.655v26.25h4.655V54.935z M309.632,82.934v-9.555l6.826-16.695
	h-1.68l-5.847,14.385l-5.844-14.385h-4.971l6.861,16.87v9.38H309.632z M278.588,58.889h6.965v24.745h4.655V58.889h6.93v-1.505
	h-18.55V58.889z M276.138,56.684h-4.655v26.25h4.655V56.684z M253.878,81.884h14.77v-1.505h-10.115V55.634h-4.655V81.884z
	 M250.028,58.784h-4.655v26.25h4.655V58.784z M228.818,80.029V68.583h4.76c2.66,0,4.025,1.26,4.025,4.095v3.255
	c0,2.835-1.365,4.095-4.025,4.095H228.818z M228.818,56.789h4.13c2.625,0,4.025,1.26,4.025,4.06v2.17c0,2.835-1.4,4.06-4.025,4.06
	h-4.13V56.789z M234.313,81.533c5.04,0,8.05-1.995,8.05-6.3v-1.505c0-3.395-1.995-5.32-5.705-5.985c3.255-0.77,5.04-2.625,5.04-5.74
	v-0.42c0-4.305-3.01-6.3-8.085-6.3h-9.415v26.25H234.313z M206.453,76.214h7.91l2.45,8.47h4.865l-7.56-26.25h-4.2l-7.56,26.25h1.68
	L206.453,76.214z M213.943,74.708h-7.07l3.535-12.32L213.943,74.708z M182.688,59.239h6.965v24.745h4.655V59.239h6.93v-1.505h-18.55
	V59.239z M166.939,66.553c0-4.165,1.505-6.3,4.69-6.3s4.55,1.82,4.55,5.775v2.31h4.515v-2.065c0-4.76-3.29-7.49-8.89-7.49h-0.35
	c-5.74,0-9.275,3.185-9.275,9.835v7.28c0,6.65,3.535,9.835,9.275,9.835h0.35c5.6,0,8.89-2.729,8.89-7.525v-2.205h-4.515v2.45
	c0,3.955-1.365,5.81-4.55,5.81s-4.69-2.135-4.69-6.335V66.553z M158.679,59.833h-4.655v26.25h4.655V59.833z M136.769,83.878v-23.24
	h3.92c3.535,0,5.04,1.82,5.04,6.02v11.2c0,4.2-1.505,6.021-5.04,6.021H136.769z M140.479,85.383c6.37,0,10.045-2.94,10.045-9.555
	v-7.14c0-6.65-3.675-9.555-10.045-9.555h-8.365v26.25H140.479z M114.089,85.732h14.735v-1.505h-10.08v-11.34h9.24v-1.54h-9.24
	v-10.36h10.08v-1.505h-14.735V85.732z M102.084,71.874c2.625,0,4.025,1.26,4.025,4.095v8.715h4.655v-7.665
	c0-3.29-1.855-5.215-5.355-5.915c3.43-0.7,5.355-2.59,5.355-5.81v-0.56c0-4.305-3.01-6.3-8.085-6.3h-10.01v26.25h4.655v-12.81
	H102.084z M97.324,59.938h4.69c2.625,0,4.025,1.26,4.025,4.06v2.31c0,2.835-1.4,4.06-4.025,4.06h-4.69V59.938z M76.989,60.989h4.06
	c2.66,0,4.025,1.26,4.025,4.06v4.235c0,2.8-1.365,4.06-4.025,4.06h-4.06V60.989z M72.334,85.733h4.655V74.849h4.76
	c5.075,0,8.085-1.995,8.085-6.3v-2.765c0-4.27-3.01-6.3-8.085-6.3h-9.415V85.733z M53.89,72.224c2.625,0,4.025,1.26,4.025,4.095
	v8.714h4.655v-7.665c0-3.29-1.855-5.215-5.355-5.915c3.43-0.7,5.355-2.59,5.355-5.81v-0.56c0-4.305-3.01-6.3-8.085-6.3h-10.01v26.25
	h4.655v-12.81H53.89z M49.13,60.289h4.69c2.625,0,4.025,1.26,4.025,4.06v2.31c0,2.835-1.4,4.06-4.025,4.06h-4.69V60.289z
	 M36.285,64.454v11.375c0,4.2-1.505,6.335-5.04,6.335s-5.075-2.135-5.075-6.335V64.454c0-4.165,1.54-6.3,5.075-6.3
	S36.285,60.289,36.285,64.454 M31.07,56.684c-6.125,0-9.66,3.185-9.66,9.835v7.28c0,6.65,3.535,9.835,9.66,9.835h0.35
	c6.09,0,9.625-3.185,9.625-9.835v-7.28c0-6.65-3.535-9.835-9.625-9.835H31.07z"/>
<path fill="#0A78A0" d="M610.802,21.905l11.761,21.28h3.71v-26.25h-1.646V37.06l-11.13-20.125h-4.34v26.25h1.645V21.905z
	 M597.152,32.124c2.625,0,4.024,1.26,4.024,4.095v8.715h4.655v-7.665c0-3.29-1.855-5.215-5.355-5.915
	c3.431-0.7,5.355-2.59,5.355-5.81v-0.56c0-4.305-3.01-6.3-8.085-6.3h-10.01v26.25h4.654v-12.81H597.152z M592.392,20.188h4.69
	c2.625,0,4.025,1.26,4.025,4.06v2.31c0,2.835-1.4,4.06-4.025,4.06h-4.69V20.188z M569.712,45.634h14.735v-1.505h-10.08v-11.34h9.24
	v-1.54h-9.24v-10.36h10.08v-1.505h-14.735V45.634z M548.782,20.188h6.965v24.745h4.655V20.188h6.93v-1.505h-18.55V20.188z
	 M529.252,20.889h6.965v24.745h4.655V20.889h6.93v-1.505h-18.55V20.889z M512.907,34.365h7.91l2.449,8.47h4.865l-7.56-26.25h-4.2
	l-7.56,26.25h1.68L512.907,34.365z M520.397,32.859h-7.07l3.535-12.32L520.397,32.859z M494.392,22.638h4.061
	c2.66,0,4.025,1.26,4.025,4.06v4.235c0,2.8-1.365,4.06-4.025,4.06h-4.061V22.638z M489.737,47.383h4.654V36.498h4.761
	c5.075,0,8.085-1.995,8.085-6.3v-2.765c0-4.27-3.01-6.3-8.085-6.3h-9.415V47.383z M465.868,46.333h4.655V33.628h9.1v-1.505h-9.1
	V21.588h9.939v-1.505h-14.595V46.333z M457.678,25.753v11.375c0,4.2-1.505,6.335-5.04,6.335c-3.534,0-5.074-2.135-5.074-6.335
	V25.753c0-4.165,1.54-6.3,5.074-6.3C456.173,19.454,457.678,21.588,457.678,25.753 M452.463,17.983c-6.125,0-9.66,3.185-9.66,9.835
	v7.28c0,6.65,3.535,9.835,9.66,9.835h0.351c6.09,0,9.625-3.185,9.625-9.835v-7.28c0-6.65-3.535-9.835-9.625-9.835H452.463z
	 M419.844,46.333v-9.87l2.695-3.465l6.51,13.335h5.181l-8.575-17.5l6.685-8.75h-1.925l-10.57,13.895V20.083h-4.654v26.25H419.844z
	 M398.039,26.454c0-4.165,1.505-6.3,4.69-6.3c3.185,0,4.55,1.82,4.55,5.775v2.31h4.515v-2.065c0-4.76-3.29-7.49-8.89-7.49h-0.351
	c-5.739,0-9.274,3.185-9.274,9.835v7.28c0,6.65,3.535,9.835,9.274,9.835h0.351c5.6,0,8.89-2.73,8.89-7.525v-2.205h-4.515v2.45
	c0,3.955-1.365,5.81-4.55,5.81c-3.186,0-4.69-2.135-4.69-6.335V26.454z M375.884,37.164h7.91l2.45,8.47h4.865l-7.561-26.25h-4.2
	l-7.56,26.25h1.68L375.884,37.164z M383.374,35.659h-7.07l3.535-12.32L383.374,35.659z M355.515,42.483h14.771v-1.505H360.17V16.233
	h-4.655V42.483z M345.505,25.719v-1.89c0-4.13-3.08-6.545-8.189-6.545h-0.386c-5.354,0-8.54,2.625-8.54,7.105v0.315
	c0,3.675,1.61,5.845,5.565,7.245l3.955,1.47c2.905,1.12,3.745,2.31,3.745,4.445v1.015c0,2.59-1.646,3.885-4.726,3.885
	c-3.255,0-4.585-1.47-4.585-4.06v-3.185H327.9v2.17c0,4.13,3.114,6.545,8.68,6.545h0.63c5.601,0,8.855-2.625,8.855-7.035v-0.7
	c0-3.5-1.61-5.775-5.565-7.175l-4.235-1.54c-2.869-1.12-3.71-2.24-3.71-4.41v-0.56c0-2.555,1.365-4.06,4.375-4.06
	c2.905,0,4.235,1.47,4.235,4.06v2.905H345.505z M309.456,25.403l11.76,21.28h3.71v-26.25h-1.645v20.125L312.15,20.433h-4.34v26.25
	h1.646V25.403z M290.066,35.764h7.91l2.45,8.47h4.865l-7.56-26.25h-4.2l-7.56,26.25h1.68L290.066,35.764z M297.556,34.259h-7.07
	l3.535-12.32L297.556,34.259z M269.206,44.234h14.735v-1.505h-10.08V31.39h9.24v-1.54h-9.24V19.49h10.08v-1.505h-14.735V44.234z
	 M243.901,22.745l6.86,21.49h3.185l6.86-21.21v21.21h4.655v-26.25h-4.655l-6.895,20.755l-6.825-20.755h-4.83v26.25h1.645V22.745z
	 M232.247,30.268v-1.89c0-4.13-3.08-6.545-8.19-6.545h-0.385c-5.355,0-8.54,2.625-8.54,7.105v0.315c0,3.675,1.61,5.845,5.565,7.245
	l3.955,1.47c2.905,1.12,3.745,2.31,3.745,4.445v1.015c0,2.59-1.645,3.885-4.725,3.885c-3.255,0-4.585-1.47-4.585-4.06v-3.185h-4.445
	v2.17c0,4.13,3.115,6.545,8.68,6.545h0.63c5.6,0,8.855-2.625,8.855-7.035v-0.7c0-3.5-1.61-5.775-5.565-7.175l-4.235-1.54
	c-2.87-1.12-3.71-2.24-3.71-4.41v-0.56c0-2.555,1.365-4.06,4.375-4.06c2.905,0,4.235,1.47,4.235,4.06v2.905H232.247z
	 M211.878,27.469v-1.89c0-4.13-3.08-6.545-8.19-6.545h-0.385c-5.355,0-8.54,2.625-8.54,7.105v0.315c0,3.675,1.61,5.845,5.565,7.245
	l3.955,1.47c2.905,1.12,3.745,2.31,3.745,4.445v1.015c0,2.59-1.645,3.885-4.725,3.885c-3.255,0-4.585-1.47-4.585-4.06v-3.185h-4.445
	v2.17c0,4.13,3.115,6.545,8.68,6.545h0.63c5.6,0,8.855-2.625,8.855-7.035v-0.7c0-3.5-1.61-5.775-5.565-7.175l-4.235-1.54
	c-2.87-1.12-3.71-2.24-3.71-4.41v-0.56c0-2.555,1.365-4.06,4.375-4.06c2.905,0,4.235,1.47,4.235,4.06v2.905H211.878z
	 M177.053,47.384h14.735v-1.505h-10.08v-11.34h9.24v-1.54h-9.24v-10.36h10.08v-1.505h-14.735V47.384z M157.803,25.404l11.76,21.28
	h3.71v-26.25h-1.645v20.125l-11.13-20.125h-4.34v26.25h1.645V25.404z M130.854,26.243l6.86,21.49h3.185l6.86-21.21v21.21h4.655
	v-26.25h-4.655l-6.895,20.755l-6.825-20.755h-4.83v26.25h1.645V26.243z M121.019,30.303v11.375c0,4.2-1.505,6.335-5.04,6.335
	s-5.075-2.135-5.075-6.335V30.303c0-4.165,1.54-6.3,5.075-6.3S121.019,26.138,121.019,30.303 M115.804,22.533
	c-6.125,0-9.66,3.185-9.66,9.835v7.28c0,6.65,3.535,9.835,9.66,9.835h0.35c6.09,0,9.625-3.185,9.625-9.835v-7.28
	c0-6.65-3.535-9.835-9.625-9.835H115.804z M89.309,45.179v-23.24h3.92c3.535,0,5.04,1.82,5.04,6.02v11.2c0,4.2-1.505,6.02-5.04,6.02
	H89.309z M93.019,46.684c6.37,0,10.045-2.94,10.045-9.555v-7.14c0-6.65-3.675-9.555-10.045-9.555h-8.365v26.25H93.019z
	 M65.405,25.404l11.76,21.28h3.71v-26.25H79.23v20.125L68.1,20.434h-4.34v26.25h1.645V25.404z M46.015,36.813h7.91l2.45,8.47h4.865
	l-7.56-26.25h-4.2l-7.56,26.25h1.68L46.015,36.813z M53.505,35.309h-7.07l3.535-12.32L53.505,35.309z M31.175,32.474
	c2.625,0,4.025,1.26,4.025,4.095v8.715h4.655v-7.665c0-3.29-1.855-5.215-5.355-5.915c3.43-0.7,5.355-2.59,5.355-5.81v-0.56
	c0-4.305-3.01-6.3-8.085-6.3H21.76v26.25h4.655v-12.81H31.175z M26.415,20.539h4.69c2.625,0,4.025,1.26,4.025,4.06v2.31
	c0,2.835-1.4,4.06-4.025,4.06h-4.69V20.539z"/>
</svg>
