<?xml version="1.0" encoding="utf-8"?>
<!-- Generator: Adobe Illustrator 16.0.0, SVG Export Plug-In . SVG Version: 6.00 Build 0)  -->
<!DOCTYPE svg PUBLIC "-//W3C//DTD SVG 1.1//EN" "http://www.w3.org/Graphics/SVG/1.1/DTD/svg11.dtd">
<svg version="1.1" id="Layer_1" xmlns="http://www.w3.org/2000/svg" xmlns:xlink="http://www.w3.org/1999/xlink" x="0px" y="0px"
	 width="600px" height="125px" viewBox="0 0 600 125" enable-background="new 0 0 600 125" xml:space="preserve">
<rect fill="#FAFFE1" width="600" height="125"/>
<g>
	<path fill="#0A78A0" d="M95.703,90V33.752h20.174c10.875,0,17.324,4.275,17.324,13.5v0.9c0,6.675-3.825,10.649-10.8,12.299
		c7.95,1.425,12.225,5.55,12.225,12.825V76.5c0,9.225-6.45,13.5-17.249,13.5H95.703z M105.602,59.026h8.85
		c5.625,0,8.625-2.625,8.625-8.7v-4.65c0-6-3-8.7-8.625-8.7h-8.85V59.026z M115.802,86.775c5.7,0,8.625-2.7,8.625-8.774v-6.975
		c0-6.075-2.925-8.775-8.625-8.775h-10.2v24.524H115.802z"/>
	<path fill="#0A78A0" d="M161.626,33.002c13.049,0,20.624,6.825,20.624,21.074v15.599c0,14.25-7.575,21.074-20.624,21.074h-0.75
		c-13.125,0-20.699-6.825-20.699-21.074V54.077c0-14.25,7.575-21.074,20.699-21.074H161.626z M161.251,36.152
		c-7.575,0-10.875,4.575-10.875,13.5v24.374c0,9,3.3,13.574,10.875,13.574s10.799-4.575,10.799-13.574V49.652
		C172.051,40.727,168.826,36.152,161.251,36.152z"/>
	<path fill="#F56464" d="M209.326,33.002c11.55,0,19.274,6.6,19.274,20.774v16.199c0,14.175-7.725,20.774-19.274,20.774h-0.75
		c-11.549,0-19.274-6.6-19.274-20.774V53.776c0-14.174,7.725-20.774,19.274-20.774H209.326z M208.951,35.477
		c-9.45,0-13.5,5.775-13.5,16.799v19.199c0,11.025,4.05,16.799,13.5,16.799s13.5-5.774,13.5-16.799V52.276
		C222.45,41.252,218.4,35.477,208.951,35.477z"/>
	<path fill="#0A78A0" d="M236.401,90V33.752h9.975v29.773l22.649-29.773h4.125l-14.324,18.749L277.199,90h-11.1L252.15,61.426
		l-5.775,7.425V90H236.401z"/>
	<path fill="#0A78A0" d="M282.525,33.752H314.1v3.225h-21.6v22.199h19.799v3.3H292.5v24.299h21.6V90h-31.574V33.752z"/>
	<path fill="#F56464" d="M321.6,33.752h29.398v2.625h-23.473v23.024h21.599v2.625h-21.599v25.349h23.473V90H321.6V33.752z"/>
	<path fill="#0A78A0" d="M358.425,33.752H378.6c10.874,0,17.324,4.35,17.324,13.5v5.924c0,9.225-6.45,13.5-17.324,13.5h-10.2V90
		h-9.975V33.752z M368.399,63.451h8.7c5.699,0,8.624-2.7,8.624-8.7v-9.075c0-6-2.925-8.7-8.624-8.7h-8.7V63.451z"/>
	<path fill="#0A78A0" d="M402.148,90V33.752h9.975V90H402.148z"/>
	<path fill="#0A78A0" d="M423.898,90h-3.524V33.752h9.3l23.849,43.123V33.752h3.524V90h-7.949l-25.199-45.598V90z"/>
	<path fill="#0A78A0" d="M495.371,84.6c-1.949,3.675-6.074,6.15-12.225,6.15h-0.75c-11.249,0-17.999-5.85-17.999-19.424V54.077
		c0-14.25,7.575-21.074,20.024-21.074h0.75c12.074,0,19.199,5.85,19.199,16.049v4.425h-9.675v-4.95
		c0-8.475-2.925-12.375-9.899-12.375c-6.9,0-10.199,4.575-10.199,13.5v24.974c0,8.55,2.924,12.675,10.124,12.675
		c6.675,0,10.05-4.275,10.05-11.85v-10.65h-10.949v-3.225h20.849V90h-9.149L495.371,84.6z"/>
</g>
</svg>
