<?xml version="1.0" encoding="utf-8"?>
<!-- Generator: Adobe Illustrator 16.0.0, SVG Export Plug-In . SVG Version: 6.00 Build 0)  -->
<!DOCTYPE svg PUBLIC "-//W3C//DTD SVG 1.1//EN" "http://www.w3.org/Graphics/SVG/1.1/DTD/svg11.dtd">
<svg version="1.1" id="Layer_1" xmlns="http://www.w3.org/2000/svg" xmlns:xlink="http://www.w3.org/1999/xlink" x="0px" y="0px"
	 width="600px" height="250px" viewBox="0 0 600 250" enable-background="new 0 0 600 250" xml:space="preserve">
<g>
	<defs>
		<rect id="SVGID_1_" width="600" height="250"/>
	</defs>
	<use xlink:href="#SVGID_1_"  overflow="visible" fill="#FAFFE1"/>
	<clipPath id="SVGID_2_">
		<use xlink:href="#SVGID_1_"  overflow="visible"/>
	</clipPath>
	<g clip-path="url(#SVGID_2_)">
		<path fill="#0A78A0" d="M26.545,32.438V45.25h-4.656V18.997H31.9c5.075,0,8.086,1.996,8.086,6.301v0.56
			c0,3.22-1.925,5.111-5.356,5.811c3.5,0.7,5.356,2.625,5.356,5.916v7.666h-4.656v-8.716c0-2.835-1.4-4.096-4.025-4.096H26.545z
			 M26.545,30.934h4.69c2.625,0,4.025-1.225,4.025-4.061v-2.31c0-2.8-1.4-4.061-4.025-4.061h-4.69V30.934z"/>
		<path fill="#0A78A0" d="M43.519,45.25h-1.4l7.911-26.253h2.416l7.911,26.253h-2.975l-2.695-9.031h-8.471L43.519,45.25z
			 M50.45,22.042L46.6,34.994H54.3L50.45,22.042z"/>
		<path fill="#0A78A0" d="M64.834,45.25h-2.345V18.997h8.226l8.331,16.767V18.997h2.38V45.25H74.11l-9.276-18.552V45.25z"/>
		<path fill="#0A78A0" d="M84.714,45.25V18.997h8.366c6.371,0,10.046,2.905,10.046,9.556v7.141c0,6.616-3.675,9.556-10.046,9.556
			H84.714z M93.29,43.745c3.535,0,5.041-1.82,5.041-6.021V26.523c0-4.2-1.505-6.021-5.041-6.021h-3.92v23.242H93.29z"/>
		<path fill="#0A78A0" d="M115.76,18.647c5.391,0,8.996,3.08,8.996,9.696v7.561c0,6.616-3.605,9.696-8.996,9.696h-0.35
			c-5.391,0-8.996-3.081-8.996-9.696v-7.561c0-6.616,3.605-9.696,8.996-9.696H115.76z M115.585,19.802
			c-4.411,0-6.301,2.695-6.301,7.841v8.961c0,5.146,1.89,7.841,6.301,7.841c4.41,0,6.3-2.695,6.3-7.841v-8.961
			C121.885,22.498,119.995,19.802,115.585,19.802z"/>
		<path fill="#0A78A0" d="M130.284,45.25h-2.345V18.997h9.031l4.235,15.612l4.515-15.612h8.646V45.25h-8.646V27.083l-5.005,18.167
			h-5.425l-5.006-18.832V45.25z"/>
		<path fill="#0A78A0" d="M159.333,45.25h-1.645V18.997h4.34l11.131,20.127V18.997h1.645V45.25h-3.71l-11.761-21.282V45.25z"/>
		<path fill="#0A78A0" d="M178.792,18.997h13.722v1.225h-10.956v10.747h10.081v1.225h-10.081v11.831h10.956v1.225h-13.722V18.997z"
			/>
		<path fill="#0A78A0" d="M207.494,26.593v-3.396c0-1.68-0.665-2.45-2.17-2.45c-1.505,0-2.17,0.77-2.17,2.45v1.155
			c0,1.995,0.42,2.625,2.345,3.22l4.201,1.225c4.76,1.33,6.476,3.745,6.476,8.121v0.875c0,5.005-3.536,7.806-10.221,7.806h-1.225
			c-6.896,0-9.836-2.45-9.836-6.756v-1.47h8.331v3.676c0,1.68,0.63,2.45,2.24,2.45c1.541,0,2.311-0.7,2.311-2.416v-1.4
			c0-1.995-0.455-2.661-2.38-3.255l-3.605-1.05c-4.726-1.33-6.476-3.675-6.476-8.226v-0.595c0-5.076,3.325-7.911,10.396-7.911h0.49
			c6.511,0,9.451,2.485,9.451,6.755v1.19H207.494z"/>
		<path fill="#0A78A0" d="M231.364,27.083v-2.905c0-2.59-1.33-4.061-4.235-4.061c-3.01,0-4.375,1.505-4.375,4.061v0.56
			c0,2.17,0.84,3.291,3.71,4.411l4.235,1.54c3.956,1.4,5.565,3.675,5.565,7.176v0.7c0,4.41-3.255,7.036-8.856,7.036h-0.63
			c-5.565,0-8.681-2.416-8.681-6.546v-2.17h4.446v3.185c0,2.59,1.33,4.061,4.585,4.061c3.08,0,4.725-1.295,4.725-3.885v-1.015
			c0-2.135-0.84-3.326-3.745-4.446l-3.956-1.47c-3.955-1.4-5.565-3.571-5.565-7.246v-0.315c0-4.48,3.185-7.105,8.541-7.105h0.385
			c5.111,0,8.191,2.415,8.191,6.545v1.89H231.364z"/>
		<path fill="#0A78A0" d="M247.356,45.25h-1.645V18.997h4.831l6.826,20.757l6.896-20.757h4.655V45.25h-4.655V24.038l-6.861,21.212
			h-3.186l-6.861-21.492V45.25z"/>
		<path fill="#0A78A0" d="M272.871,18.997h13.722v1.225h-10.956v10.747h10.081v1.225h-10.081v11.831h10.956v1.225h-13.722V18.997z"
			/>
		<path fill="#0A78A0" d="M290.896,45.25h-2.311l6.896-26.253h7.911l6.896,26.253h-8.926l-1.89-7.246h-6.686L290.896,45.25z
			 M296.147,25.018l-2.835,10.851h5.636L296.147,25.018z"/>
		<path fill="#0A78A0" d="M314.241,45.25h-1.646V18.997h4.341l11.131,20.127V18.997h1.646V45.25h-3.71l-11.762-21.282V45.25z"/>
		<path fill="#0A78A0" d="M346.372,27.328v-2.695c0-3.01-1.646-4.831-5.216-4.831c-3.71,0-5.391,1.855-5.391,4.831v0.315
			c0,2.24,1.016,3.57,4.376,4.936l4.235,1.715c3.57,1.435,5.146,3.605,5.146,6.721v0.63c0,4.13-3.15,6.651-8.226,6.651h-0.351
			c-4.936,0-8.12-2.416-8.12-6.441v-2.52h2.625v2.975c0,3.01,1.645,4.831,5.671,4.831c3.78,0,5.845-1.575,5.845-4.585v-0.84
			c0-2.206-1.015-3.641-4.375-5.006l-4.131-1.68c-3.57-1.435-5.146-3.5-5.146-6.755v-0.21c0-4.201,3.115-6.721,7.666-6.721h0.351
			c4.48,0,7.596,2.415,7.596,6.44v2.24H346.372z"/>
		<path fill="#0A78A0" d="M359.075,18.997h4.655v24.748h10.116v1.505h-14.771V18.997z"/>
		<path fill="#0A78A0" d="M376.82,45.25h-1.4l7.911-26.253h2.415l7.91,26.253h-2.975l-2.695-9.031h-8.471L376.82,45.25z
			 M383.751,22.042L379.9,34.994h7.7L383.751,22.042z"/>
		<path fill="#0A78A0" d="M404.261,40.384c0,2.17,0.665,3.116,2.205,3.116c1.505,0,2.17-0.875,2.17-2.976v-5.215h8.541v2.66
			c0,5.005-3.29,7.631-10.536,7.631h-0.35c-7.491,0-10.852-3.396-10.852-10.116v-6.721c0-6.721,3.36-10.116,10.852-10.116h0.35
			c7.246,0,10.536,2.625,10.536,7.63v2.485h-8.541v-5.041c0-2.1-0.665-2.975-2.17-2.975c-1.54,0-2.205,0.945-2.205,3.115V40.384z"/>
		<path fill="#0A78A0" d="M420.01,45.25V18.997h4.655v13.896l10.571-13.896h1.925l-6.686,8.751l8.576,17.502h-5.181l-6.511-13.336
			l-2.695,3.465v9.871H420.01z"/>
		<path fill="#0A78A0" d="M457.634,18.647c6.091,0,9.626,3.185,9.626,9.836v7.281c0,6.65-3.535,9.836-9.626,9.836h-0.35
			c-6.126,0-9.661-3.186-9.661-9.836v-7.281c0-6.651,3.535-9.836,9.661-9.836H457.634z M457.459,20.117
			c-3.535,0-5.075,2.135-5.075,6.301v11.376c0,4.2,1.54,6.335,5.075,6.335s5.041-2.135,5.041-6.335V26.418
			C462.5,22.252,460.994,20.117,457.459,20.117z"/>
		<path fill="#0A78A0" d="M470.898,18.997h13.476v1.225h-10.711v10.816h9.802v1.225h-9.802V45.25h-2.765V18.997z"/>
		<path fill="#0A78A0" d="M493.753,18.997h9.416c5.075,0,8.085,2.03,8.085,6.301v2.765c0,4.306-3.01,6.301-8.085,6.301h-4.761V45.25
			h-4.655V18.997z M498.408,32.859h4.061c2.66,0,4.025-1.26,4.025-4.061v-4.235c0-2.8-1.365-4.061-4.025-4.061h-4.061V32.859z"/>
		<path fill="#0A78A0" d="M514.298,45.25h-1.4l7.911-26.253h2.415l7.91,26.253h-2.975l-2.695-9.031h-8.471L514.298,45.25z
			 M521.229,22.042l-3.851,12.952h7.701L521.229,22.042z"/>
		<path fill="#0A78A0" d="M532.217,18.997h20.758v2.135h-6.056V45.25h-8.646V21.132h-6.056V18.997z"/>
		<path fill="#0A78A0" d="M553.847,18.997h18.552v1.505h-6.931V45.25h-4.655V20.502h-6.966V18.997z"/>
		<path fill="#0A78A0" d="M574.987,18.997h13.721v1.225h-10.956v10.747h10.081v1.225h-10.081v11.831h10.956v1.225h-13.721V18.997z"
			/>
		<path fill="#0A78A0" d="M600.362,32.719V45.25h-8.646V18.997h13.371c5.495,0,8.261,1.96,8.261,6.056v1.015
			c0,3.081-1.68,4.866-5.216,5.566c3.57,0.7,5.216,2.52,5.216,5.635v7.981h-8.646V35.169c0-1.75-0.7-2.45-2.101-2.45H600.362z
			 M600.362,30.583h2.205c1.436,0,2.101-0.665,2.101-2.45v-4.551c0-1.785-0.665-2.45-2.101-2.45h-2.205V30.583z"/>
		<path fill="#0A78A0" d="M618.001,45.25h-1.645V18.997h4.34l11.131,20.127V18.997h1.646V45.25h-3.71l-11.762-21.282V45.25z"/>
		<path fill="#0A78A0" d="M653.351,18.647c6.091,0,9.626,3.185,9.626,9.836v7.281c0,6.65-3.535,9.836-9.626,9.836h-0.35
			c-6.126,0-9.661-3.186-9.661-9.836v-7.281c0-6.651,3.535-9.836,9.661-9.836H653.351z M653.176,20.117
			c-3.535,0-5.075,2.135-5.075,6.301v11.376c0,4.2,1.54,6.335,5.075,6.335s5.041-2.135,5.041-6.335V26.418
			C658.217,22.252,656.711,20.117,653.176,20.117z"/>
		<path fill="#0A78A0" d="M669.38,32.333V45.25h-2.765V18.997h8.436c4.865,0,7.98,2.03,7.98,6.406v0.35
			c0,3.291-2.064,5.216-5.46,5.916c3.465,0.7,5.46,2.695,5.46,6.091v7.491h-2.765v-8.086c0-3.325-1.716-4.831-4.936-4.831H669.38z
			 M669.38,31.108h5.846c3.221,0,4.936-1.505,4.936-4.831v-1.225c0-3.325-1.715-4.831-4.936-4.831h-5.846V31.108z"/>
		<path fill="#0A78A0" d="M21.889,56.997h9.416c5.076,0,8.086,2.03,8.086,6.301v2.765c0,4.306-3.01,6.301-8.086,6.301h-4.76V83.25
			h-4.656V56.997z M26.545,70.859h4.06c2.661,0,4.025-1.26,4.025-4.061v-4.235c0-2.8-1.365-4.061-4.025-4.061h-4.06V70.859z"/>
		<path fill="#0A78A0" d="M45.2,70.333V83.25h-2.766V56.997h8.436c4.865,0,7.981,2.03,7.981,6.406v0.35
			c0,3.291-2.065,5.216-5.461,5.916c3.465,0.7,5.461,2.695,5.461,6.091v7.491h-2.766v-8.086c0-3.325-1.715-4.831-4.936-4.831H45.2z
			 M45.2,69.108h5.845c3.221,0,4.936-1.505,4.936-4.831v-1.225c0-3.325-1.715-4.831-4.936-4.831H45.2V69.108z"/>
		<path fill="#0A78A0" d="M61.894,56.997h16.837v2.135H70.54v9.556h7.491v2.135H70.54v10.291h8.191v2.135H61.894V56.997z"/>
		<path fill="#0A78A0" d="M81.668,83.25V56.997h8.366c6.371,0,10.046,2.905,10.046,9.556v7.141c0,6.616-3.675,9.556-10.046,9.556
			H81.668z M90.245,81.745c3.535,0,5.041-1.82,5.041-6.021V64.523c0-4.2-1.505-6.021-5.041-6.021h-3.92v23.242H90.245z"/>
		<path fill="#0A78A0" d="M103.789,83.25V56.997h2.765V83.25H103.789z"/>
		<path fill="#0A78A0" d="M118.629,78.384c0,2.17,0.665,3.116,2.205,3.116c1.505,0,2.17-0.875,2.17-2.976v-5.215h8.541v2.66
			c0,5.005-3.29,7.631-10.536,7.631h-0.35c-7.491,0-10.851-3.396-10.851-10.116v-6.721c0-6.721,3.36-10.116,10.851-10.116h0.35
			c7.246,0,10.536,2.625,10.536,7.63v2.485h-8.541v-5.041c0-2.1-0.665-2.975-2.17-2.975c-1.54,0-2.205,0.945-2.205,3.115V78.384z"/>
		<path fill="#0A78A0" d="M132.978,56.997h18.552v1.505h-6.931V83.25h-4.656V58.502h-6.965V56.997z"/>
		<path fill="#0A78A0" d="M154.117,83.25h-1.4l7.911-26.253h2.416l7.911,26.253h-2.976l-2.695-9.031h-8.471L154.117,83.25z
			 M161.048,60.042l-3.85,12.952h7.701L161.048,60.042z"/>
		<path fill="#0A78A0" d="M173.087,83.25V56.997h13.231c5.46,0,8.261,1.96,8.261,6.056v1.085c0,3.045-1.61,4.831-5.005,5.565
			c3.64,0.665,5.321,2.485,5.321,5.636v1.855c0,4.096-2.766,6.056-8.261,6.056H173.087z M181.663,68.688h2.135
			c1.4,0,2.1-0.7,2.1-2.485v-4.621c0-1.785-0.7-2.45-2.1-2.45h-2.135V68.688z M184.043,81.115c1.4,0,2.101-0.665,2.101-2.485v-5.391
			c0-1.75-0.7-2.45-2.101-2.45h-2.38v10.326H184.043z"/>
		<path fill="#0A78A0" d="M197.691,83.25V56.997h4.656V83.25H197.691z"/>
		<path fill="#0A78A0" d="M206.406,56.997h2.766v25.028h10.886v1.225h-13.651V56.997z"/>
		<path fill="#0A78A0" d="M222.611,83.25V56.997h8.646V83.25H222.611z"/>
		<path fill="#0A78A0" d="M233.216,56.997h18.552v1.505h-6.931V83.25h-4.656V58.502h-6.965V56.997z"/>
		<path fill="#0A78A0" d="M260.026,83.25v-9.346l-7.246-16.907h3.01l6.406,14.947l6.406-14.947h1.4l-7.211,16.837v9.416H260.026z"/>
		<path fill="#0A78A0" d="M278.925,83.25V56.997h4.655V83.25H278.925z"/>
		<path fill="#0A78A0" d="M288.969,83.25h-1.33V56.997h2.521l12.426,21.562V56.997h1.33V83.25h-2.03l-12.917-22.472V83.25z"/>
		<path fill="#0A78A0" d="M314.344,56.997h14.736v1.505h-10.081v10.361h9.241v1.541h-9.241v11.341h10.081v1.505h-14.736V56.997z"/>
		<path fill="#0A78A0" d="M338.739,83.25l-7.561-26.253h2.87l6.581,23.173l6.58-23.173h1.4L341.05,83.25H338.739z"/>
		<path fill="#0A78A0" d="M350.744,56.997h16.836v2.135h-8.19v9.556h7.491v2.135h-7.491v10.291h8.19v2.135h-16.836V56.997z"/>
		<path fill="#0A78A0" d="M372.163,83.25h-1.645V56.997h4.34l11.131,20.127V56.997h1.646V83.25h-3.71l-11.762-21.282V83.25z"/>
		<path fill="#0A78A0" d="M390.048,56.997h17.536v1.225h-7.386V83.25h-2.765V58.222h-7.386V56.997z"/>
		<path fill="#0A78A0" d="M421.514,64.593v-3.396c0-1.68-0.665-2.45-2.17-2.45s-2.17,0.77-2.17,2.45v1.155
			c0,1.995,0.42,2.625,2.345,3.22l4.2,1.225c4.761,1.33,6.476,3.745,6.476,8.121v0.875c0,5.005-3.535,7.806-10.221,7.806h-1.225
			c-6.896,0-9.837-2.45-9.837-6.756v-1.47h8.331v3.676c0,1.68,0.63,2.45,2.24,2.45c1.54,0,2.311-0.7,2.311-2.416v-1.4
			c0-1.995-0.455-2.661-2.38-3.255l-3.605-1.05c-4.726-1.33-6.476-3.675-6.476-8.226v-0.595c0-5.076,3.325-7.911,10.396-7.911h0.49
			c6.511,0,9.451,2.485,9.451,6.755v1.19H421.514z"/>
		<path fill="#0A78A0" d="M432.853,81.43c0-1.295,0.875-2.205,2.1-2.205c1.226,0,2.065,0.91,2.065,2.205
			c0,1.26-0.805,2.206-2.1,2.206C433.692,83.635,432.853,82.69,432.853,81.43z"/>
		<path fill="#0A78A0" d="M451.262,70.438V83.25h-4.655V56.997h10.011c5.075,0,8.086,1.996,8.086,6.301v0.56
			c0,3.22-1.926,5.111-5.355,5.811c3.5,0.7,5.355,2.625,5.355,5.916v7.666h-4.655v-8.716c0-2.835-1.4-4.096-4.025-4.096H451.262z
			 M451.262,68.934h4.69c2.625,0,4.025-1.225,4.025-4.061v-2.31c0-2.8-1.4-4.061-4.025-4.061h-4.69V68.934z"/>
		<path fill="#0A78A0" d="M468.236,83.25h-1.4l7.911-26.253h2.415l7.91,26.253h-2.975l-2.695-9.031h-8.471L468.236,83.25z
			 M475.167,60.042l-3.851,12.952h7.7L475.167,60.042z"/>
		<path fill="#0A78A0" d="M489.551,83.25h-2.345V56.997h8.226l8.331,16.767V56.997h2.38V83.25h-7.315l-9.276-18.552V83.25z"/>
		<path fill="#0A78A0" d="M509.431,83.25V56.997h8.365c6.371,0,10.046,2.905,10.046,9.556v7.141c0,6.616-3.675,9.556-10.046,9.556
			H509.431z M518.006,81.745c3.536,0,5.041-1.82,5.041-6.021V64.523c0-4.2-1.505-6.021-5.041-6.021h-3.92v23.242H518.006z"/>
		<path fill="#0A78A0" d="M540.476,56.647c5.391,0,8.996,3.08,8.996,9.696v7.561c0,6.616-3.605,9.696-8.996,9.696h-0.35
			c-5.391,0-8.996-3.081-8.996-9.696v-7.561c0-6.616,3.605-9.696,8.996-9.696H540.476z M540.301,57.802
			c-4.41,0-6.301,2.695-6.301,7.841v8.961c0,5.146,1.891,7.841,6.301,7.841c4.411,0,6.301-2.695,6.301-7.841v-8.961
			C546.602,60.498,544.712,57.802,540.301,57.802z"/>
		<path fill="#0A78A0" d="M555,83.25h-2.345V56.997h9.03l4.235,15.612l4.516-15.612h8.646V83.25h-8.646V65.083l-5.005,18.167h-5.426
			L555,64.418V83.25z"/>
		<path fill="#0A78A0" d="M584.05,83.25h-1.645V56.997h4.34l11.131,20.127V56.997h1.646V83.25h-3.71L584.05,61.968V83.25z"/>
		<path fill="#0A78A0" d="M603.51,56.997h13.721v1.225h-10.956v10.747h10.081v1.225h-10.081v11.831h10.956v1.225H603.51V56.997z"/>
		<path fill="#0A78A0" d="M632.21,64.593v-3.396c0-1.68-0.665-2.45-2.17-2.45s-2.17,0.77-2.17,2.45v1.155
			c0,1.995,0.42,2.625,2.345,3.22l4.2,1.225c4.761,1.33,6.476,3.745,6.476,8.121v0.875c0,5.005-3.535,7.806-10.221,7.806h-1.226
			c-6.896,0-9.836-2.45-9.836-6.756v-1.47h8.331v3.676c0,1.68,0.63,2.45,2.24,2.45c1.54,0,2.311-0.7,2.311-2.416v-1.4
			c0-1.995-0.455-2.661-2.38-3.255l-3.605-1.05c-4.726-1.33-6.476-3.675-6.476-8.226v-0.595c0-5.076,3.325-7.911,10.396-7.911h0.49
			c6.511,0,9.451,2.485,9.451,6.755v1.19H632.21z"/>
		<path fill="#0A78A0" d="M656.08,65.083v-2.905c0-2.59-1.33-4.061-4.235-4.061c-3.011,0-4.376,1.505-4.376,4.061v0.56
			c0,2.17,0.841,3.291,3.711,4.411l4.235,1.54c3.955,1.4,5.565,3.675,5.565,7.176v0.7c0,4.41-3.255,7.036-8.855,7.036h-0.631
			c-5.565,0-8.681-2.416-8.681-6.546v-2.17h4.445v3.185c0,2.59,1.33,4.061,4.586,4.061c3.08,0,4.726-1.295,4.726-3.885v-1.015
			c0-2.135-0.841-3.326-3.746-4.446l-3.955-1.47c-3.955-1.4-5.565-3.571-5.565-7.246v-0.315c0-4.48,3.186-7.105,8.541-7.105h0.385
			c5.11,0,8.191,2.415,8.191,6.545v1.89H656.08z"/>
		<path fill="#0A78A0" d="M34.351,103.083v-2.905c0-2.59-1.33-4.061-4.235-4.061c-3.01,0-4.375,1.505-4.375,4.061v0.56
			c0,2.17,0.84,3.291,3.71,4.411l4.235,1.54c3.955,1.4,5.565,3.675,5.565,7.176v0.7c0,4.41-3.255,7.036-8.856,7.036h-0.63
			c-5.566,0-8.681-2.416-8.681-6.546v-2.17h4.446v3.185c0,2.59,1.33,4.061,4.585,4.061c3.08,0,4.726-1.295,4.726-3.885v-1.015
			c0-2.135-0.84-3.326-3.746-4.446l-3.956-1.47c-3.955-1.4-5.565-3.571-5.565-7.246v-0.315c0-4.48,3.186-7.105,8.541-7.105H30.5
			c5.111,0,8.191,2.415,8.191,6.545v1.89H34.351z"/>
		<path fill="#0A78A0" d="M58.536,113.129c0,5.916-2.765,8.471-7.596,8.471h-0.35c-5.146,0-8.296-2.205-8.296-8.121V94.997h2.765
			v18.832c0,4.69,1.715,6.546,6.021,6.546c4.025,0,6.126-2.135,6.126-7.246V94.997h1.33V113.129z"/>
		<path fill="#0A78A0" d="M75.44,119.29c-0.77,1.47-2.695,2.31-5.391,2.31h-0.35c-5.39,0-8.156-2.625-8.156-8.856v-7.981
			c0-6.721,3.396-10.116,10.921-10.116h0.35c7.281,0,10.606,2.625,10.606,7.63v2.485H74.88v-5.041c0-2.1-0.665-2.975-2.24-2.975
			s-2.275,0.945-2.275,3.115v16.207c0,2.135,0.665,3.01,2.24,3.01c1.54,0,2.275-0.91,2.275-2.87v-6.651h-2.625v-2.135h11.201v13.827
			H75.58L75.44,119.29z"/>
		<path fill="#0A78A0" d="M100.71,118.729c-0.91,1.715-2.835,2.871-5.706,2.871h-0.35c-5.25,0-8.401-2.73-8.401-9.066v-8.051
			c0-6.651,3.536-9.836,9.346-9.836h0.35c5.635,0,8.961,2.73,8.961,7.491v2.065h-4.516v-2.31c0-3.956-1.365-5.776-4.621-5.776
			c-3.22,0-4.76,2.135-4.76,6.301v11.656c0,3.99,1.365,5.916,4.726,5.916c3.115,0,4.69-1.995,4.69-5.53v-4.971h-5.111v-1.505h9.731
			v13.267h-4.27L100.71,118.729z"/>
		<path fill="#0A78A0" d="M108.863,94.997h13.722v1.225h-10.956v10.747h10.081v1.225h-10.081v11.831h10.956v1.225h-13.722V94.997z"
			/>
		<path fill="#0A78A0" d="M137.564,102.593v-3.396c0-1.68-0.665-2.45-2.17-2.45c-1.505,0-2.17,0.77-2.17,2.45v1.155
			c0,1.995,0.42,2.625,2.345,3.22l4.201,1.225c4.76,1.33,6.476,3.745,6.476,8.121v0.875c0,5.005-3.536,7.806-10.221,7.806h-1.225
			c-6.896,0-9.836-2.45-9.836-6.756v-1.47h8.331v3.676c0,1.68,0.63,2.45,2.24,2.45c1.541,0,2.311-0.7,2.311-2.416v-1.4
			c0-1.995-0.455-2.661-2.38-3.255l-3.605-1.05c-4.726-1.33-6.476-3.675-6.476-8.226v-0.595c0-5.076,3.325-7.911,10.396-7.911h0.49
			c6.511,0,9.451,2.485,9.451,6.755v1.19H137.564z"/>
		<path fill="#0A78A0" d="M147.573,94.997h18.552v1.505h-6.931v24.748h-4.656V96.502h-6.965V94.997z"/>
		<path fill="#0A78A0" d="M181.384,103.328v-2.695c0-3.01-1.645-4.831-5.215-4.831c-3.71,0-5.391,1.855-5.391,4.831v0.315
			c0,2.24,1.015,3.57,4.375,4.936l4.235,1.715c3.57,1.435,5.146,3.605,5.146,6.721v0.63c0,4.13-3.15,6.651-8.226,6.651h-0.35
			c-4.936,0-8.121-2.416-8.121-6.441v-2.52h2.625v2.975c0,3.01,1.645,4.831,5.67,4.831c3.78,0,5.846-1.575,5.846-4.585v-0.84
			c0-2.206-1.015-3.641-4.375-5.006l-4.13-1.68c-3.57-1.435-5.146-3.5-5.146-6.755v-0.21c0-4.201,3.115-6.721,7.666-6.721h0.35
			c4.48,0,7.596,2.415,7.596,6.44v2.24H181.384z"/>
		<path fill="#0A78A0" d="M194.507,121.25h-1.68l7.561-26.253h4.2l7.561,26.253h-4.866l-2.45-8.471h-7.911L194.507,121.25z
			 M200.878,98.953l-3.535,12.321h7.071L200.878,98.953z"/>
		<path fill="#0A78A0" d="M222.752,121.25h-1.645V94.997h4.34l11.131,20.127V94.997h1.645v26.253h-3.71l-11.761-21.282V121.25z"/>
		<path fill="#0A78A0" d="M251.208,94.647c5.391,0,8.996,3.08,8.996,9.696v7.561c0,6.616-3.605,9.696-8.996,9.696h-0.35
			c-5.391,0-8.996-3.081-8.996-9.696v-7.561c0-6.616,3.605-9.696,8.996-9.696H251.208z M251.032,95.802c-4.41,0-6.3,2.695-6.3,7.841
			v8.961c0,5.146,1.89,7.841,6.3,7.841c4.411,0,6.301-2.695,6.301-7.841v-8.961C257.333,98.498,255.443,95.802,251.032,95.802z"/>
		<path fill="#0A78A0" d="M265.731,121.25h-2.345V94.997h8.226l8.331,16.767V94.997h2.38v26.253h-7.316l-9.276-18.552V121.25z"/>
		<path fill="#0A78A0" d="M293.417,108.019v2.275h-8.646v-2.275H293.417z"/>
		<path fill="#0A78A0" d="M306.018,94.647c6.09,0,9.625,3.185,9.625,9.836v7.281c0,6.65-3.535,9.836-9.625,9.836h-0.351
			c-6.125,0-9.661-3.186-9.661-9.836v-7.281c0-6.651,3.536-9.836,9.661-9.836H306.018z M305.842,96.117
			c-3.535,0-5.075,2.135-5.075,6.301v11.376c0,4.2,1.54,6.335,5.075,6.335s5.041-2.135,5.041-6.335v-11.376
			C310.883,98.252,309.377,96.117,305.842,96.117z"/>
		<path fill="#0A78A0" d="M322.046,108.333v12.917h-2.766V94.997h8.436c4.866,0,7.981,2.03,7.981,6.406v0.35
			c0,3.291-2.065,5.216-5.461,5.916c3.466,0.7,5.461,2.695,5.461,6.091v7.491h-2.766v-8.086c0-3.325-1.715-4.831-4.936-4.831
			H322.046z M322.046,107.108h5.846c3.22,0,4.936-1.505,4.936-4.831v-1.225c0-3.325-1.716-4.831-4.936-4.831h-5.846V107.108z"/>
		<path fill="#0A78A0" d="M338.74,121.25V94.997h10.711c7.7,0,11.166,3.326,11.166,10.046v6.161c0,6.721-3.466,10.046-11.166,10.046
			H338.74z M349.416,119.115c1.68,0,2.38-0.84,2.38-3.01v-15.962c0-2.17-0.7-3.01-2.38-3.01h-2.03v21.982H349.416z"/>
		<path fill="#0A78A0" d="M363.59,94.997h14.736v1.505h-10.081v10.361h9.241v1.541h-9.241v11.341h10.081v1.505H363.59V94.997z"/>
		<path fill="#0A78A0" d="M384.59,108.333v12.917h-2.765V94.997h8.436c4.865,0,7.98,2.03,7.98,6.406v0.35
			c0,3.291-2.064,5.216-5.46,5.916c3.465,0.7,5.46,2.695,5.46,6.091v7.491h-2.765v-8.086c0-3.325-1.716-4.831-4.936-4.831H384.59z
			 M384.59,107.108h5.846c3.221,0,4.936-1.505,4.936-4.831v-1.225c0-3.325-1.715-4.831-4.936-4.831h-5.846V107.108z"/>
		<path fill="#0A78A0" d="M417.84,94.647c6.091,0,9.626,3.185,9.626,9.836v7.281c0,6.65-3.535,9.836-9.626,9.836h-0.35
			c-6.126,0-9.661-3.186-9.661-9.836v-7.281c0-6.651,3.535-9.836,9.661-9.836H417.84z M417.665,96.117
			c-3.535,0-5.075,2.135-5.075,6.301v11.376c0,4.2,1.54,6.335,5.075,6.335s5.041-2.135,5.041-6.335v-11.376
			C422.706,98.252,421.2,96.117,417.665,96.117z"/>
		<path fill="#0A78A0" d="M433.869,108.333v12.917h-2.765V94.997h8.436c4.865,0,7.98,2.03,7.98,6.406v0.35
			c0,3.291-2.064,5.216-5.46,5.916c3.465,0.7,5.46,2.695,5.46,6.091v7.491h-2.765v-8.086c0-3.325-1.716-4.831-4.936-4.831H433.869z
			 M433.869,107.108h5.846c3.221,0,4.936-1.505,4.936-4.831v-1.225c0-3.325-1.715-4.831-4.936-4.831h-5.846V107.108z"/>
		<path fill="#0A78A0" d="M459.104,121.25h-1.645V94.997h4.34l11.132,20.127V94.997h1.645v26.253h-3.71l-11.762-21.282V121.25z"/>
		<path fill="#0A78A0" d="M487.559,94.647c5.391,0,8.996,3.08,8.996,9.696v7.561c0,6.616-3.605,9.696-8.996,9.696h-0.35
			c-5.391,0-8.996-3.081-8.996-9.696v-7.561c0-6.616,3.605-9.696,8.996-9.696H487.559z M487.384,95.802
			c-4.41,0-6.301,2.695-6.301,7.841v8.961c0,5.146,1.891,7.841,6.301,7.841c4.411,0,6.301-2.695,6.301-7.841v-8.961
			C493.685,98.498,491.795,95.802,487.384,95.802z"/>
		<path fill="#0A78A0" d="M502.083,121.25h-2.345V94.997h8.226l8.331,16.767V94.997h2.38v26.253h-7.315l-9.276-18.552V121.25z"/>
		<path fill="#0A78A0" d="M529.769,108.019v2.275h-8.646v-2.275H529.769z"/>
		<path fill="#0A78A0" d="M537.118,113.794c0,4.2,1.505,6.335,4.69,6.335s4.551-1.855,4.551-5.811v-2.45h4.515v2.205
			c0,4.795-3.29,7.526-8.891,7.526h-0.35c-5.741,0-9.276-3.186-9.276-9.836v-7.281c0-6.651,3.535-9.836,9.276-9.836h0.35
			c5.601,0,8.891,2.73,8.891,7.491v2.065h-4.515v-2.31c0-3.956-1.365-5.776-4.551-5.776s-4.69,2.135-4.69,6.301V113.794z"/>
		<path fill="#0A78A0" d="M563.473,94.647c5.391,0,8.996,3.08,8.996,9.696v7.561c0,6.616-3.605,9.696-8.996,9.696h-0.35
			c-5.391,0-8.996-3.081-8.996-9.696v-7.561c0-6.616,3.605-9.696,8.996-9.696H563.473z M563.298,95.802
			c-4.41,0-6.301,2.695-6.301,7.841v8.961c0,5.146,1.891,7.841,6.301,7.841c4.411,0,6.301-2.695,6.301-7.841v-8.961
			C569.599,98.498,567.709,95.802,563.298,95.802z"/>
		<path fill="#0A78A0" d="M575.652,94.997h8.646v11.656h4.41V94.997h8.646v26.253h-8.646v-12.496h-4.41v12.496h-8.646V94.997z"/>
		<path fill="#0A78A0" d="M600.678,94.997h14.736v1.505h-10.081v10.361h9.241v1.541h-9.241v11.341h10.081v1.505h-14.736V94.997z"/>
		<path fill="#0A78A0" d="M621.678,108.333v12.917h-2.765V94.997h8.436c4.865,0,7.98,2.03,7.98,6.406v0.35
			c0,3.291-2.064,5.216-5.46,5.916c3.465,0.7,5.46,2.695,5.46,6.091v7.491h-2.765v-8.086c0-3.325-1.716-4.831-4.936-4.831H621.678z
			 M621.678,107.108h5.846c3.221,0,4.936-1.505,4.936-4.831v-1.225c0-3.325-1.715-4.831-4.936-4.831h-5.846V107.108z"/>
		<path fill="#0A78A0" d="M638.688,94.997h14.002v32.554h-14.002V94.997z M650.938,125.8V96.748h-10.501V125.8H650.938z"/>
		<path fill="#0A78A0" d="M21.889,132.997h14.737v1.505H26.545v10.361h9.241v1.541h-9.241v11.341h10.081v1.505H21.889V132.997z"/>
		<path fill="#0A78A0" d="M41.454,159.25h-1.33v-26.253h2.521l12.426,21.562v-21.562h1.33v26.253h-2.03l-12.917-22.472V159.25z"/>
		<path fill="#0A78A0" d="M68.405,154.384c0,2.17,0.665,3.116,2.205,3.116c1.505,0,2.17-0.875,2.17-2.976v-5.215h8.541v2.66
			c0,5.005-3.29,7.631-10.536,7.631h-0.35c-7.491,0-10.851-3.396-10.851-10.116v-6.721c0-6.721,3.36-10.116,10.851-10.116h0.35
			c7.246,0,10.536,2.625,10.536,7.63v2.485H72.78v-5.041c0-2.1-0.666-2.975-2.17-2.975c-1.54,0-2.205,0.945-2.205,3.115V154.384z"/>
		<path fill="#0A78A0" d="M84.153,132.997H98.89v1.505H88.809v10.361h9.241v1.541h-9.241v11.341H98.89v1.505H84.153V132.997z"/>
		<path fill="#0A78A0" d="M108.688,159.25v-26.253h4.656v26.253H108.688z"/>
		<path fill="#0A78A0" d="M118.732,159.25h-1.33v-26.253h2.521l12.426,21.562v-21.562h1.33v26.253h-2.03l-12.917-22.472V159.25z"/>
		<path fill="#0A78A0" d="M144.526,159.25h-1.68l7.561-26.253h4.2l7.561,26.253h-4.866l-2.45-8.471h-7.911L144.526,159.25z
			 M150.897,136.953l-3.536,12.321h7.071L150.897,136.953z"/>
		<path fill="#0A78A0" d="M183.587,141.083v-2.905c0-2.59-1.33-4.061-4.235-4.061c-3.01,0-4.375,1.505-4.375,4.061v0.56
			c0,2.17,0.84,3.291,3.71,4.411l4.235,1.54c3.956,1.4,5.565,3.675,5.565,7.176v0.7c0,4.41-3.255,7.036-8.856,7.036h-0.63
			c-5.565,0-8.681-2.416-8.681-6.546v-2.17h4.446v3.185c0,2.59,1.33,4.061,4.585,4.061c3.08,0,4.725-1.295,4.725-3.885v-1.015
			c0-2.135-0.84-3.326-3.745-4.446l-3.956-1.47c-3.955-1.4-5.565-3.571-5.565-7.246v-0.315c0-4.48,3.185-7.105,8.541-7.105h0.385
			c5.111,0,8.191,2.415,8.191,6.545v1.89H183.587z"/>
		<path fill="#0A78A0" d="M191.706,132.997h13.722v1.225h-10.956v10.747h10.081v1.225h-10.081v11.831h10.956v1.225h-13.722V132.997z
			"/>
		<path fill="#0A78A0" d="M225.062,165.306c-2.8,0-4.48-1.225-5.286-3.57l-0.77-2.135c-7.526-0.035-10.921-3.43-10.921-10.116
			v-6.721c0-6.721,3.431-10.116,11.026-10.116h0.35c7.596,0,11.061,3.395,11.061,10.116v6.721c0,6.196-2.94,9.591-9.381,10.046
			l0.175,0.28c0.315,0.49,0.665,0.665,1.715,0.665h5.041v4.831H225.062z M219.287,134.748c-1.68,0-2.38,0.945-2.38,3.115v16.521
			c0,2.17,0.7,3.116,2.38,3.116s2.38-0.945,2.38-3.116v-16.521C221.667,135.692,220.967,134.748,219.287,134.748z"/>
		<path fill="#0A78A0" d="M250.402,151.514c0,5.565-2.695,8.086-7.876,8.086h-0.35c-5.775,0-8.891-2.275-8.891-8.121v-18.482h4.655
			v19.147c0,4.201,1.54,5.846,5.355,5.846c3.536,0,5.426-1.89,5.426-6.371v-18.622h1.68V151.514z"/>
		<path fill="#0A78A0" d="M254.18,132.997h13.722v1.225h-10.956v10.747h10.081v1.225h-10.081v11.831h10.956v1.225H254.18V132.997z"
			/>
		<path fill="#0A78A0" d="M273.255,159.25h-2.345v-26.253h8.226l8.331,16.767v-16.767h2.38v26.253h-7.316l-9.276-18.552V159.25z"/>
		<path fill="#0A78A0" d="M297.546,151.794c0,4.2,1.505,6.335,4.69,6.335s4.551-1.855,4.551-5.811v-2.45h4.516v2.205
			c0,4.795-3.291,7.526-8.892,7.526h-0.351c-5.74,0-9.275-3.186-9.275-9.836v-7.281c0-6.651,3.536-9.836,9.275-9.836h0.351
			c5.601,0,8.892,2.73,8.892,7.491v2.065h-4.516v-2.31c0-3.956-1.365-5.776-4.551-5.776s-4.69,2.135-4.69,6.301V151.794z"/>
		<path fill="#0A78A0" d="M314.905,132.997h13.722v1.225h-10.956v10.747h10.081v1.225h-10.081v11.831h10.956v1.225h-13.722V132.997z
			"/>
		<path fill="#0A78A0" d="M348.19,132.647c6.091,0,9.626,3.185,9.626,9.836v7.281c0,6.65-3.535,9.836-9.626,9.836h-0.35
			c-6.126,0-9.661-3.186-9.661-9.836v-7.281c0-6.651,3.535-9.836,9.661-9.836H348.19z M348.016,134.117
			c-3.535,0-5.075,2.135-5.075,6.301v11.376c0,4.2,1.54,6.335,5.075,6.335s5.041-2.135,5.041-6.335v-11.376
			C353.057,136.252,351.551,134.117,348.016,134.117z"/>
		<path fill="#0A78A0" d="M361.455,132.997h13.476v1.225H364.22v10.816h9.802v1.225h-9.802v12.986h-2.765V132.997z"/>
		<path fill="#0A78A0" d="M396.771,141.083v-2.905c0-2.59-1.33-4.061-4.235-4.061c-3.011,0-4.376,1.505-4.376,4.061v0.56
			c0,2.17,0.841,3.291,3.711,4.411l4.235,1.54c3.955,1.4,5.565,3.675,5.565,7.176v0.7c0,4.41-3.255,7.036-8.855,7.036h-0.631
			c-5.565,0-8.681-2.416-8.681-6.546v-2.17h4.445v3.185c0,2.59,1.33,4.061,4.586,4.061c3.08,0,4.726-1.295,4.726-3.885v-1.015
			c0-2.135-0.84-3.326-3.746-4.446l-3.955-1.47c-3.955-1.4-5.565-3.571-5.565-7.246v-0.315c0-4.48,3.186-7.105,8.541-7.105h0.385
			c5.11,0,8.191,2.415,8.191,6.545v1.89H396.771z"/>
		<path fill="#0A78A0" d="M410.559,159.25v-9.346l-7.245-16.907h3.01l6.406,14.947l6.405-14.947h1.4l-7.211,16.837v9.416H410.559z"
			/>
		<path fill="#0A78A0" d="M424.838,159.25h-2.345v-26.253h9.03l4.235,15.612l4.516-15.612h8.646v26.253h-8.646v-18.167
			l-5.005,18.167h-5.426l-5.006-18.832V159.25z"/>
		<path fill="#0A78A0" d="M452.243,159.25v-26.253h9.416c5.075,0,8.085,1.996,8.085,6.301v0.42c0,3.116-1.785,4.971-5.04,5.741
			c3.71,0.665,5.705,2.59,5.705,5.986v1.505c0,4.306-3.01,6.301-8.051,6.301H452.243z M456.863,144.793h4.13
			c2.626,0,4.026-1.225,4.026-4.061v-2.17c0-2.8-1.4-4.061-4.026-4.061h-4.13V144.793z M461.624,157.745
			c2.66,0,4.025-1.26,4.025-4.095v-3.255c0-2.835-1.365-4.095-4.025-4.095h-4.761v11.446H461.624z"/>
		<path fill="#0A78A0" d="M482.553,132.647c5.391,0,8.996,3.08,8.996,9.696v7.561c0,6.616-3.605,9.696-8.996,9.696h-0.35
			c-5.391,0-8.996-3.081-8.996-9.696v-7.561c0-6.616,3.605-9.696,8.996-9.696H482.553z M482.378,133.802
			c-4.41,0-6.301,2.695-6.301,7.841v8.961c0,5.146,1.891,7.841,6.301,7.841c4.411,0,6.301-2.695,6.301-7.841v-8.961
			C488.679,136.498,486.789,133.802,482.378,133.802z"/>
		<path fill="#0A78A0" d="M494.732,132.997h8.646v24.118h8.471v2.135h-17.116V132.997z"/>
		<path fill="#0A78A0" d="M526.688,141.083v-2.905c0-2.59-1.33-4.061-4.235-4.061c-3.011,0-4.376,1.505-4.376,4.061v0.56
			c0,2.17,0.841,3.291,3.711,4.411l4.235,1.54c3.955,1.4,5.565,3.675,5.565,7.176v0.7c0,4.41-3.255,7.036-8.855,7.036h-0.631
			c-5.565,0-8.681-2.416-8.681-6.546v-2.17h4.445v3.185c0,2.59,1.33,4.061,4.586,4.061c3.08,0,4.726-1.295,4.726-3.885v-1.015
			c0-2.135-0.84-3.326-3.746-4.446l-3.955-1.47c-3.955-1.4-5.565-3.571-5.565-7.246v-0.315c0-4.48,3.186-7.105,8.541-7.105h0.385
			c5.11,0,8.191,2.415,8.191,6.545v1.89H526.688z"/>
		<path fill="#0A78A0" d="M550.696,132.647c6.091,0,9.626,3.185,9.626,9.836v7.281c0,6.65-3.535,9.836-9.626,9.836h-0.35
			c-6.126,0-9.661-3.186-9.661-9.836v-7.281c0-6.651,3.535-9.836,9.661-9.836H550.696z M550.521,134.117
			c-3.535,0-5.075,2.135-5.075,6.301v11.376c0,4.2,1.54,6.335,5.075,6.335s5.041-2.135,5.041-6.335v-11.376
			C555.562,136.252,554.057,134.117,550.521,134.117z"/>
		<path fill="#0A78A0" d="M566.726,146.333v12.917h-2.765v-26.253h8.436c4.865,0,7.98,2.03,7.98,6.406v0.35
			c0,3.291-2.064,5.216-5.46,5.916c3.465,0.7,5.46,2.695,5.46,6.091v7.491h-2.765v-8.086c0-3.325-1.716-4.831-4.936-4.831H566.726z
			 M566.726,145.108h5.846c3.221,0,4.936-1.505,4.936-4.831v-1.225c0-3.325-1.715-4.831-4.936-4.831h-5.846V145.108z"/>
		<path fill="#0A78A0" d="M602.776,141.083v-2.905c0-2.59-1.33-4.061-4.235-4.061c-3.011,0-4.376,1.505-4.376,4.061v0.56
			c0,2.17,0.841,3.291,3.711,4.411l4.235,1.54c3.955,1.4,5.565,3.675,5.565,7.176v0.7c0,4.41-3.255,7.036-8.855,7.036h-0.631
			c-5.565,0-8.681-2.416-8.681-6.546v-2.17h4.445v3.185c0,2.59,1.33,4.061,4.586,4.061c3.08,0,4.726-1.295,4.726-3.885v-1.015
			c0-2.135-0.84-3.326-3.746-4.446l-3.955-1.47c-3.955-1.4-5.565-3.571-5.565-7.246v-0.315c0-4.48,3.186-7.105,8.541-7.105h0.385
			c5.11,0,8.191,2.415,8.191,6.545v1.89H602.776z"/>
		<path fill="#0A78A0" d="M609.319,132.997h17.536v1.225h-7.386v25.028h-2.765v-25.028h-7.386V132.997z"/>
		<path fill="#0A78A0" d="M628.814,132.997h16.836v2.135h-8.19v9.556h7.491v2.135h-7.491v10.291h8.19v2.135h-16.836V132.997z"/>
		<path fill="#0A78A0" d="M648.589,132.997h9.416c5.075,0,8.085,2.03,8.085,6.301v2.765c0,4.306-3.01,6.301-8.085,6.301h-4.761
			v10.886h-4.655V132.997z M653.244,146.859h4.061c2.66,0,4.025-1.26,4.025-4.061v-4.235c0-2.8-1.365-4.061-4.025-4.061h-4.061
			V146.859z"/>
		<path fill="#0A78A0" d="M681.805,141.328v-2.695c0-3.01-1.646-4.831-5.216-4.831c-3.71,0-5.391,1.855-5.391,4.831v0.315
			c0,2.24,1.016,3.57,4.376,4.936l4.235,1.715c3.57,1.435,5.146,3.605,5.146,6.721v0.63c0,4.13-3.15,6.651-8.226,6.651h-0.351
			c-4.936,0-8.12-2.416-8.12-6.441v-2.52h2.625v2.975c0,3.01,1.645,4.831,5.67,4.831c3.781,0,5.846-1.575,5.846-4.585v-0.84
			c0-2.206-1.015-3.641-4.375-5.006l-4.131-1.68c-3.57-1.435-5.146-3.5-5.146-6.755v-0.21c0-4.201,3.115-6.721,7.666-6.721h0.351
			c4.48,0,7.596,2.415,7.596,6.44v2.24H681.805z"/>
		<path fill="#0A78A0" d="M686.737,163.556c0.771-2.065,1.716-5.811,2.101-8.366l3.431-0.35c-0.806,2.976-2.346,6.861-3.325,8.506
			L686.737,163.556z"/>
		<path fill="#0A78A0" d="M34.351,179.083v-2.905c0-2.59-1.33-4.061-4.235-4.061c-3.01,0-4.375,1.505-4.375,4.061v0.56
			c0,2.17,0.84,3.291,3.71,4.411l4.235,1.54c3.955,1.4,5.565,3.675,5.565,7.176v0.7c0,4.41-3.255,7.036-8.856,7.036h-0.63
			c-5.566,0-8.681-2.416-8.681-6.546v-2.17h4.446v3.185c0,2.59,1.33,4.061,4.585,4.061c3.08,0,4.726-1.295,4.726-3.885v-1.015
			c0-2.135-0.84-3.326-3.746-4.446l-3.956-1.47c-3.955-1.4-5.565-3.571-5.565-7.246v-0.315c0-4.48,3.186-7.105,8.541-7.105H30.5
			c5.111,0,8.191,2.415,8.191,6.545v1.89H34.351z"/>
		<path fill="#0A78A0" d="M58.536,189.129c0,5.916-2.765,8.471-7.596,8.471h-0.35c-5.146,0-8.296-2.205-8.296-8.121v-18.482h2.765
			v18.832c0,4.69,1.715,6.546,6.021,6.546c4.025,0,6.126-2.135,6.126-7.246v-18.132h1.33V189.129z"/>
		<path fill="#0A78A0" d="M70.365,192.384c0,2.17,0.665,3.116,2.205,3.116c1.505,0,2.17-0.875,2.17-2.976v-5.215h8.541v2.66
			c0,5.005-3.29,7.631-10.536,7.631h-0.35c-7.491,0-10.851-3.396-10.851-10.116v-6.721c0-6.721,3.36-10.116,10.851-10.116h0.35
			c7.246,0,10.536,2.625,10.536,7.63v2.485H74.74v-5.041c0-2.1-0.666-2.975-2.17-2.975c-1.54,0-2.205,0.945-2.205,3.115V192.384z"/>
		<path fill="#0A78A0" d="M86.113,170.997h4.656v11.866h9.206v-11.866h4.656v26.253h-4.656v-12.881h-9.206v12.881h-4.656V170.997z"
			/>
		<path fill="#0A78A0" d="M113.448,170.997H132v1.505h-6.931v24.748h-4.656v-24.748h-6.965V170.997z"/>
		<path fill="#0A78A0" d="M134.587,170.997h2.766v11.972h11.481v-11.972h2.765v26.253h-2.765v-13.056h-11.481v13.056h-2.766V170.997
			z"/>
		<path fill="#0A78A0" d="M156.427,197.25h-2.311l6.896-26.253h7.911l6.896,26.253h-8.926l-1.89-7.246h-6.686L156.427,197.25z
			 M161.678,177.018l-2.835,10.851h5.636L161.678,177.018z"/>
		<path fill="#0A78A0" d="M176.727,170.997h18.552v1.505h-6.931v24.748h-4.656v-24.748h-6.965V170.997z"/>
		<path fill="#0A78A0" d="M202.696,170.997h18.552v1.505h-6.931v24.748h-4.656v-24.748h-6.965V170.997z"/>
		<path fill="#0A78A0" d="M223.836,170.997h2.766v11.972h11.481v-11.972h2.765v26.253h-2.765v-13.056h-11.481v13.056h-2.766V170.997
			z"/>
		<path fill="#0A78A0" d="M244.38,170.997h16.837v2.135h-8.191v9.556h7.491v2.135h-7.491v10.291h8.191v2.135H244.38V170.997z"/>
		<path fill="#0A78A0" d="M268.811,184.438v12.812h-4.656v-26.253h10.011c5.075,0,8.086,1.996,8.086,6.301v0.56
			c0,3.22-1.925,5.111-5.356,5.811c3.5,0.7,5.356,2.625,5.356,5.916v7.666h-4.656v-8.716c0-2.835-1.4-4.096-4.025-4.096H268.811z
			 M268.811,182.934h4.69c2.625,0,4.025-1.225,4.025-4.061v-2.31c0-2.8-1.4-4.061-4.025-4.061h-4.69V182.934z"/>
		<path fill="#0A78A0" d="M285.785,170.997h13.722v1.225H288.55v10.747h10.081v1.225H288.55v11.831h10.956v1.225h-13.722V170.997z"
			/>
		<path fill="#0A78A0" d="M309.479,197.25v-26.253h4.655v26.253H309.479z"/>
		<path fill="#0A78A0" d="M330.865,179.328v-2.695c0-3.01-1.646-4.831-5.216-4.831c-3.71,0-5.39,1.855-5.39,4.831v0.315
			c0,2.24,1.015,3.57,4.375,4.936l4.235,1.715c3.57,1.435,5.146,3.605,5.146,6.721v0.63c0,4.13-3.15,6.651-8.226,6.651h-0.351
			c-4.936,0-8.121-2.416-8.121-6.441v-2.52h2.626v2.975c0,3.01,1.645,4.831,5.67,4.831c3.781,0,5.846-1.575,5.846-4.585v-0.84
			c0-2.206-1.015-3.641-4.375-5.006l-4.131-1.68c-3.569-1.435-5.146-3.5-5.146-6.755v-0.21c0-4.201,3.115-6.721,7.666-6.721h0.351
			c4.48,0,7.596,2.415,7.596,6.44v2.24H330.865z"/>
		<path fill="#0A78A0" d="M345.213,197.25h-1.645v-26.253h4.34l11.132,20.127v-20.127h1.645v26.253h-3.71l-11.762-21.282V197.25z"/>
		<path fill="#0A78A0" d="M373.668,170.647c5.391,0,8.996,3.08,8.996,9.696v7.561c0,6.616-3.605,9.696-8.996,9.696h-0.35
			c-5.391,0-8.996-3.081-8.996-9.696v-7.561c0-6.616,3.605-9.696,8.996-9.696H373.668z M373.493,171.802
			c-4.41,0-6.301,2.695-6.301,7.841v8.961c0,5.146,1.891,7.841,6.301,7.841c4.411,0,6.301-2.695,6.301-7.841v-8.961
			C379.794,174.498,377.904,171.802,373.493,171.802z"/>
		<path fill="#0A78A0" d="M392.812,197.25v-26.253h4.655v26.253H392.812z"/>
		<path fill="#0A78A0" d="M402.857,197.25h-1.33v-26.253h2.52l12.427,21.562v-21.562h1.33v26.253h-2.03l-12.916-22.472V197.25z"/>
		<path fill="#0A78A0" d="M420.286,170.997h20.758v2.135h-6.056v24.118h-8.646v-24.118h-6.056V170.997z"/>
		<path fill="#0A78A0" d="M443.316,170.997h14.736v1.505h-10.081v10.361h9.241v1.541h-9.241v11.341h10.081v1.505h-14.736V170.997z"
			/>
		<path fill="#0A78A0" d="M461.552,170.997h2.765v25.028h10.887v1.225h-13.651V170.997z"/>
		<path fill="#0A78A0" d="M477.687,170.997h8.646v24.118h8.471v2.135h-17.116V170.997z"/>
		<path fill="#0A78A0" d="M497.251,197.25v-26.253h4.655v26.253H497.251z"/>
		<path fill="#0A78A0" d="M520.318,194.45c-0.945,1.82-2.836,3.15-5.812,3.15h-0.35c-5.216,0-8.541-2.765-8.541-9.171v-8.086
			c0-6.616,3.605-9.696,8.611-9.696h0.35c4.865,0,8.191,2.8,8.191,7.456v1.82h-2.626v-0.98c0-4.83-1.715-7.141-5.74-7.141
			s-5.916,2.695-5.916,7.841v9.486c0,4.901,1.681,7.316,5.846,7.316c3.886,0,5.846-2.52,5.846-6.791v-4.201h-6.266v-1.225h9.031
			v13.021h-2.556L520.318,194.45z"/>
		<path fill="#0A78A0" d="M526.371,197.25v-26.253h8.646v26.253H526.371z"/>
		<path fill="#0A78A0" d="M538.376,197.25v-26.253h9.416c5.075,0,8.085,1.996,8.085,6.301v0.42c0,3.116-1.785,4.971-5.04,5.741
			c3.71,0.665,5.705,2.59,5.705,5.986v1.505c0,4.306-3.01,6.301-8.051,6.301H538.376z M542.996,182.793h4.13
			c2.626,0,4.026-1.225,4.026-4.061v-2.17c0-2.8-1.4-4.061-4.026-4.061h-4.13V182.793z M547.757,195.745
			c2.66,0,4.025-1.26,4.025-4.095v-3.255c0-2.835-1.365-4.095-4.025-4.095h-4.761v11.446H547.757z"/>
		<path fill="#0A78A0" d="M559.69,170.997h2.765v25.028h10.887v1.225H559.69V170.997z"/>
		<path fill="#0A78A0" d="M575.825,170.997h16.836v2.135h-8.19v9.556h7.491v2.135h-7.491v10.291h8.19v2.135h-16.836V170.997z"/>
		<path fill="#0A78A0" d="M602.039,170.997h9.416c5.075,0,8.085,2.03,8.085,6.301v2.765c0,4.306-3.01,6.301-8.085,6.301h-4.761
			v10.886h-4.655V170.997z M606.694,184.859h4.061c2.66,0,4.025-1.26,4.025-4.061v-4.235c0-2.8-1.365-4.061-4.025-4.061h-4.061
			V184.859z"/>
		<path fill="#0A78A0" d="M622.584,197.25h-1.4l7.911-26.253h2.415l7.91,26.253h-2.975l-2.695-9.031h-8.471L622.584,197.25z
			 M629.515,174.042l-3.851,12.952h7.7L629.515,174.042z"/>
		<path fill="#0A78A0" d="M640.503,170.997h20.758v2.135h-6.056v24.118h-8.646v-24.118h-6.056V170.997z"/>
		<path fill="#0A78A0" d="M663.393,170.997h14.002v32.554h-14.002V170.997z M675.644,201.8v-29.053h-10.501V201.8H675.644z"/>
		<path fill="#0A78A0" d="M20.489,208.997h18.552v1.505H32.11v24.748h-4.656v-24.748h-6.965V208.997z"/>
		<path fill="#0A78A0" d="M41.629,208.997h13.722v1.225H44.395v10.747h10.081v1.225H44.395v11.831h10.956v1.225H41.629V208.997z"/>
		<path fill="#0A78A0" d="M67.005,222.719v12.531h-8.646v-26.253H71.73c5.496,0,8.261,1.96,8.261,6.056v1.015
			c0,3.081-1.68,4.866-5.215,5.566c3.57,0.7,5.215,2.52,5.215,5.635v7.981h-8.646v-10.081c0-1.75-0.7-2.45-2.1-2.45H67.005z
			 M67.005,220.583h2.205c1.436,0,2.101-0.665,2.101-2.45v-4.551c0-1.785-0.665-2.45-2.101-2.45h-2.205V220.583z"/>
		<path fill="#0A78A0" d="M84.644,235.25h-1.645v-26.253h4.34l11.131,20.127v-20.127h1.645v26.253h-3.71l-11.761-21.282V235.25z"/>
		<path fill="#0A78A0" d="M119.994,208.647c6.09,0,9.626,3.185,9.626,9.836v7.281c0,6.65-3.536,9.836-9.626,9.836h-0.35
			c-6.125,0-9.661-3.186-9.661-9.836v-7.281c0-6.651,3.536-9.836,9.661-9.836H119.994z M119.818,210.117
			c-3.535,0-5.075,2.135-5.075,6.301v11.376c0,4.2,1.54,6.335,5.075,6.335c3.536,0,5.041-2.135,5.041-6.335v-11.376
			C124.859,212.252,123.354,210.117,119.818,210.117z"/>
		<path fill="#0A78A0" d="M136.022,222.333v12.917h-2.766v-26.253h8.436c4.866,0,7.981,2.03,7.981,6.406v0.35
			c0,3.291-2.065,5.216-5.461,5.916c3.466,0.7,5.461,2.695,5.461,6.091v7.491h-2.766v-8.086c0-3.325-1.715-4.831-4.936-4.831
			H136.022z M136.022,221.108h5.845c3.221,0,4.936-1.505,4.936-4.831v-1.225c0-3.325-1.715-4.831-4.936-4.831h-5.845V221.108z"/>
		<path fill="#0A78A0" d="M164.022,227.794c0,4.2,1.505,6.335,4.69,6.335c3.185,0,4.55-1.855,4.55-5.811v-2.45h4.516v2.205
			c0,4.795-3.291,7.526-8.891,7.526h-0.35c-5.74,0-9.276-3.186-9.276-9.836v-7.281c0-6.651,3.536-9.836,9.276-9.836h0.35
			c5.601,0,8.891,2.73,8.891,7.491v2.065h-4.516v-2.31c0-3.956-1.365-5.776-4.55-5.776c-3.186,0-4.69,2.135-4.69,6.301V227.794z"/>
		<path fill="#0A78A0" d="M190.377,208.647c5.391,0,8.996,3.08,8.996,9.696v7.561c0,6.616-3.605,9.696-8.996,9.696h-0.35
			c-5.391,0-8.996-3.081-8.996-9.696v-7.561c0-6.616,3.605-9.696,8.996-9.696H190.377z M190.202,209.802
			c-4.41,0-6.3,2.695-6.3,7.841v8.961c0,5.146,1.89,7.841,6.3,7.841c4.411,0,6.301-2.695,6.301-7.841v-8.961
			C196.503,212.498,194.613,209.802,190.202,209.802z"/>
		<path fill="#0A78A0" d="M204.901,235.25h-2.345v-26.253h9.031l4.235,15.612l4.515-15.612h8.646v26.253h-8.646v-18.167
			l-5.005,18.167h-5.425l-5.006-18.832V235.25z"/>
		<path fill="#0A78A0" d="M232.306,235.25v-26.253h9.416c5.076,0,8.086,1.996,8.086,6.301v0.42c0,3.116-1.785,4.971-5.041,5.741
			c3.71,0.665,5.706,2.59,5.706,5.986v1.505c0,4.306-3.01,6.301-8.051,6.301H232.306z M236.926,220.793h4.13
			c2.625,0,4.025-1.225,4.025-4.061v-2.17c0-2.8-1.4-4.061-4.025-4.061h-4.13V220.793z M241.687,233.745
			c2.661,0,4.025-1.26,4.025-4.095v-3.255c0-2.835-1.365-4.095-4.025-4.095h-4.76v11.446H241.687z"/>
		<path fill="#0A78A0" d="M253.691,235.25v-26.253h2.765v26.253H253.691z"/>
		<path fill="#0A78A0" d="M262.405,235.25h-2.345v-26.253h8.226l8.331,16.767v-16.767h2.38v26.253h-7.316l-9.276-18.552V235.25z"/>
		<path fill="#0A78A0" d="M282.705,235.25h-1.68l7.561-26.253h4.2l7.561,26.253h-4.866l-2.45-8.471h-7.911L282.705,235.25z
			 M289.076,212.953l-3.536,12.321h7.071L289.076,212.953z"/>
		<path fill="#0A78A0" d="M301.5,208.997h17.537v1.225h-7.386v25.028h-2.766v-25.028H301.5V208.997z"/>
		<path fill="#0A78A0" d="M321.064,235.25v-26.253h8.646v26.253H321.064z"/>
		<path fill="#0A78A0" d="M342.729,208.647c6.091,0,9.626,3.185,9.626,9.836v7.281c0,6.65-3.535,9.836-9.626,9.836h-0.35
			c-6.126,0-9.661-3.186-9.661-9.836v-7.281c0-6.651,3.535-9.836,9.661-9.836H342.729z M342.555,210.117
			c-3.535,0-5.075,2.135-5.075,6.301v11.376c0,4.2,1.54,6.335,5.075,6.335s5.041-2.135,5.041-6.335v-11.376
			C347.596,212.252,346.09,210.117,342.555,210.117z"/>
		<path fill="#0A78A0" d="M357.324,235.25h-1.33v-26.253h2.52l12.427,21.562v-21.562h1.33v26.253h-2.03l-12.916-22.472V235.25z"/>
		<path fill="#0A78A0" d="M376.188,233.43c0-1.295,0.875-2.205,2.1-2.205c1.226,0,2.065,0.91,2.065,2.205
			c0,1.26-0.805,2.206-2.1,2.206C377.028,235.635,376.188,234.69,376.188,233.43z"/>
		<path fill="#0A78A0" d="M395.578,222.438v12.812h-4.655v-26.253h10.011c5.075,0,8.086,1.996,8.086,6.301v0.56
			c0,3.22-1.926,5.111-5.355,5.811c3.5,0.7,5.355,2.625,5.355,5.916v7.666h-4.655v-8.716c0-2.835-1.4-4.096-4.025-4.096H395.578z
			 M395.578,220.934h4.69c2.625,0,4.025-1.225,4.025-4.061v-2.31c0-2.8-1.4-4.061-4.025-4.061h-4.69V220.934z"/>
		<path fill="#0A78A0" d="M412.553,235.25h-1.4l7.911-26.253h2.415l7.91,26.253h-2.975l-2.695-9.031h-8.471L412.553,235.25z
			 M419.483,212.042l-3.851,12.952h7.7L419.483,212.042z"/>
		<path fill="#0A78A0" d="M433.867,235.25h-2.345v-26.253h8.226l8.331,16.767v-16.767h2.38v26.253h-7.315l-9.276-18.552V235.25z"/>
		<path fill="#0A78A0" d="M453.747,235.25v-26.253h8.365c6.371,0,10.046,2.905,10.046,9.556v7.141c0,6.616-3.675,9.556-10.046,9.556
			H453.747z M462.322,233.745c3.536,0,5.041-1.82,5.041-6.021v-11.201c0-4.2-1.505-6.021-5.041-6.021h-3.92v23.242H462.322z"/>
		<path fill="#0A78A0" d="M484.792,208.647c5.391,0,8.996,3.08,8.996,9.696v7.561c0,6.616-3.605,9.696-8.996,9.696h-0.35
			c-5.391,0-8.996-3.081-8.996-9.696v-7.561c0-6.616,3.605-9.696,8.996-9.696H484.792z M484.617,209.802
			c-4.41,0-6.301,2.695-6.301,7.841v8.961c0,5.146,1.891,7.841,6.301,7.841c4.411,0,6.301-2.695,6.301-7.841v-8.961
			C490.918,212.498,489.028,209.802,484.617,209.802z"/>
		<path fill="#0A78A0" d="M499.316,235.25h-2.345v-26.253h9.03l4.235,15.612l4.516-15.612h8.646v26.253h-8.646v-18.167
			l-5.005,18.167h-5.426l-5.006-18.832V235.25z"/>
		<path fill="#0A78A0" d="M528.366,235.25h-1.645v-26.253h4.34l11.131,20.127v-20.127h1.646v26.253h-3.71l-11.762-21.282V235.25z"/>
		<path fill="#0A78A0" d="M547.826,208.997h13.721v1.225h-10.956v10.747h10.081v1.225h-10.081v11.831h10.956v1.225h-13.721V208.997z
			"/>
		<path fill="#0A78A0" d="M576.526,216.593v-3.396c0-1.68-0.665-2.45-2.17-2.45s-2.17,0.77-2.17,2.45v1.155
			c0,1.995,0.42,2.625,2.345,3.22l4.2,1.225c4.761,1.33,6.476,3.745,6.476,8.121v0.875c0,5.005-3.535,7.806-10.221,7.806h-1.226
			c-6.896,0-9.836-2.45-9.836-6.756v-1.47h8.331v3.676c0,1.68,0.63,2.45,2.24,2.45c1.54,0,2.311-0.7,2.311-2.416v-1.4
			c0-1.995-0.455-2.661-2.38-3.255l-3.605-1.05c-4.726-1.33-6.476-3.675-6.476-8.226v-0.595c0-5.076,3.325-7.911,10.396-7.911h0.49
			c6.511,0,9.451,2.485,9.451,6.755v1.19H576.526z"/>
		<path fill="#0A78A0" d="M600.396,217.083v-2.905c0-2.59-1.33-4.061-4.235-4.061c-3.011,0-4.376,1.505-4.376,4.061v0.56
			c0,2.17,0.841,3.291,3.711,4.411l4.235,1.54c3.955,1.4,5.565,3.675,5.565,7.176v0.7c0,4.41-3.255,7.036-8.855,7.036h-0.631
			c-5.565,0-8.681-2.416-8.681-6.546v-2.17h4.445v3.185c0,2.59,1.33,4.061,4.586,4.061c3.08,0,4.726-1.295,4.726-3.885v-1.015
			c0-2.135-0.841-3.326-3.746-4.446l-3.955-1.47c-3.955-1.4-5.565-3.571-5.565-7.246v-0.315c0-4.48,3.186-7.105,8.541-7.105h0.385
			c5.11,0,8.191,2.415,8.191,6.545v1.89H600.396z"/>
	</g>
</g>
</svg>
