<?xml version="1.0" encoding="utf-8"?>
<!-- Generator: Adobe Illustrator 16.0.0, SVG Export Plug-In . SVG Version: 6.00 Build 0)  -->
<!DOCTYPE svg PUBLIC "-//W3C//DTD SVG 1.1//EN" "http://www.w3.org/Graphics/SVG/1.1/DTD/svg11.dtd">
<svg version="1.1" id="Layer_1" xmlns="http://www.w3.org/2000/svg" xmlns:xlink="http://www.w3.org/1999/xlink" x="0px" y="0px"
	 width="600px" height="250px" viewBox="0 0 600 250" enable-background="new 0 0 600 250" xml:space="preserve">
<g>
	<defs>
		<rect id="SVGID_1_" width="600" height="250"/>
	</defs>
	<use xlink:href="#SVGID_1_"  overflow="visible" fill="#FAFFE1"/>
	<clipPath id="SVGID_2_">
		<use xlink:href="#SVGID_1_"  overflow="visible"/>
	</clipPath>
	<g clip-path="url(#SVGID_2_)">
		<path fill="#0A78A0" d="M26.545,32.438V45.25h-4.656V18.997H31.9c5.075,0,8.086,1.996,8.086,6.301v0.56
			c0,3.22-1.925,5.111-5.356,5.811c3.5,0.7,5.356,2.625,5.356,5.916v7.666h-4.656v-8.716c0-2.835-1.4-4.096-4.025-4.096H26.545z
			 M26.545,30.934h4.69c2.625,0,4.025-1.225,4.025-4.061v-2.31c0-2.8-1.4-4.061-4.025-4.061h-4.69V30.934z"/>
		<path fill="#0A78A0" d="M43.519,45.25h-1.4l7.911-26.253h2.416l7.911,26.253h-2.975l-2.695-9.031h-8.471L43.519,45.25z
			 M50.45,22.042L46.6,34.994H54.3L50.45,22.042z"/>
		<path fill="#0A78A0" d="M64.484,45.25h-1.33V18.997h2.521L78.101,40.56V18.997h1.33V45.25H77.4L64.484,22.778V45.25z"/>
		<path fill="#0A78A0" d="M82.963,45.25V18.997h10.711c7.701,0,11.166,3.326,11.166,10.046v6.161
			c0,6.721-3.465,10.046-11.166,10.046H82.963z M93.64,43.115c1.68,0,2.38-0.84,2.38-3.01V24.143c0-2.17-0.7-3.01-2.38-3.01h-2.03
			v21.982H93.64z"/>
		<path fill="#0A78A0" d="M117.019,18.647c5.391,0,8.996,3.08,8.996,9.696v7.561c0,6.616-3.605,9.696-8.996,9.696h-0.35
			c-5.391,0-8.996-3.081-8.996-9.696v-7.561c0-6.616,3.605-9.696,8.996-9.696H117.019z M116.844,19.802c-4.41,0-6.3,2.695-6.3,7.841
			v8.961c0,5.146,1.89,7.841,6.3,7.841c4.411,0,6.301-2.695,6.301-7.841v-8.961C123.145,22.498,121.254,19.802,116.844,19.802z"/>
		<path fill="#0A78A0" d="M131.193,45.25h-1.33V18.997h2.835l8.051,23.173l8.016-23.173h2.766V45.25h-2.766V22.917l-7.701,22.333
			h-2.17l-7.701-22.333V45.25z"/>
		<path fill="#0A78A0" d="M157.408,45.25h-2.345V18.997h8.226l8.331,16.767V18.997H174V45.25h-7.316l-9.276-18.552V45.25z"/>
		<path fill="#0A78A0" d="M177.498,18.997h13.722v1.225h-10.956v10.747h10.081v1.225h-10.081v11.831h10.956v1.225h-13.722V18.997z"
			/>
		<path fill="#0A78A0" d="M206.199,26.593v-3.396c0-1.68-0.665-2.45-2.17-2.45c-1.505,0-2.17,0.77-2.17,2.45v1.155
			c0,1.995,0.42,2.625,2.345,3.22l4.201,1.225c4.76,1.33,6.476,3.745,6.476,8.121v0.875c0,5.005-3.536,7.806-10.221,7.806h-1.225
			c-6.896,0-9.836-2.45-9.836-6.756v-1.47h8.331v3.676c0,1.68,0.63,2.45,2.24,2.45c1.541,0,2.311-0.7,2.311-2.416v-1.4
			c0-1.995-0.455-2.661-2.38-3.255l-3.605-1.05c-4.726-1.33-6.476-3.675-6.476-8.226v-0.595c0-5.076,3.325-7.911,10.396-7.911h0.49
			c6.511,0,9.451,2.485,9.451,6.755v1.19H206.199z"/>
		<path fill="#0A78A0" d="M230.489,27.328v-2.695c0-3.01-1.645-4.831-5.215-4.831c-3.71,0-5.391,1.855-5.391,4.831v0.315
			c0,2.24,1.015,3.57,4.375,4.936l4.235,1.715c3.57,1.435,5.146,3.605,5.146,6.721v0.63c0,4.13-3.15,6.651-8.226,6.651h-0.35
			c-4.936,0-8.121-2.416-8.121-6.441v-2.52h2.625v2.975c0,3.01,1.645,4.831,5.67,4.831c3.78,0,5.846-1.575,5.846-4.585v-0.84
			c0-2.206-1.015-3.641-4.375-5.006l-4.13-1.68c-3.57-1.435-5.146-3.5-5.146-6.755v-0.21c0-4.201,3.115-6.721,7.666-6.721h0.35
			c4.48,0,7.596,2.415,7.596,6.44v2.24H230.489z"/>
		<path fill="#0A78A0" d="M244.837,45.25h-1.645V18.997h4.831l6.826,20.757l6.896-20.757h4.655V45.25h-4.655V24.038l-6.861,21.212
			h-3.186l-6.861-21.492V45.25z"/>
		<path fill="#0A78A0" d="M270.352,18.997h13.722v1.225h-10.956v10.747h10.081v1.225h-10.081v11.831h10.956v1.225h-13.722V18.997z"
			/>
		<path fill="#0A78A0" d="M287.747,45.25h-1.4l7.911-26.253h2.416l7.911,26.253h-2.976l-2.695-9.031h-8.471L287.747,45.25z
			 M294.677,22.042l-3.85,12.952h7.701L294.677,22.042z"/>
		<path fill="#0A78A0" d="M308.816,45.25h-1.645V18.997h4.34l11.132,20.127V18.997h1.645V45.25h-3.71l-11.762-21.282V45.25z"/>
		<path fill="#0A78A0" d="M340.947,27.328v-2.695c0-3.01-1.646-4.831-5.216-4.831c-3.71,0-5.391,1.855-5.391,4.831v0.315
			c0,2.24,1.016,3.57,4.376,4.936l4.235,1.715c3.57,1.435,5.146,3.605,5.146,6.721v0.63c0,4.13-3.15,6.651-8.226,6.651h-0.351
			c-4.936,0-8.12-2.416-8.12-6.441v-2.52h2.625v2.975c0,3.01,1.645,4.831,5.67,4.831c3.781,0,5.846-1.575,5.846-4.585v-0.84
			c0-2.206-1.015-3.641-4.375-5.006l-4.131-1.68c-3.57-1.435-5.146-3.5-5.146-6.755v-0.21c0-4.201,3.115-6.721,7.666-6.721h0.351
			c4.48,0,7.596,2.415,7.596,6.44v2.24H340.947z"/>
		<path fill="#0A78A0" d="M353.195,18.997h8.646v24.118h8.471v2.135h-17.116V18.997z"/>
		<path fill="#0A78A0" d="M372.9,45.25h-1.4l7.911-26.253h2.415l7.91,26.253h-2.975l-2.695-9.031h-8.471L372.9,45.25z
			 M379.831,22.042l-3.851,12.952h7.7L379.831,22.042z"/>
		<path fill="#0A78A0" d="M396.735,37.794c0,4.2,1.505,6.335,4.69,6.335s4.551-1.855,4.551-5.811v-2.45h4.515v2.205
			c0,4.795-3.29,7.526-8.891,7.526h-0.35c-5.741,0-9.276-3.186-9.276-9.836v-7.281c0-6.651,3.535-9.836,9.276-9.836h0.35
			c5.601,0,8.891,2.73,8.891,7.491v2.065h-4.515v-2.31c0-3.956-1.365-5.776-4.551-5.776s-4.69,2.135-4.69,6.301V37.794z"/>
		<path fill="#0A78A0" d="M414.095,45.25V18.997h2.765v14.912l11.342-14.912h1.575l-7.421,9.766l8.996,16.487h-3.186l-7.596-14.142
			l-3.711,4.831v9.311H414.095z"/>
		<path fill="#0A78A0" d="M449.654,18.647c5.391,0,8.996,3.08,8.996,9.696v7.561c0,6.616-3.605,9.696-8.996,9.696h-0.35
			c-5.391,0-8.996-3.081-8.996-9.696v-7.561c0-6.616,3.605-9.696,8.996-9.696H449.654z M449.479,19.802
			c-4.41,0-6.301,2.695-6.301,7.841v8.961c0,5.146,1.891,7.841,6.301,7.841c4.411,0,6.301-2.695,6.301-7.841v-8.961
			C455.78,22.498,453.891,19.802,449.479,19.802z"/>
		<path fill="#0A78A0" d="M461.834,18.997h16.941v2.135h-8.296v9.871h7.666v2.135h-7.666V45.25h-8.646V18.997z"/>
		<path fill="#0A78A0" d="M487.418,18.997h13.196c5.495,0,8.261,1.96,8.261,6.056v3.746c0,4.095-2.766,6.021-8.261,6.021h-4.551
			V45.25h-8.646V18.997z M496.063,32.719h2.03c1.436,0,2.101-0.7,2.101-2.45v-6.686c0-1.785-0.665-2.45-2.101-2.45h-2.03V32.719z"/>
		<path fill="#0A78A0" d="M511.743,45.25h-1.4l7.911-26.253h2.415l7.91,26.253h-2.975l-2.695-9.031h-8.471L511.743,45.25z
			 M518.674,22.042l-3.851,12.952h7.701L518.674,22.042z"/>
		<path fill="#0A78A0" d="M529.662,18.997h20.758v2.135h-6.056V45.25h-8.646V21.132h-6.056V18.997z"/>
		<path fill="#0A78A0" d="M551.327,18.997h17.536v1.225h-7.386V45.25h-2.765V20.222h-7.386V18.997z"/>
		<path fill="#0A78A0" d="M571.487,18.997h13.721v1.225h-10.956v10.747h10.081v1.225h-10.081v11.831h10.956v1.225h-13.721V18.997z"
			/>
		<path fill="#0A78A0" d="M591.646,32.333V45.25h-2.765V18.997h8.436c4.865,0,7.98,2.03,7.98,6.406v0.35
			c0,3.291-2.064,5.216-5.46,5.916c3.465,0.7,5.46,2.695,5.46,6.091v7.491h-2.765v-8.086c0-3.325-1.716-4.831-4.936-4.831H591.646z
			 M591.646,31.108h5.846c3.221,0,4.936-1.505,4.936-4.831v-1.225c0-3.325-1.715-4.831-4.936-4.831h-5.846V31.108z"/>
		<path fill="#0A78A0" d="M610.337,45.25h-1.33V18.997h2.52l12.427,21.562V18.997h1.33V45.25h-2.03l-12.916-22.472V45.25z"/>
		<path fill="#0A78A0" d="M644.916,18.647c5.391,0,8.996,3.08,8.996,9.696v7.561c0,6.616-3.605,9.696-8.996,9.696h-0.35
			c-5.391,0-8.996-3.081-8.996-9.696v-7.561c0-6.616,3.605-9.696,8.996-9.696H644.916z M644.741,19.802
			c-4.41,0-6.301,2.695-6.301,7.841v8.961c0,5.146,1.891,7.841,6.301,7.841c4.411,0,6.301-2.695,6.301-7.841v-8.961
			C651.042,22.498,649.152,19.802,644.741,19.802z"/>
		<path fill="#0A78A0" d="M665.741,32.719V45.25h-8.646V18.997h13.371c5.495,0,8.261,1.96,8.261,6.056v1.015
			c0,3.081-1.68,4.866-5.216,5.566c3.57,0.7,5.216,2.52,5.216,5.635v7.981h-8.646V35.169c0-1.75-0.7-2.45-2.101-2.45H665.741z
			 M665.741,30.583h2.205c1.436,0,2.101-0.665,2.101-2.45v-4.551c0-1.785-0.665-2.45-2.101-2.45h-2.205V30.583z"/>
		<path fill="#0A78A0" d="M21.889,56.997h9.416c5.076,0,8.086,2.03,8.086,6.301v2.765c0,4.306-3.01,6.301-8.086,6.301h-4.76V83.25
			h-4.656V56.997z M26.545,70.859h4.06c2.661,0,4.025-1.26,4.025-4.061v-4.235c0-2.8-1.365-4.061-4.025-4.061h-4.06V70.859z"/>
		<path fill="#0A78A0" d="M45.2,70.333V83.25h-2.766V56.997h8.436c4.865,0,7.981,2.03,7.981,6.406v0.35
			c0,3.291-2.065,5.216-5.461,5.916c3.465,0.7,5.461,2.695,5.461,6.091v7.491h-2.766v-8.086c0-3.325-1.715-4.831-4.936-4.831H45.2z
			 M45.2,69.108h5.845c3.221,0,4.936-1.505,4.936-4.831v-1.225c0-3.325-1.715-4.831-4.936-4.831H45.2V69.108z"/>
		<path fill="#0A78A0" d="M62.559,56.997h13.722v1.225H65.325v10.747h10.081v1.225H65.325v11.831h10.956v1.225H62.559V56.997z"/>
		<path fill="#0A78A0" d="M79.954,83.25V56.997H87.2c5.74,0,9.521,2.73,9.521,9.346v7.561c0,6.616-3.781,9.346-9.521,9.346H79.954z
			 M87.55,82.025c4.411,0,6.301-2.275,6.301-7.421v-8.961c0-5.146-1.89-7.421-6.301-7.421h-4.83v23.803H87.55z"/>
		<path fill="#0A78A0" d="M99.974,83.25V56.997h8.646V83.25H99.974z"/>
		<path fill="#0A78A0" d="M114.709,74.604c0,5.146,1.89,7.841,5.846,7.841c3.955,0,5.67-2.31,5.67-7.141v-1.155h2.625v1.995
			c0,4.656-3.326,7.456-8.121,7.456h-0.35c-4.936,0-8.541-3.081-8.541-9.696v-7.561c0-6.616,3.605-9.696,8.541-9.696h0.35
			c4.795,0,8.121,2.8,8.121,7.456v1.82h-2.625v-0.98c0-4.83-1.715-7.141-5.67-7.141c-3.956,0-5.846,2.695-5.846,7.841V74.604z"/>
		<path fill="#0A78A0" d="M130.983,56.997h20.757v2.135h-6.056V83.25h-8.646V59.132h-6.056V56.997z"/>
		<path fill="#0A78A0" d="M154.433,83.25h-1.68l7.561-26.253h4.2l7.561,26.253h-4.866l-2.45-8.471h-7.911L154.433,83.25z
			 M160.804,60.953l-3.535,12.321h7.071L160.804,60.953z"/>
		<path fill="#0A78A0" d="M174.138,83.25V56.997h13.231c5.46,0,8.261,1.96,8.261,6.056v1.085c0,3.045-1.61,4.831-5.005,5.565
			c3.641,0.665,5.32,2.485,5.32,5.636v1.855c0,4.096-2.765,6.056-8.261,6.056H174.138z M182.714,68.688h2.135
			c1.4,0,2.1-0.7,2.1-2.485v-4.621c0-1.785-0.7-2.45-2.1-2.45h-2.135V68.688z M185.094,81.115c1.4,0,2.101-0.665,2.101-2.485v-5.391
			c0-1.75-0.7-2.45-2.101-2.45h-2.38v10.326H185.094z"/>
		<path fill="#0A78A0" d="M198.953,83.25V56.997h2.765V83.25H198.953z"/>
		<path fill="#0A78A0" d="M205.987,56.997h2.766v25.028h10.886v1.225h-13.651V56.997z"/>
		<path fill="#0A78A0" d="M222.857,83.25V56.997h2.765V83.25H222.857z"/>
		<path fill="#0A78A0" d="M228.316,56.997h17.537v1.225h-7.386V83.25h-2.766V58.222h-7.386V56.997z"/>
		<path fill="#0A78A0" d="M254.147,83.25v-9.346l-7.246-16.907h3.01l6.406,14.947l6.406-14.947h1.4l-7.211,16.837v9.416H254.147z"/>
		<path fill="#0A78A0" d="M273.045,83.25V56.997h4.656V83.25H273.045z"/>
		<path fill="#0A78A0" d="M283.09,83.25h-1.33V56.997h2.521l12.426,21.562V56.997h1.33V83.25h-2.03L283.09,60.778V83.25z"/>
		<path fill="#0A78A0" d="M308.674,56.997h13.722v1.225h-10.956v10.747h10.081v1.225h-10.081v11.831h10.956v1.225h-13.722V56.997z"
			/>
		<path fill="#0A78A0" d="M330.55,83.25l-6.161-26.253h8.926l4.48,19.742l4.726-19.742h2.311l-6.406,26.253H330.55z"/>
		<path fill="#0A78A0" d="M347.349,56.997h13.721v1.225h-10.956v10.747h10.081v1.225h-10.081v11.831h10.956v1.225h-13.721V56.997z"
			/>
		<path fill="#0A78A0" d="M366.423,83.25h-2.345V56.997h8.226l8.331,16.767V56.997h2.38V83.25h-7.315l-9.276-18.552V83.25z"/>
		<path fill="#0A78A0" d="M384.902,56.997h18.552v1.505h-6.931V83.25h-4.655V58.502h-6.966V56.997z"/>
		<path fill="#0A78A0" d="M417.349,64.593v-3.396c0-1.68-0.665-2.45-2.17-2.45s-2.17,0.77-2.17,2.45v1.155
			c0,1.995,0.42,2.625,2.345,3.22l4.2,1.225c4.761,1.33,6.476,3.745,6.476,8.121v0.875c0,5.005-3.535,7.806-10.221,7.806h-1.226
			c-6.896,0-9.836-2.45-9.836-6.756v-1.47h8.331v3.676c0,1.68,0.63,2.45,2.24,2.45c1.54,0,2.311-0.7,2.311-2.416v-1.4
			c0-1.995-0.455-2.661-2.38-3.255l-3.605-1.05c-4.726-1.33-6.476-3.675-6.476-8.226v-0.595c0-5.076,3.325-7.911,10.396-7.911h0.49
			c6.511,0,9.451,2.485,9.451,6.755v1.19H417.349z"/>
		<path fill="#0A78A0" d="M428.688,81.43c0-1.295,0.875-2.205,2.101-2.205c1.225,0,2.064,0.91,2.064,2.205
			c0,1.26-0.805,2.206-2.1,2.206C429.527,83.635,428.688,82.69,428.688,81.43z"/>
		<path fill="#0A78A0" d="M445.416,70.333V83.25h-2.765V56.997h8.436c4.865,0,7.98,2.03,7.98,6.406v0.35
			c0,3.291-2.064,5.216-5.46,5.916c3.465,0.7,5.46,2.695,5.46,6.091v7.491h-2.765v-8.086c0-3.325-1.716-4.831-4.936-4.831H445.416z
			 M445.416,69.108h5.846c3.221,0,4.936-1.505,4.936-4.831v-1.225c0-3.325-1.715-4.831-4.936-4.831h-5.846V69.108z"/>
		<path fill="#0A78A0" d="M462.776,83.25h-1.4l7.911-26.253h2.415l7.91,26.253h-2.975l-2.695-9.031h-8.471L462.776,83.25z
			 M469.707,60.042l-3.851,12.952h7.701L469.707,60.042z"/>
		<path fill="#0A78A0" d="M483.741,83.25h-1.33V56.997h2.52l12.427,21.562V56.997h1.33V83.25h-2.03l-12.916-22.472V83.25z"/>
		<path fill="#0A78A0" d="M502.676,83.25V56.997h8.365c6.371,0,10.046,2.905,10.046,9.556v7.141c0,6.616-3.675,9.556-10.046,9.556
			H502.676z M511.251,81.745c3.535,0,5.041-1.82,5.041-6.021V64.523c0-4.2-1.506-6.021-5.041-6.021h-3.92v23.242H511.251z"/>
		<path fill="#0A78A0" d="M535.086,56.647c7.596,0,11.062,3.395,11.062,10.116v6.721c0,6.721-3.466,10.116-11.062,10.116h-0.35
			c-7.596,0-11.026-3.396-11.026-10.116v-6.721c0-6.721,3.431-10.116,11.026-10.116H535.086z M534.911,58.748
			c-1.68,0-2.38,0.945-2.38,3.115v16.521c0,2.17,0.7,3.116,2.38,3.116c1.681,0,2.381-0.945,2.381-3.116V61.863
			C537.292,59.692,536.592,58.748,534.911,58.748z"/>
		<path fill="#0A78A0" d="M550.626,83.25h-1.33V56.997h2.835l8.051,23.173l8.016-23.173h2.766V83.25h-2.766V60.917l-7.7,22.333
			h-2.171l-7.7-22.333V83.25z"/>
		<path fill="#0A78A0" d="M576.491,83.25h-1.33V56.997h2.52l12.427,21.562V56.997h1.33V83.25h-2.03l-12.916-22.472V83.25z"/>
		<path fill="#0A78A0" d="M594.971,56.997h16.836v2.135h-8.19v9.556h7.491v2.135h-7.491v10.291h8.19v2.135h-16.836V56.997z"/>
		<path fill="#0A78A0" d="M627.206,65.083v-2.905c0-2.59-1.33-4.061-4.235-4.061c-3.011,0-4.376,1.505-4.376,4.061v0.56
			c0,2.17,0.841,3.291,3.711,4.411l4.235,1.54c3.955,1.4,5.565,3.675,5.565,7.176v0.7c0,4.41-3.255,7.036-8.855,7.036h-0.631
			c-5.565,0-8.681-2.416-8.681-6.546v-2.17h4.445v3.185c0,2.59,1.33,4.061,4.586,4.061c3.08,0,4.726-1.295,4.726-3.885v-1.015
			c0-2.135-0.84-3.326-3.746-4.446l-3.955-1.47c-3.955-1.4-5.565-3.571-5.565-7.246v-0.315c0-4.48,3.186-7.105,8.541-7.105h0.385
			c5.11,0,8.191,2.415,8.191,6.545v1.89H627.206z"/>
		<path fill="#0A78A0" d="M646.63,64.593v-3.396c0-1.68-0.665-2.45-2.17-2.45s-2.17,0.77-2.17,2.45v1.155
			c0,1.995,0.42,2.625,2.345,3.22l4.2,1.225c4.761,1.33,6.476,3.745,6.476,8.121v0.875c0,5.005-3.535,7.806-10.221,7.806h-1.226
			c-6.896,0-9.836-2.45-9.836-6.756v-1.47h8.331v3.676c0,1.68,0.63,2.45,2.24,2.45c1.54,0,2.311-0.7,2.311-2.416v-1.4
			c0-1.995-0.455-2.661-2.38-3.255l-3.605-1.05c-4.726-1.33-6.476-3.675-6.476-8.226v-0.595c0-5.076,3.325-7.911,10.396-7.911h0.49
			c6.511,0,9.451,2.485,9.451,6.755v1.19H646.63z"/>
		<path fill="#0A78A0" d="M34.351,103.083v-2.905c0-2.59-1.33-4.061-4.235-4.061c-3.01,0-4.375,1.505-4.375,4.061v0.56
			c0,2.17,0.84,3.291,3.71,4.411l4.235,1.54c3.955,1.4,5.565,3.675,5.565,7.176v0.7c0,4.41-3.255,7.036-8.856,7.036h-0.63
			c-5.566,0-8.681-2.416-8.681-6.546v-2.17h4.446v3.185c0,2.59,1.33,4.061,4.585,4.061c3.08,0,4.726-1.295,4.726-3.885v-1.015
			c0-2.135-0.84-3.326-3.746-4.446l-3.956-1.47c-3.955-1.4-5.565-3.571-5.565-7.246v-0.315c0-4.48,3.186-7.105,8.541-7.105H30.5
			c5.111,0,8.191,2.415,8.191,6.545v1.89H34.351z"/>
		<path fill="#0A78A0" d="M58.536,113.129c0,5.916-2.765,8.471-7.596,8.471h-0.35c-5.146,0-8.296-2.205-8.296-8.121V94.997h2.765
			v18.832c0,4.69,1.715,6.546,6.021,6.546c4.025,0,6.126-2.135,6.126-7.246V94.997h1.33V113.129z"/>
		<path fill="#0A78A0" d="M76.91,118.45c-0.945,1.82-2.835,3.15-5.811,3.15h-0.35c-5.215,0-8.541-2.765-8.541-9.171v-8.086
			c0-6.616,3.605-9.696,8.611-9.696h0.35c4.866,0,8.191,2.8,8.191,7.456v1.82h-2.625v-0.98c0-4.83-1.715-7.141-5.741-7.141
			s-5.916,2.695-5.916,7.841v9.486c0,4.901,1.68,7.316,5.846,7.316c3.885,0,5.845-2.52,5.845-6.791v-4.201h-6.266v-1.225h9.031
			v13.021H76.98L76.91,118.45z"/>
		<path fill="#0A78A0" d="M96.439,119.29c-0.77,1.47-2.695,2.31-5.391,2.31h-0.35c-5.391,0-8.156-2.625-8.156-8.856v-7.981
			c0-6.721,3.396-10.116,10.921-10.116h0.35c7.281,0,10.606,2.625,10.606,7.63v2.485h-8.541v-5.041c0-2.1-0.665-2.975-2.24-2.975
			s-2.275,0.945-2.275,3.115v16.207c0,2.135,0.665,3.01,2.24,3.01c1.54,0,2.275-0.91,2.275-2.87v-6.651h-2.625v-2.135h11.201v13.827
			H96.58L96.439,119.29z"/>
		<path fill="#0A78A0" d="M107.813,94.997h13.722v1.225h-10.956v10.747h10.081v1.225h-10.081v11.831h10.956v1.225h-13.722V94.997z"
			/>
		<path fill="#0A78A0" d="M137.879,103.328v-2.695c0-3.01-1.645-4.831-5.215-4.831c-3.71,0-5.391,1.855-5.391,4.831v0.315
			c0,2.24,1.015,3.57,4.375,4.936l4.235,1.715c3.57,1.435,5.146,3.605,5.146,6.721v0.63c0,4.13-3.15,6.651-8.226,6.651h-0.35
			c-4.936,0-8.121-2.416-8.121-6.441v-2.52h2.625v2.975c0,3.01,1.645,4.831,5.67,4.831c3.78,0,5.846-1.575,5.846-4.585v-0.84
			c0-2.206-1.015-3.641-4.375-5.006l-4.13-1.68c-3.57-1.435-5.146-3.5-5.146-6.755v-0.21c0-4.201,3.115-6.721,7.666-6.721h0.35
			c4.48,0,7.596,2.415,7.596,6.44v2.24H137.879z"/>
		<path fill="#0A78A0" d="M142.778,94.997h17.537v1.225h-7.386v25.028h-2.766V96.222h-7.386V94.997z"/>
		<path fill="#0A78A0" d="M175.189,103.083v-2.905c0-2.59-1.33-4.061-4.235-4.061c-3.01,0-4.375,1.505-4.375,4.061v0.56
			c0,2.17,0.84,3.291,3.71,4.411l4.235,1.54c3.956,1.4,5.565,3.675,5.565,7.176v0.7c0,4.41-3.255,7.036-8.856,7.036h-0.63
			c-5.565,0-8.681-2.416-8.681-6.546v-2.17h4.446v3.185c0,2.59,1.33,4.061,4.585,4.061c3.08,0,4.725-1.295,4.725-3.885v-1.015
			c0-2.135-0.84-3.326-3.745-4.446l-3.956-1.47c-3.955-1.4-5.565-3.571-5.565-7.246v-0.315c0-4.48,3.185-7.105,8.541-7.105h0.385
			c5.111,0,8.191,2.415,8.191,6.545v1.89H175.189z"/>
		<path fill="#0A78A0" d="M189.957,121.25h-1.68l7.561-26.253h4.2l7.561,26.253h-4.866l-2.45-8.471h-7.911L189.957,121.25z
			 M196.327,98.953l-3.535,12.321h7.071L196.327,98.953z"/>
		<path fill="#0A78A0" d="M218.201,121.25h-1.645V94.997h4.34l11.131,20.127V94.997h1.645v26.253h-3.71l-11.761-21.282V121.25z"/>
		<path fill="#0A78A0" d="M246.657,94.647c5.391,0,8.996,3.08,8.996,9.696v7.561c0,6.616-3.605,9.696-8.996,9.696h-0.35
			c-5.391,0-8.996-3.081-8.996-9.696v-7.561c0-6.616,3.605-9.696,8.996-9.696H246.657z M246.481,95.802c-4.41,0-6.3,2.695-6.3,7.841
			v8.961c0,5.146,1.89,7.841,6.3,7.841c4.411,0,6.301-2.695,6.301-7.841v-8.961C252.782,98.498,250.892,95.802,246.481,95.802z"/>
		<path fill="#0A78A0" d="M260.831,121.25h-1.33V94.997h2.521l12.426,21.562V94.997h1.33v26.253h-2.03l-12.917-22.472V121.25z"/>
		<path fill="#0A78A0" d="M287.571,108.019v2.275h-8.646v-2.275H287.571z"/>
		<path fill="#0A78A0" d="M300.171,94.647c6.091,0,9.626,3.185,9.626,9.836v7.281c0,6.65-3.535,9.836-9.626,9.836h-0.35
			c-6.125,0-9.661-3.186-9.661-9.836v-7.281c0-6.651,3.536-9.836,9.661-9.836H300.171z M299.996,96.117
			c-3.535,0-5.075,2.135-5.075,6.301v11.376c0,4.2,1.54,6.335,5.075,6.335c3.536,0,5.041-2.135,5.041-6.335v-11.376
			C305.036,98.252,303.531,96.117,299.996,96.117z"/>
		<path fill="#0A78A0" d="M316.199,108.333v12.917h-2.766V94.997h8.437c4.865,0,7.98,2.03,7.98,6.406v0.35
			c0,3.291-2.064,5.216-5.46,5.916c3.465,0.7,5.46,2.695,5.46,6.091v7.491h-2.765v-8.086c0-3.325-1.716-4.831-4.936-4.831H316.199z
			 M316.199,107.108h5.846c3.221,0,4.936-1.505,4.936-4.831v-1.225c0-3.325-1.715-4.831-4.936-4.831h-5.846V107.108z"/>
		<path fill="#0A78A0" d="M333.56,121.25V94.997h7.245c5.741,0,9.521,2.73,9.521,9.346v7.561c0,6.616-3.78,9.346-9.521,9.346H333.56
			z M341.155,120.025c4.41,0,6.301-2.275,6.301-7.421v-8.961c0-5.146-1.891-7.421-6.301-7.421h-4.831v23.803H341.155z"/>
		<path fill="#0A78A0" d="M353.509,94.997h16.836v2.135h-8.19v9.556h7.491v2.135h-7.491v10.291h8.19v2.135h-16.836V94.997z"/>
		<path fill="#0A78A0" d="M377.938,108.438v12.812h-4.655V94.997h10.011c5.075,0,8.086,1.996,8.086,6.301v0.56
			c0,3.22-1.926,5.111-5.355,5.811c3.5,0.7,5.355,2.625,5.355,5.916v7.666h-4.655v-8.716c0-2.835-1.4-4.096-4.025-4.096H377.938z
			 M377.938,106.934h4.69c2.625,0,4.025-1.225,4.025-4.061v-2.31c0-2.8-1.4-4.061-4.025-4.061h-4.69V106.934z"/>
		<path fill="#0A78A0" d="M411.713,94.647c7.596,0,11.062,3.395,11.062,10.116v6.721c0,6.721-3.466,10.116-11.062,10.116h-0.35
			c-7.596,0-11.026-3.396-11.026-10.116v-6.721c0-6.721,3.431-10.116,11.026-10.116H411.713z M411.538,96.748
			c-1.68,0-2.38,0.945-2.38,3.115v16.521c0,2.17,0.7,3.116,2.38,3.116c1.681,0,2.381-0.945,2.381-3.116V99.863
			C413.919,97.692,413.219,96.748,411.538,96.748z"/>
		<path fill="#0A78A0" d="M433.903,108.719v12.531h-8.646V94.997h13.371c5.495,0,8.261,1.96,8.261,6.056v1.015
			c0,3.081-1.68,4.866-5.216,5.566c3.57,0.7,5.216,2.52,5.216,5.635v7.981h-8.646v-10.081c0-1.75-0.7-2.45-2.101-2.45H433.903z
			 M433.903,106.583h2.205c1.436,0,2.101-0.665,2.101-2.45v-4.551c0-1.785-0.665-2.45-2.101-2.45h-2.205V106.583z"/>
		<path fill="#0A78A0" d="M457.981,121.25h-1.645V94.997h4.34l11.131,20.127V94.997h1.646v26.253h-3.71l-11.762-21.282V121.25z"/>
		<path fill="#0A78A0" d="M486.437,94.647c5.391,0,8.996,3.08,8.996,9.696v7.561c0,6.616-3.605,9.696-8.996,9.696h-0.35
			c-5.391,0-8.996-3.081-8.996-9.696v-7.561c0-6.616,3.605-9.696,8.996-9.696H486.437z M486.262,95.802
			c-4.41,0-6.301,2.695-6.301,7.841v8.961c0,5.146,1.891,7.841,6.301,7.841c4.411,0,6.301-2.695,6.301-7.841v-8.961
			C492.562,98.498,490.673,95.802,486.262,95.802z"/>
		<path fill="#0A78A0" d="M500.716,121.25h-1.645V94.997h4.34l11.131,20.127V94.997h1.646v26.253h-3.71l-11.762-21.282V121.25z"/>
		<path fill="#0A78A0" d="M527.771,108.019v2.275h-8.646v-2.275H527.771z"/>
		<path fill="#0A78A0" d="M535.121,113.794c0,4.2,1.505,6.335,4.69,6.335s4.551-1.855,4.551-5.811v-2.45h4.515v2.205
			c0,4.795-3.29,7.526-8.891,7.526h-0.35c-5.741,0-9.276-3.186-9.276-9.836v-7.281c0-6.651,3.535-9.836,9.276-9.836h0.35
			c5.601,0,8.891,2.73,8.891,7.491v2.065h-4.515v-2.31c0-3.956-1.365-5.776-4.551-5.776s-4.69,2.135-4.69,6.301V113.794z"/>
		<path fill="#0A78A0" d="M561.476,94.647c5.391,0,8.996,3.08,8.996,9.696v7.561c0,6.616-3.605,9.696-8.996,9.696h-0.35
			c-5.391,0-8.996-3.081-8.996-9.696v-7.561c0-6.616,3.605-9.696,8.996-9.696H561.476z M561.301,95.802
			c-4.41,0-6.301,2.695-6.301,7.841v8.961c0,5.146,1.891,7.841,6.301,7.841c4.411,0,6.301-2.695,6.301-7.841v-8.961
			C567.602,98.498,565.712,95.802,561.301,95.802z"/>
		<path fill="#0A78A0" d="M574.32,94.997h2.765v11.972h11.481V94.997h2.766v26.253h-2.766v-13.056h-11.481v13.056h-2.765V94.997z"/>
		<path fill="#0A78A0" d="M595.53,94.997h13.721v1.225h-10.956v10.747h10.081v1.225h-10.081v11.831h10.956v1.225H595.53V94.997z"/>
		<path fill="#0A78A0" d="M615.689,108.333v12.917h-2.765V94.997h8.436c4.865,0,7.98,2.03,7.98,6.406v0.35
			c0,3.291-2.064,5.216-5.46,5.916c3.465,0.7,5.46,2.695,5.46,6.091v7.491h-2.765v-8.086c0-3.325-1.716-4.831-4.936-4.831H615.689z
			 M615.689,107.108h5.846c3.221,0,4.936-1.505,4.936-4.831v-1.225c0-3.325-1.715-4.831-4.936-4.831h-5.846V107.108z"/>
		<path fill="#0A78A0" d="M632.699,94.997h14.002v32.554h-14.002V94.997z M644.95,125.8V96.748h-10.501V125.8H644.95z"/>
		<path fill="#0A78A0" d="M21.889,132.997h14.737v1.505H26.545v10.361h9.241v1.541h-9.241v11.341h10.081v1.505H21.889V132.997z"/>
		<path fill="#0A78A0" d="M41.454,159.25h-1.33v-26.253h2.521l12.426,21.562v-21.562h1.33v26.253h-2.03l-12.917-22.472V159.25z"/>
		<path fill="#0A78A0" d="M63.119,150.604c0,5.146,1.89,7.841,5.846,7.841c3.955,0,5.67-2.31,5.67-7.141v-1.155h2.625v1.995
			c0,4.656-3.326,7.456-8.121,7.456h-0.35c-4.936,0-8.541-3.081-8.541-9.696v-7.561c0-6.616,3.605-9.696,8.541-9.696h0.35
			c4.795,0,8.121,2.8,8.121,7.456v1.82h-2.625v-0.98c0-4.83-1.715-7.141-5.67-7.141c-3.956,0-5.846,2.695-5.846,7.841V150.604z"/>
		<path fill="#0A78A0" d="M81.108,132.997H94.83v1.225H83.874v10.747h10.081v1.225H83.874v11.831H94.83v1.225H81.108V132.997z"/>
		<path fill="#0A78A0" d="M104.803,159.25v-26.253h4.656v26.253H104.803z"/>
		<path fill="#0A78A0" d="M115.198,159.25h-2.345v-26.253h8.226l8.331,16.767v-16.767h2.38v26.253h-7.316l-9.276-18.552V159.25z"/>
		<path fill="#0A78A0" d="M142.357,159.25h-2.311l6.896-26.253h7.911l6.896,26.253h-8.926l-1.89-7.246h-6.686L142.357,159.25z
			 M147.608,139.018l-2.835,10.851h5.636L147.608,139.018z"/>
		<path fill="#0A78A0" d="M182.013,140.593v-3.396c0-1.68-0.665-2.45-2.17-2.45c-1.505,0-2.17,0.77-2.17,2.45v1.155
			c0,1.995,0.42,2.625,2.345,3.22l4.201,1.225c4.76,1.33,6.476,3.745,6.476,8.121v0.875c0,5.005-3.536,7.806-10.221,7.806h-1.225
			c-6.896,0-9.836-2.45-9.836-6.756v-1.47h8.331v3.676c0,1.68,0.63,2.45,2.24,2.45c1.541,0,2.311-0.7,2.311-2.416v-1.4
			c0-1.995-0.455-2.661-2.38-3.255l-3.605-1.05c-4.726-1.33-6.476-3.675-6.476-8.226v-0.595c0-5.076,3.325-7.911,10.396-7.911h0.49
			c6.511,0,9.451,2.485,9.451,6.755v1.19H182.013z"/>
		<path fill="#0A78A0" d="M193.631,132.997h13.722v1.225h-10.956v10.747h10.081v1.225h-10.081v11.831h10.956v1.225h-13.722V132.997z
			"/>
		<path fill="#0A78A0" d="M226.988,165.306c-2.8,0-4.48-1.225-5.286-3.57l-0.77-2.135c-7.526-0.035-10.921-3.43-10.921-10.116
			v-6.721c0-6.721,3.431-10.116,11.026-10.116h0.35c7.596,0,11.061,3.395,11.061,10.116v6.721c0,6.196-2.94,9.591-9.381,10.046
			l0.175,0.28c0.315,0.49,0.665,0.665,1.715,0.665h5.041v4.831H226.988z M221.212,134.748c-1.68,0-2.38,0.945-2.38,3.115v16.521
			c0,2.17,0.7,3.116,2.38,3.116s2.38-0.945,2.38-3.116v-16.521C223.593,135.692,222.893,134.748,221.212,134.748z"/>
		<path fill="#0A78A0" d="M253.693,152.389c0,4.726-2.521,7.211-8.436,7.211h-0.35c-7.071,0-10.151-2.38-10.151-8.156v-18.447h8.646
			v19.812c0,3.15,1.225,4.41,3.955,4.41c2.521,0,3.956-1.4,3.956-4.55v-19.672h2.38V152.389z"/>
		<path fill="#0A78A0" d="M257.016,132.997h13.722v1.225h-10.956v10.747h10.081v1.225h-10.081v11.831h10.956v1.225h-13.722V132.997z
			"/>
		<path fill="#0A78A0" d="M276.091,159.25h-2.345v-26.253h8.226l8.331,16.767v-16.767h2.38v26.253h-7.316l-9.276-18.552V159.25z"/>
		<path fill="#0A78A0" d="M298.702,150.604c0,5.146,1.89,7.841,5.845,7.841s5.671-2.31,5.671-7.141v-1.155h2.625v1.995
			c0,4.656-3.325,7.456-8.12,7.456h-0.351c-4.936,0-8.541-3.081-8.541-9.696v-7.561c0-6.616,3.605-9.696,8.541-9.696h0.351
			c4.795,0,8.12,2.8,8.12,7.456v1.82h-2.625v-0.98c0-4.83-1.716-7.141-5.671-7.141s-5.845,2.695-5.845,7.841V150.604z"/>
		<path fill="#0A78A0" d="M316.025,132.997h16.837v2.135h-8.19v9.556h7.491v2.135h-7.491v10.291h8.19v2.135h-16.837V132.997z"/>
		<path fill="#0A78A0" d="M352.811,132.647c7.596,0,11.062,3.395,11.062,10.116v6.721c0,6.721-3.466,10.116-11.062,10.116h-0.35
			c-7.596,0-11.026-3.396-11.026-10.116v-6.721c0-6.721,3.431-10.116,11.026-10.116H352.811z M352.636,134.748
			c-1.68,0-2.38,0.945-2.38,3.115v16.521c0,2.17,0.7,3.116,2.38,3.116c1.681,0,2.381-0.945,2.381-3.116v-16.521
			C355.017,135.692,354.316,134.748,352.636,134.748z"/>
		<path fill="#0A78A0" d="M367.021,132.997h13.476v1.225h-10.711v10.816h9.802v1.225h-9.802v12.986h-2.765V132.997z"/>
		<path fill="#0A78A0" d="M402.336,141.083v-2.905c0-2.59-1.33-4.061-4.235-4.061c-3.011,0-4.376,1.505-4.376,4.061v0.56
			c0,2.17,0.841,3.291,3.711,4.411l4.235,1.54c3.955,1.4,5.565,3.675,5.565,7.176v0.7c0,4.41-3.255,7.036-8.855,7.036h-0.631
			c-5.565,0-8.681-2.416-8.681-6.546v-2.17h4.445v3.185c0,2.59,1.33,4.061,4.586,4.061c3.08,0,4.726-1.295,4.726-3.885v-1.015
			c0-2.135-0.841-3.326-3.746-4.446l-3.955-1.47c-3.955-1.4-5.565-3.571-5.565-7.246v-0.315c0-4.48,3.186-7.105,8.541-7.105h0.385
			c5.11,0,8.191,2.415,8.191,6.545v1.89H402.336z"/>
		<path fill="#0A78A0" d="M414.794,159.25v-9.521l-6.056-16.732h9.171l4.656,13.057l4.62-13.057h2.275l-6.021,16.627v9.626H414.794z
			"/>
		<path fill="#0A78A0" d="M433.274,159.25h-1.33v-26.253h2.835l8.051,23.173l8.016-23.173h2.766v26.253h-2.766v-22.333l-7.7,22.333
			h-2.171l-7.7-22.333V159.25z"/>
		<path fill="#0A78A0" d="M457.81,159.25v-26.253h7.631c4.865,0,7.98,2.03,7.98,6.406v0.105c0,3.186-1.891,5.076-5.075,5.846
			c3.745,0.63,5.915,2.59,5.915,6.161v1.33c0,4.375-3.115,6.406-7.98,6.406H457.81z M460.574,144.863h5.041
			c3.22,0,4.936-1.505,4.936-4.83v-0.98c0-3.325-1.716-4.831-4.936-4.831h-5.041V144.863z M466.455,158.025
			c3.221,0,4.936-1.505,4.936-4.831v-2.275c0-3.325-1.715-4.83-4.936-4.83h-5.881v11.936H466.455z"/>
		<path fill="#0A78A0" d="M487.84,132.647c7.596,0,11.062,3.395,11.062,10.116v6.721c0,6.721-3.466,10.116-11.062,10.116h-0.35
			c-7.596,0-11.026-3.396-11.026-10.116v-6.721c0-6.721,3.431-10.116,11.026-10.116H487.84z M487.665,134.748
			c-1.68,0-2.38,0.945-2.38,3.115v16.521c0,2.17,0.7,3.116,2.38,3.116c1.681,0,2.381-0.945,2.381-3.116v-16.521
			C490.046,135.692,489.346,134.748,487.665,134.748z"/>
		<path fill="#0A78A0" d="M501.385,132.997h8.646v24.118h8.471v2.135h-17.116V132.997z"/>
		<path fill="#0A78A0" d="M533.761,141.328v-2.695c0-3.01-1.646-4.831-5.216-4.831c-3.71,0-5.391,1.855-5.391,4.831v0.315
			c0,2.24,1.016,3.57,4.376,4.936l4.235,1.715c3.57,1.435,5.146,3.605,5.146,6.721v0.63c0,4.13-3.15,6.651-8.226,6.651h-0.351
			c-4.936,0-8.12-2.416-8.12-6.441v-2.52h2.625v2.975c0,3.01,1.645,4.831,5.671,4.831c3.78,0,5.845-1.575,5.845-4.585v-0.84
			c0-2.206-1.015-3.641-4.375-5.006l-4.131-1.68c-3.57-1.435-5.146-3.5-5.146-6.755v-0.21c0-4.201,3.115-6.721,7.666-6.721h0.351
			c4.48,0,7.596,2.415,7.596,6.44v2.24H533.761z"/>
		<path fill="#0A78A0" d="M555.669,132.647c5.391,0,8.996,3.08,8.996,9.696v7.561c0,6.616-3.605,9.696-8.996,9.696h-0.35
			c-5.391,0-8.996-3.081-8.996-9.696v-7.561c0-6.616,3.605-9.696,8.996-9.696H555.669z M555.494,133.802
			c-4.41,0-6.301,2.695-6.301,7.841v8.961c0,5.146,1.891,7.841,6.301,7.841c4.411,0,6.301-2.695,6.301-7.841v-8.961
			C561.795,136.498,559.905,133.802,555.494,133.802z"/>
		<path fill="#0A78A0" d="M572.959,146.438v12.812h-4.655v-26.253h10.011c5.075,0,8.086,1.996,8.086,6.301v0.56
			c0,3.22-1.926,5.111-5.355,5.811c3.5,0.7,5.355,2.625,5.355,5.916v7.666h-4.655v-8.716c0-2.835-1.4-4.096-4.025-4.096H572.959z
			 M572.959,144.934h4.69c2.625,0,4.025-1.225,4.025-4.061v-2.31c0-2.8-1.4-4.061-4.025-4.061h-4.69V144.934z"/>
		<path fill="#0A78A0" d="M608.624,141.083v-2.905c0-2.59-1.33-4.061-4.235-4.061c-3.011,0-4.376,1.505-4.376,4.061v0.56
			c0,2.17,0.841,3.291,3.711,4.411l4.235,1.54c3.955,1.4,5.565,3.675,5.565,7.176v0.7c0,4.41-3.255,7.036-8.855,7.036h-0.631
			c-5.565,0-8.681-2.416-8.681-6.546v-2.17h4.445v3.185c0,2.59,1.33,4.061,4.586,4.061c3.08,0,4.726-1.295,4.726-3.885v-1.015
			c0-2.135-0.84-3.326-3.746-4.446l-3.955-1.47c-3.955-1.4-5.565-3.571-5.565-7.246v-0.315c0-4.48,3.186-7.105,8.541-7.105h0.385
			c5.11,0,8.191,2.415,8.191,6.545v1.89H608.624z"/>
		<path fill="#0A78A0" d="M615.167,132.997h17.536v1.225h-7.386v25.028h-2.765v-25.028h-7.386V132.997z"/>
		<path fill="#0A78A0" d="M635.117,132.997h14.736v1.505h-10.081v10.361h9.241v1.541h-9.241v11.341h10.081v1.505h-14.736V132.997z"
			/>
		<path fill="#0A78A0" d="M653.353,132.997h7.631c4.865,0,7.98,2.065,7.98,6.406v2.345c0,4.375-3.115,6.406-7.98,6.406h-4.866
			v11.096h-2.765V132.997z M656.117,146.929h5.041c3.22,0,4.936-1.505,4.936-4.831v-3.045c0-3.325-1.716-4.831-4.936-4.831h-5.041
			V146.929z"/>
		<path fill="#0A78A0" d="M684.363,141.083v-2.905c0-2.59-1.33-4.061-4.235-4.061c-3.011,0-4.376,1.505-4.376,4.061v0.56
			c0,2.17,0.841,3.291,3.711,4.411l4.235,1.54c3.955,1.4,5.565,3.675,5.565,7.176v0.7c0,4.41-3.255,7.036-8.855,7.036h-0.631
			c-5.565,0-8.681-2.416-8.681-6.546v-2.17h4.445v3.185c0,2.59,1.33,4.061,4.586,4.061c3.08,0,4.726-1.295,4.726-3.885v-1.015
			c0-2.135-0.841-3.326-3.746-4.446l-3.955-1.47c-3.955-1.4-5.565-3.571-5.565-7.246v-0.315c0-4.48,3.186-7.105,8.541-7.105h0.385
			c5.11,0,8.191,2.415,8.191,6.545v1.89H684.363z"/>
		<path fill="#0A78A0" d="M690.94,163.556c0.771-2.065,1.716-5.811,2.101-8.366l3.431-0.35c-0.806,2.976-2.346,6.861-3.325,8.506
			L690.94,163.556z"/>
		<path fill="#0A78A0" d="M34.351,179.083v-2.905c0-2.59-1.33-4.061-4.235-4.061c-3.01,0-4.375,1.505-4.375,4.061v0.56
			c0,2.17,0.84,3.291,3.71,4.411l4.235,1.54c3.955,1.4,5.565,3.675,5.565,7.176v0.7c0,4.41-3.255,7.036-8.856,7.036h-0.63
			c-5.566,0-8.681-2.416-8.681-6.546v-2.17h4.446v3.185c0,2.59,1.33,4.061,4.585,4.061c3.08,0,4.726-1.295,4.726-3.885v-1.015
			c0-2.135-0.84-3.326-3.746-4.446l-3.956-1.47c-3.955-1.4-5.565-3.571-5.565-7.246v-0.315c0-4.48,3.186-7.105,8.541-7.105H30.5
			c5.111,0,8.191,2.415,8.191,6.545v1.89H34.351z"/>
		<path fill="#0A78A0" d="M58.536,189.129c0,5.916-2.765,8.471-7.596,8.471h-0.35c-5.146,0-8.296-2.205-8.296-8.121v-18.482h2.765
			v18.832c0,4.69,1.715,6.546,6.021,6.546c4.025,0,6.126-2.135,6.126-7.246v-18.132h1.33V189.129z"/>
		<path fill="#0A78A0" d="M65.079,188.604c0,5.146,1.89,7.841,5.846,7.841c3.955,0,5.67-2.31,5.67-7.141v-1.155h2.625v1.995
			c0,4.656-3.326,7.456-8.121,7.456h-0.35c-4.936,0-8.541-3.081-8.541-9.696v-7.561c0-6.616,3.605-9.696,8.541-9.696h0.35
			c4.795,0,8.121,2.8,8.121,7.456v1.82h-2.625v-0.98c0-4.83-1.715-7.141-5.67-7.141c-3.956,0-5.846,2.695-5.846,7.841V188.604z"/>
		<path fill="#0A78A0" d="M82.403,170.997h8.646v11.656h4.411v-11.656h8.646v26.253H95.46v-12.496h-4.411v12.496h-8.646V170.997z"/>
		<path fill="#0A78A0" d="M112.468,170.997h18.552v1.505h-6.931v24.748h-4.656v-24.748h-6.965V170.997z"/>
		<path fill="#0A78A0" d="M133.607,170.997h2.766v11.972h11.481v-11.972h2.765v26.253h-2.765v-13.056h-11.481v13.056h-2.766V170.997
			z"/>
		<path fill="#0A78A0" d="M155.447,197.25h-2.311l6.896-26.253h7.911l6.896,26.253h-8.926l-1.89-7.246h-6.686L155.447,197.25z
			 M160.698,177.018l-2.835,10.851h5.636L160.698,177.018z"/>
		<path fill="#0A78A0" d="M175.782,170.997h17.537v1.225h-7.386v25.028h-2.766v-25.028h-7.386V170.997z"/>
		<path fill="#0A78A0" d="M200.666,170.997h20.757v2.135h-6.056v24.118h-8.646v-24.118h-6.056V170.997z"/>
		<path fill="#0A78A0" d="M223.906,170.997h2.766v11.972h11.481v-11.972h2.765v26.253h-2.765v-13.056h-11.481v13.056h-2.766V170.997
			z"/>
		<path fill="#0A78A0" d="M245.115,170.997h13.722v1.225h-10.956v10.747h10.081v1.225h-10.081v11.831h10.956v1.225h-13.722V170.997z
			"/>
		<path fill="#0A78A0" d="M265.276,184.333v12.917h-2.766v-26.253h8.436c4.865,0,7.981,2.03,7.981,6.406v0.35
			c0,3.291-2.065,5.216-5.461,5.916c3.465,0.7,5.461,2.695,5.461,6.091v7.491h-2.766v-8.086c0-3.325-1.715-4.831-4.936-4.831
			H265.276z M265.276,183.108h5.845c3.221,0,4.936-1.505,4.936-4.831v-1.225c0-3.325-1.715-4.831-4.936-4.831h-5.845V183.108z"/>
		<path fill="#0A78A0" d="M281.97,170.997h16.837v2.135h-8.191v9.556h7.491v2.135h-7.491v10.291h8.191v2.135H281.97V170.997z"/>
		<path fill="#0A78A0" d="M308.465,197.25v-26.253h2.765v26.253H308.465z"/>
		<path fill="#0A78A0" d="M327.75,179.083v-2.905c0-2.59-1.33-4.061-4.235-4.061c-3.011,0-4.376,1.505-4.376,4.061v0.56
			c0,2.17,0.84,3.291,3.711,4.411l4.235,1.54c3.955,1.4,5.565,3.675,5.565,7.176v0.7c0,4.41-3.255,7.036-8.855,7.036h-0.631
			c-5.565,0-8.681-2.416-8.681-6.546v-2.17h4.446v3.185c0,2.59,1.33,4.061,4.585,4.061c3.08,0,4.726-1.295,4.726-3.885v-1.015
			c0-2.135-0.841-3.326-3.746-4.446l-3.955-1.47c-3.955-1.4-5.565-3.571-5.565-7.246v-0.315c0-4.48,3.186-7.105,8.541-7.105h0.385
			c5.11,0,8.191,2.415,8.191,6.545v1.89H327.75z"/>
		<path fill="#0A78A0" d="M343.987,197.25h-2.345v-26.253h8.226l8.331,16.767v-16.767h2.38v26.253h-7.315l-9.276-18.552V197.25z"/>
		<path fill="#0A78A0" d="M374.438,170.647c7.596,0,11.062,3.395,11.062,10.116v6.721c0,6.721-3.466,10.116-11.062,10.116h-0.35
			c-7.596,0-11.026-3.396-11.026-10.116v-6.721c0-6.721,3.431-10.116,11.026-10.116H374.438z M374.263,172.748
			c-1.68,0-2.38,0.945-2.38,3.115v16.521c0,2.17,0.7,3.116,2.38,3.116c1.681,0,2.381-0.945,2.381-3.116v-16.521
			C376.644,173.692,375.943,172.748,374.263,172.748z"/>
		<path fill="#0A78A0" d="M394.491,197.25v-26.253h8.646v26.253H394.491z"/>
		<path fill="#0A78A0" d="M408.036,197.25h-1.33v-26.253h2.52l12.427,21.562v-21.562h1.33v26.253h-2.03l-12.916-22.472V197.25z"/>
		<path fill="#0A78A0" d="M425.605,170.997h17.536v1.225h-7.386v25.028h-2.765v-25.028h-7.386V170.997z"/>
		<path fill="#0A78A0" d="M445.766,170.997h13.721v1.225H448.53v10.747h10.081v1.225H448.53v11.831h10.956v1.225h-13.721V170.997z"
			/>
		<path fill="#0A78A0" d="M462.95,170.997h4.655v24.748h10.116v1.505H462.95V170.997z"/>
		<path fill="#0A78A0" d="M480.695,170.997h2.765v25.028h10.887v1.225h-13.651V170.997z"/>
		<path fill="#0A78A0" d="M497.564,197.25v-26.253h2.766v26.253H497.564z"/>
		<path fill="#0A78A0" d="M518.951,194.45c-0.945,1.82-2.836,3.15-5.812,3.15h-0.35c-5.216,0-8.541-2.765-8.541-9.171v-8.086
			c0-6.616,3.605-9.696,8.611-9.696h0.35c4.865,0,8.191,2.8,8.191,7.456v1.82h-2.626v-0.98c0-4.83-1.715-7.141-5.74-7.141
			s-5.916,2.695-5.916,7.841v9.486c0,4.901,1.681,7.316,5.846,7.316c3.886,0,5.846-2.52,5.846-6.791v-4.201h-6.266v-1.225h9.031
			v13.021h-2.556L518.951,194.45z"/>
		<path fill="#0A78A0" d="M525.669,197.25v-26.253h2.766v26.253H525.669z"/>
		<path fill="#0A78A0" d="M532.494,197.25v-26.253h9.416c5.075,0,8.085,1.996,8.085,6.301v0.42c0,3.116-1.785,4.971-5.04,5.741
			c3.71,0.665,5.705,2.59,5.705,5.986v1.505c0,4.306-3.01,6.301-8.051,6.301H532.494z M537.114,182.793h4.131
			c2.625,0,4.025-1.225,4.025-4.061v-2.17c0-2.8-1.4-4.061-4.025-4.061h-4.131V182.793z M541.875,195.745
			c2.66,0,4.025-1.26,4.025-4.095v-3.255c0-2.835-1.365-4.095-4.025-4.095h-4.761v11.446H541.875z"/>
		<path fill="#0A78A0" d="M553.809,170.997h2.765v25.028h10.887v1.225h-13.651V170.997z"/>
		<path fill="#0A78A0" d="M570.398,170.997h14.736v1.505h-10.081v10.361h9.241v1.541h-9.241v11.341h10.081v1.505h-14.736V170.997z"
			/>
		<path fill="#0A78A0" d="M594.863,170.997h9.416c5.075,0,8.085,2.03,8.085,6.301v2.765c0,4.306-3.01,6.301-8.085,6.301h-4.761
			v10.886h-4.655V170.997z M599.519,184.859h4.061c2.66,0,4.025-1.26,4.025-4.061v-4.235c0-2.8-1.365-4.061-4.025-4.061h-4.061
			V184.859z"/>
		<path fill="#0A78A0" d="M615.408,197.25h-1.4l7.911-26.253h2.415l7.91,26.253h-2.975l-2.695-9.031h-8.471L615.408,197.25z
			 M622.339,174.042l-3.851,12.952h7.7L622.339,174.042z"/>
		<path fill="#0A78A0" d="M633.433,170.997h18.552v1.505h-6.931v24.748h-4.655v-24.748h-6.966V170.997z"/>
		<path fill="#0A78A0" d="M654.223,170.997h14.002v32.554h-14.002V170.997z M666.474,201.8v-29.053h-10.501V201.8H666.474z"/>
		<path fill="#0A78A0" d="M20.489,208.997h18.552v1.505H32.11v24.748h-4.656v-24.748h-6.965V208.997z"/>
		<path fill="#0A78A0" d="M41.629,208.997h13.722v1.225H44.395v10.747h10.081v1.225H44.395v11.831h10.956v1.225H41.629V208.997z"/>
		<path fill="#0A78A0" d="M67.005,222.719v12.531h-8.646v-26.253H71.73c5.496,0,8.261,1.96,8.261,6.056v1.015
			c0,3.081-1.68,4.866-5.215,5.566c3.57,0.7,5.215,2.52,5.215,5.635v7.981h-8.646v-10.081c0-1.75-0.7-2.45-2.1-2.45H67.005z
			 M67.005,220.583h2.205c1.436,0,2.101-0.665,2.101-2.45v-4.551c0-1.785-0.665-2.45-2.101-2.45h-2.205V220.583z"/>
		<path fill="#0A78A0" d="M84.889,235.25h-2.345v-26.253h8.226l8.331,16.767v-16.767h2.38v26.253h-7.316l-9.276-18.552V235.25z"/>
		<path fill="#0A78A0" d="M120.869,208.647c6.091,0,9.626,3.185,9.626,9.836v7.281c0,6.65-3.535,9.836-9.626,9.836h-0.35
			c-6.125,0-9.661-3.186-9.661-9.836v-7.281c0-6.651,3.536-9.836,9.661-9.836H120.869z M120.694,210.117
			c-3.535,0-5.075,2.135-5.075,6.301v11.376c0,4.2,1.54,6.335,5.075,6.335c3.536,0,5.041-2.135,5.041-6.335v-11.376
			C125.734,212.252,124.229,210.117,120.694,210.117z"/>
		<path fill="#0A78A0" d="M136.898,222.333v12.917h-2.766v-26.253h8.436c4.865,0,7.981,2.03,7.981,6.406v0.35
			c0,3.291-2.065,5.216-5.461,5.916c3.465,0.7,5.461,2.695,5.461,6.091v7.491h-2.766v-8.086c0-3.325-1.715-4.831-4.936-4.831
			H136.898z M136.898,221.108h5.845c3.221,0,4.936-1.505,4.936-4.831v-1.225c0-3.325-1.715-4.831-4.936-4.831h-5.845V221.108z"/>
		<path fill="#0A78A0" d="M168.503,230.384c0,2.17,0.665,3.116,2.205,3.116c1.505,0,2.17-0.875,2.17-2.976v-5.215h8.541v2.66
			c0,5.005-3.29,7.631-10.536,7.631h-0.35c-7.491,0-10.851-3.396-10.851-10.116v-6.721c0-6.721,3.36-10.116,10.851-10.116h0.35
			c7.246,0,10.536,2.625,10.536,7.63v2.485h-8.541v-5.041c0-2.1-0.665-2.975-2.17-2.975c-1.54,0-2.205,0.945-2.205,3.115V230.384z"
			/>
		<path fill="#0A78A0" d="M193.913,208.647c6.09,0,9.626,3.185,9.626,9.836v7.281c0,6.65-3.536,9.836-9.626,9.836h-0.35
			c-6.125,0-9.661-3.186-9.661-9.836v-7.281c0-6.651,3.536-9.836,9.661-9.836H193.913z M193.737,210.117
			c-3.535,0-5.075,2.135-5.075,6.301v11.376c0,4.2,1.54,6.335,5.075,6.335c3.536,0,5.041-2.135,5.041-6.335v-11.376
			C198.778,212.252,197.273,210.117,193.737,210.117z"/>
		<path fill="#0A78A0" d="M208.856,235.25h-2.345v-26.253h9.031l4.235,15.612l4.515-15.612h8.646v26.253h-8.646v-18.167
			l-5.005,18.167h-5.425l-5.006-18.832V235.25z"/>
		<path fill="#0A78A0" d="M236.26,235.25v-26.253h9.416c5.076,0,8.086,1.996,8.086,6.301v0.42c0,3.116-1.785,4.971-5.041,5.741
			c3.71,0.665,5.706,2.59,5.706,5.986v1.505c0,4.306-3.01,6.301-8.051,6.301H236.26z M240.881,220.793h4.13
			c2.625,0,4.025-1.225,4.025-4.061v-2.17c0-2.8-1.4-4.061-4.025-4.061h-4.13V220.793z M245.641,233.745
			c2.661,0,4.025-1.26,4.025-4.095v-3.255c0-2.835-1.365-4.095-4.025-4.095h-4.76v11.446H245.641z"/>
		<path fill="#0A78A0" d="M257.646,235.25v-26.253h2.765v26.253H257.646z"/>
		<path fill="#0A78A0" d="M266.115,235.25h-1.645v-26.253h4.34l11.131,20.127v-20.127h1.645v26.253h-3.71l-11.761-21.282V235.25z"/>
		<path fill="#0A78A0" d="M286.205,235.25h-2.311l6.896-26.253h7.911l6.896,26.253h-8.926l-1.89-7.246h-6.686L286.205,235.25z
			 M291.455,215.018l-2.835,10.851h5.636L291.455,215.018z"/>
		<path fill="#0A78A0" d="M306.539,208.997h17.537v1.225h-7.386v25.028h-2.766v-25.028h-7.386V208.997z"/>
		<path fill="#0A78A0" d="M326.104,235.25v-26.253h8.646v26.253H326.104z"/>
		<path fill="#0A78A0" d="M347.313,208.647c5.391,0,8.996,3.08,8.996,9.696v7.561c0,6.616-3.605,9.696-8.996,9.696h-0.35
			c-5.391,0-8.996-3.081-8.996-9.696v-7.561c0-6.616,3.605-9.696,8.996-9.696H347.313z M347.139,209.802
			c-4.41,0-6.301,2.695-6.301,7.841v8.961c0,5.146,1.891,7.841,6.301,7.841c4.411,0,6.301-2.695,6.301-7.841v-8.961
			C353.439,212.498,351.55,209.802,347.139,209.802z"/>
		<path fill="#0A78A0" d="M361.838,235.25h-2.345v-26.253h8.226l8.331,16.767v-16.767h2.38v26.253h-7.315l-9.276-18.552V235.25z"/>
		<path fill="#0A78A0" d="M381.647,233.43c0-1.295,0.875-2.205,2.1-2.205c1.226,0,2.065,0.91,2.065,2.205
			c0,1.26-0.805,2.206-2.1,2.206C382.487,235.635,381.647,234.69,381.647,233.43z"/>
		<path fill="#0A78A0" d="M401.037,222.438v12.812h-4.655v-26.253h10.011c5.075,0,8.086,1.996,8.086,6.301v0.56
			c0,3.22-1.926,5.111-5.355,5.811c3.5,0.7,5.355,2.625,5.355,5.916v7.666h-4.655v-8.716c0-2.835-1.4-4.096-4.025-4.096H401.037z
			 M401.037,220.934h4.69c2.625,0,4.025-1.225,4.025-4.061v-2.31c0-2.8-1.4-4.061-4.025-4.061h-4.69V220.934z"/>
		<path fill="#0A78A0" d="M418.012,235.25h-1.4l7.911-26.253h2.415l7.91,26.253h-2.975l-2.695-9.031h-8.471L418.012,235.25z
			 M424.942,212.042l-3.851,12.952h7.7L424.942,212.042z"/>
		<path fill="#0A78A0" d="M438.977,235.25h-1.33v-26.253h2.52l12.427,21.562v-21.562h1.33v26.253h-2.03l-12.916-22.472V235.25z"/>
		<path fill="#0A78A0" d="M457.456,235.25v-26.253h10.711c7.7,0,11.166,3.326,11.166,10.046v6.161
			c0,6.721-3.466,10.046-11.166,10.046H457.456z M468.132,233.115c1.68,0,2.38-0.84,2.38-3.01v-15.962c0-2.17-0.7-3.01-2.38-3.01
			h-2.03v21.982H468.132z"/>
		<path fill="#0A78A0" d="M491.511,208.647c5.391,0,8.996,3.08,8.996,9.696v7.561c0,6.616-3.605,9.696-8.996,9.696h-0.35
			c-5.391,0-8.996-3.081-8.996-9.696v-7.561c0-6.616,3.605-9.696,8.996-9.696H491.511z M491.336,209.802
			c-4.41,0-6.301,2.695-6.301,7.841v8.961c0,5.146,1.891,7.841,6.301,7.841c4.411,0,6.301-2.695,6.301-7.841v-8.961
			C497.637,212.498,495.747,209.802,491.336,209.802z"/>
		<path fill="#0A78A0" d="M505.686,235.25h-1.33v-26.253h2.835l8.051,23.173l8.016-23.173h2.766v26.253h-2.766v-22.333l-7.7,22.333
			h-2.171l-7.7-22.333V235.25z"/>
		<path fill="#0A78A0" d="M531.9,235.25h-2.345v-26.253h8.226l8.331,16.767v-16.767h2.38v26.253h-7.315l-9.276-18.552V235.25z"/>
		<path fill="#0A78A0" d="M551.99,208.997h13.721v1.225h-10.956v10.747h10.081v1.225h-10.081v11.831h10.956v1.225H551.99V208.997z"
			/>
		<path fill="#0A78A0" d="M580.69,216.593v-3.396c0-1.68-0.665-2.45-2.17-2.45s-2.17,0.77-2.17,2.45v1.155
			c0,1.995,0.42,2.625,2.345,3.22l4.2,1.225c4.761,1.33,6.476,3.745,6.476,8.121v0.875c0,5.005-3.535,7.806-10.221,7.806h-1.226
			c-6.896,0-9.836-2.45-9.836-6.756v-1.47h8.331v3.676c0,1.68,0.63,2.45,2.24,2.45c1.54,0,2.311-0.7,2.311-2.416v-1.4
			c0-1.995-0.455-2.661-2.38-3.255l-3.605-1.05c-4.726-1.33-6.476-3.675-6.476-8.226v-0.595c0-5.076,3.325-7.911,10.396-7.911h0.49
			c6.511,0,9.451,2.485,9.451,6.755v1.19H580.69z"/>
		<path fill="#0A78A0" d="M604.98,217.328v-2.695c0-3.01-1.646-4.831-5.216-4.831c-3.71,0-5.391,1.855-5.391,4.831v0.315
			c0,2.24,1.016,3.57,4.376,4.936l4.235,1.715c3.57,1.435,5.146,3.605,5.146,6.721v0.63c0,4.13-3.15,6.651-8.226,6.651h-0.351
			c-4.936,0-8.12-2.416-8.12-6.441v-2.52h2.625v2.975c0,3.01,1.645,4.831,5.67,4.831c3.781,0,5.846-1.575,5.846-4.585v-0.84
			c0-2.206-1.015-3.641-4.375-5.006l-4.131-1.68c-3.57-1.435-5.146-3.5-5.146-6.755v-0.21c0-4.201,3.115-6.721,7.666-6.721h0.351
			c4.48,0,7.596,2.415,7.596,6.44v2.24H604.98z"/>
	</g>
</g>
</svg>
